<?xml version="1.0" encoding="utf-8" standalone="no"?>
<!DOCTYPE svg PUBLIC "-//W3C//DTD SVG 1.1//EN"
  "http://www.w3.org/Graphics/SVG/1.1/DTD/svg11.dtd">
<!-- Created with matplotlib (https://matplotlib.org/) -->
<svg height="287.675pt" version="1.1" viewBox="0 0 1177.125211 287.675" width="1177.125211pt" xmlns="http://www.w3.org/2000/svg" xmlns:xlink="http://www.w3.org/1999/xlink">
 <metadata>
  <rdf:RDF xmlns:cc="http://creativecommons.org/ns#" xmlns:dc="http://purl.org/dc/elements/1.1/" xmlns:rdf="http://www.w3.org/1999/02/22-rdf-syntax-ns#">
   <cc:Work>
    <dc:type rdf:resource="http://purl.org/dc/dcmitype/StillImage"/>
    <dc:date>2021-11-25T11:17:16.734059</dc:date>
    <dc:format>image/svg+xml</dc:format>
    <dc:creator>
     <cc:Agent>
      <dc:title>Matplotlib v3.3.1, https://matplotlib.org/</dc:title>
     </cc:Agent>
    </dc:creator>
   </cc:Work>
  </rdf:RDF>
 </metadata>
 <defs>
  <style type="text/css">*{stroke-linecap:butt;stroke-linejoin:round;}</style>
 </defs>
 <g id="figure_1">
  <g id="patch_1">
   <path d="M 0 287.675 
L 1177.125211 287.675 
L 1177.125211 0 
L 0 0 
z
" style="fill:none;"/>
  </g>
  <g id="axes_1">
   <g id="patch_2">
    <path d="M 38.482813 263.796875 
L 231.497114 263.796875 
L 231.497114 28.396875 
L 38.482813 28.396875 
z
" style="fill:#ffffff;"/>
   </g>
   <g id="matplotlib.axis_1">
    <g id="xtick_1">
     <g id="line2d_1">
      <defs>
       <path d="M 0 0 
L 0 3.5 
" id="m6af7529af6" style="stroke:#000000;stroke-width:0.8;"/>
      </defs>
      <g>
       <use style="stroke:#000000;stroke-width:0.8;" x="47.25619" xlink:href="#m6af7529af6" y="263.796875"/>
      </g>
     </g>
     <g id="text_1">
      <!-- 4 -->
      <g transform="translate(44.07494 278.395312)scale(0.1 -0.1)">
       <defs>
        <path d="M 37.796875 64.3125 
L 12.890625 25.390625 
L 37.796875 25.390625 
z
M 35.203125 72.90625 
L 47.609375 72.90625 
L 47.609375 25.390625 
L 58.015625 25.390625 
L 58.015625 17.1875 
L 47.609375 17.1875 
L 47.609375 0 
L 37.796875 0 
L 37.796875 17.1875 
L 4.890625 17.1875 
L 4.890625 26.703125 
z
" id="DejaVuSans-52"/>
       </defs>
       <use xlink:href="#DejaVuSans-52"/>
      </g>
     </g>
    </g>
    <g id="xtick_2">
     <g id="line2d_2">
      <g>
       <use style="stroke:#000000;stroke-width:0.8;" x="105.745372" xlink:href="#m6af7529af6" y="263.796875"/>
      </g>
     </g>
     <g id="text_2">
      <!-- 6 -->
      <g transform="translate(102.564122 278.395312)scale(0.1 -0.1)">
       <defs>
        <path d="M 33.015625 40.375 
Q 26.375 40.375 22.484375 35.828125 
Q 18.609375 31.296875 18.609375 23.390625 
Q 18.609375 15.53125 22.484375 10.953125 
Q 26.375 6.390625 33.015625 6.390625 
Q 39.65625 6.390625 43.53125 10.953125 
Q 47.40625 15.53125 47.40625 23.390625 
Q 47.40625 31.296875 43.53125 35.828125 
Q 39.65625 40.375 33.015625 40.375 
z
M 52.59375 71.296875 
L 52.59375 62.3125 
Q 48.875 64.0625 45.09375 64.984375 
Q 41.3125 65.921875 37.59375 65.921875 
Q 27.828125 65.921875 22.671875 59.328125 
Q 17.53125 52.734375 16.796875 39.40625 
Q 19.671875 43.65625 24.015625 45.921875 
Q 28.375 48.1875 33.59375 48.1875 
Q 44.578125 48.1875 50.953125 41.515625 
Q 57.328125 34.859375 57.328125 23.390625 
Q 57.328125 12.15625 50.6875 5.359375 
Q 44.046875 -1.421875 33.015625 -1.421875 
Q 20.359375 -1.421875 13.671875 8.265625 
Q 6.984375 17.96875 6.984375 36.375 
Q 6.984375 53.65625 15.1875 63.9375 
Q 23.390625 74.21875 37.203125 74.21875 
Q 40.921875 74.21875 44.703125 73.484375 
Q 48.484375 72.75 52.59375 71.296875 
z
" id="DejaVuSans-54"/>
       </defs>
       <use xlink:href="#DejaVuSans-54"/>
      </g>
     </g>
    </g>
    <g id="xtick_3">
     <g id="line2d_3">
      <g>
       <use style="stroke:#000000;stroke-width:0.8;" x="164.234554" xlink:href="#m6af7529af6" y="263.796875"/>
      </g>
     </g>
     <g id="text_3">
      <!-- 8 -->
      <g transform="translate(161.053304 278.395312)scale(0.1 -0.1)">
       <defs>
        <path d="M 31.78125 34.625 
Q 24.75 34.625 20.71875 30.859375 
Q 16.703125 27.09375 16.703125 20.515625 
Q 16.703125 13.921875 20.71875 10.15625 
Q 24.75 6.390625 31.78125 6.390625 
Q 38.8125 6.390625 42.859375 10.171875 
Q 46.921875 13.96875 46.921875 20.515625 
Q 46.921875 27.09375 42.890625 30.859375 
Q 38.875 34.625 31.78125 34.625 
z
M 21.921875 38.8125 
Q 15.578125 40.375 12.03125 44.71875 
Q 8.5 49.078125 8.5 55.328125 
Q 8.5 64.0625 14.71875 69.140625 
Q 20.953125 74.21875 31.78125 74.21875 
Q 42.671875 74.21875 48.875 69.140625 
Q 55.078125 64.0625 55.078125 55.328125 
Q 55.078125 49.078125 51.53125 44.71875 
Q 48 40.375 41.703125 38.8125 
Q 48.828125 37.15625 52.796875 32.3125 
Q 56.78125 27.484375 56.78125 20.515625 
Q 56.78125 9.90625 50.3125 4.234375 
Q 43.84375 -1.421875 31.78125 -1.421875 
Q 19.734375 -1.421875 13.25 4.234375 
Q 6.78125 9.90625 6.78125 20.515625 
Q 6.78125 27.484375 10.78125 32.3125 
Q 14.796875 37.15625 21.921875 38.8125 
z
M 18.3125 54.390625 
Q 18.3125 48.734375 21.84375 45.5625 
Q 25.390625 42.390625 31.78125 42.390625 
Q 38.140625 42.390625 41.71875 45.5625 
Q 45.3125 48.734375 45.3125 54.390625 
Q 45.3125 60.0625 41.71875 63.234375 
Q 38.140625 66.40625 31.78125 66.40625 
Q 25.390625 66.40625 21.84375 63.234375 
Q 18.3125 60.0625 18.3125 54.390625 
z
" id="DejaVuSans-56"/>
       </defs>
       <use xlink:href="#DejaVuSans-56"/>
      </g>
     </g>
    </g>
    <g id="xtick_4">
     <g id="line2d_4">
      <g>
       <use style="stroke:#000000;stroke-width:0.8;" x="222.723737" xlink:href="#m6af7529af6" y="263.796875"/>
      </g>
     </g>
     <g id="text_4">
      <!-- 10 -->
      <g transform="translate(216.361237 278.395312)scale(0.1 -0.1)">
       <defs>
        <path d="M 12.40625 8.296875 
L 28.515625 8.296875 
L 28.515625 63.921875 
L 10.984375 60.40625 
L 10.984375 69.390625 
L 28.421875 72.90625 
L 38.28125 72.90625 
L 38.28125 8.296875 
L 54.390625 8.296875 
L 54.390625 0 
L 12.40625 0 
z
" id="DejaVuSans-49"/>
        <path d="M 31.78125 66.40625 
Q 24.171875 66.40625 20.328125 58.90625 
Q 16.5 51.421875 16.5 36.375 
Q 16.5 21.390625 20.328125 13.890625 
Q 24.171875 6.390625 31.78125 6.390625 
Q 39.453125 6.390625 43.28125 13.890625 
Q 47.125 21.390625 47.125 36.375 
Q 47.125 51.421875 43.28125 58.90625 
Q 39.453125 66.40625 31.78125 66.40625 
z
M 31.78125 74.21875 
Q 44.046875 74.21875 50.515625 64.515625 
Q 56.984375 54.828125 56.984375 36.375 
Q 56.984375 17.96875 50.515625 8.265625 
Q 44.046875 -1.421875 31.78125 -1.421875 
Q 19.53125 -1.421875 13.0625 8.265625 
Q 6.59375 17.96875 6.59375 36.375 
Q 6.59375 54.828125 13.0625 64.515625 
Q 19.53125 74.21875 31.78125 74.21875 
z
" id="DejaVuSans-48"/>
       </defs>
       <use xlink:href="#DejaVuSans-49"/>
       <use x="63.623047" xlink:href="#DejaVuSans-48"/>
      </g>
     </g>
    </g>
   </g>
   <g id="matplotlib.axis_2">
    <g id="ytick_1">
     <g id="line2d_5">
      <defs>
       <path d="M 0 0 
L -3.5 0 
" id="mb83f6a8d2e" style="stroke:#000000;stroke-width:0.8;"/>
      </defs>
      <g>
       <use style="stroke:#000000;stroke-width:0.8;" x="38.482813" xlink:href="#mb83f6a8d2e" y="256.581084"/>
      </g>
     </g>
     <g id="text_5">
      <!-- −0.2 -->
      <g transform="translate(7.2 260.380303)scale(0.1 -0.1)">
       <defs>
        <path d="M 10.59375 35.5 
L 73.1875 35.5 
L 73.1875 27.203125 
L 10.59375 27.203125 
z
" id="DejaVuSans-8722"/>
        <path d="M 10.6875 12.40625 
L 21 12.40625 
L 21 0 
L 10.6875 0 
z
" id="DejaVuSans-46"/>
        <path d="M 19.1875 8.296875 
L 53.609375 8.296875 
L 53.609375 0 
L 7.328125 0 
L 7.328125 8.296875 
Q 12.9375 14.109375 22.625 23.890625 
Q 32.328125 33.6875 34.8125 36.53125 
Q 39.546875 41.84375 41.421875 45.53125 
Q 43.3125 49.21875 43.3125 52.78125 
Q 43.3125 58.59375 39.234375 62.25 
Q 35.15625 65.921875 28.609375 65.921875 
Q 23.96875 65.921875 18.8125 64.3125 
Q 13.671875 62.703125 7.8125 59.421875 
L 7.8125 69.390625 
Q 13.765625 71.78125 18.9375 73 
Q 24.125 74.21875 28.421875 74.21875 
Q 39.75 74.21875 46.484375 68.546875 
Q 53.21875 62.890625 53.21875 53.421875 
Q 53.21875 48.921875 51.53125 44.890625 
Q 49.859375 40.875 45.40625 35.40625 
Q 44.1875 33.984375 37.640625 27.21875 
Q 31.109375 20.453125 19.1875 8.296875 
z
" id="DejaVuSans-50"/>
       </defs>
       <use xlink:href="#DejaVuSans-8722"/>
       <use x="83.789062" xlink:href="#DejaVuSans-48"/>
       <use x="147.412109" xlink:href="#DejaVuSans-46"/>
       <use x="179.199219" xlink:href="#DejaVuSans-50"/>
      </g>
     </g>
    </g>
    <g id="ytick_2">
     <g id="line2d_6">
      <g>
       <use style="stroke:#000000;stroke-width:0.8;" x="38.482813" xlink:href="#mb83f6a8d2e" y="220.333716"/>
      </g>
     </g>
     <g id="text_6">
      <!-- 0.0 -->
      <g transform="translate(15.579688 224.132935)scale(0.1 -0.1)">
       <use xlink:href="#DejaVuSans-48"/>
       <use x="63.623047" xlink:href="#DejaVuSans-46"/>
       <use x="95.410156" xlink:href="#DejaVuSans-48"/>
      </g>
     </g>
    </g>
    <g id="ytick_3">
     <g id="line2d_7">
      <g>
       <use style="stroke:#000000;stroke-width:0.8;" x="38.482813" xlink:href="#mb83f6a8d2e" y="184.086348"/>
      </g>
     </g>
     <g id="text_7">
      <!-- 0.2 -->
      <g transform="translate(15.579688 187.885566)scale(0.1 -0.1)">
       <use xlink:href="#DejaVuSans-48"/>
       <use x="63.623047" xlink:href="#DejaVuSans-46"/>
       <use x="95.410156" xlink:href="#DejaVuSans-50"/>
      </g>
     </g>
    </g>
    <g id="ytick_4">
     <g id="line2d_8">
      <g>
       <use style="stroke:#000000;stroke-width:0.8;" x="38.482813" xlink:href="#mb83f6a8d2e" y="147.83898"/>
      </g>
     </g>
     <g id="text_8">
      <!-- 0.4 -->
      <g transform="translate(15.579688 151.638198)scale(0.1 -0.1)">
       <use xlink:href="#DejaVuSans-48"/>
       <use x="63.623047" xlink:href="#DejaVuSans-46"/>
       <use x="95.410156" xlink:href="#DejaVuSans-52"/>
      </g>
     </g>
    </g>
    <g id="ytick_5">
     <g id="line2d_9">
      <g>
       <use style="stroke:#000000;stroke-width:0.8;" x="38.482813" xlink:href="#mb83f6a8d2e" y="111.591611"/>
      </g>
     </g>
     <g id="text_9">
      <!-- 0.6 -->
      <g transform="translate(15.579688 115.39083)scale(0.1 -0.1)">
       <use xlink:href="#DejaVuSans-48"/>
       <use x="63.623047" xlink:href="#DejaVuSans-46"/>
       <use x="95.410156" xlink:href="#DejaVuSans-54"/>
      </g>
     </g>
    </g>
    <g id="ytick_6">
     <g id="line2d_10">
      <g>
       <use style="stroke:#000000;stroke-width:0.8;" x="38.482813" xlink:href="#mb83f6a8d2e" y="75.344243"/>
      </g>
     </g>
     <g id="text_10">
      <!-- 0.8 -->
      <g transform="translate(15.579688 79.143462)scale(0.1 -0.1)">
       <use xlink:href="#DejaVuSans-48"/>
       <use x="63.623047" xlink:href="#DejaVuSans-46"/>
       <use x="95.410156" xlink:href="#DejaVuSans-56"/>
      </g>
     </g>
    </g>
    <g id="ytick_7">
     <g id="line2d_11">
      <g>
       <use style="stroke:#000000;stroke-width:0.8;" x="38.482813" xlink:href="#mb83f6a8d2e" y="39.096875"/>
      </g>
     </g>
     <g id="text_11">
      <!-- 1.0 -->
      <g transform="translate(15.579688 42.896094)scale(0.1 -0.1)">
       <use xlink:href="#DejaVuSans-49"/>
       <use x="63.623047" xlink:href="#DejaVuSans-46"/>
       <use x="95.410156" xlink:href="#DejaVuSans-48"/>
      </g>
     </g>
    </g>
   </g>
   <g id="line2d_12">
    <path clip-path="url(#pa50d27609e)" d="M 47.25619 73.384926 
L 76.500781 58.515108 
L 105.745372 86.376051 
L 134.989963 88.079805 
L 164.234554 69.303015 
L 193.479146 141.042598 
L 222.723737 111.591611 
" style="fill:none;stroke:#2a557f;stroke-linecap:square;stroke-width:4;"/>
   </g>
   <g id="line2d_13">
    <path clip-path="url(#pa50d27609e)" d="M 47.25619 68.486633 
L 76.500781 97.351574 
L 105.745372 102.135776 
L 134.989963 92.978098 
L 164.234554 81.385471 
L 193.479146 129.715295 
L 222.723737 135.756523 
" style="fill:none;stroke:#45bc9c;stroke-dasharray:16,6;stroke-dashoffset:0;stroke-width:4;"/>
   </g>
   <g id="line2d_14">
    <path clip-path="url(#pa50d27609e)" d="M 47.25619 73.384926 
L 76.500781 84.406085 
L 105.745372 82.43612 
L 134.989963 83.181512 
L 164.234554 75.344243 
L 193.479146 95.733388 
L 222.723737 75.344243 
" style="fill:none;stroke:#ffcd6e;stroke-dasharray:4,4;stroke-dashoffset:0;stroke-width:4;"/>
   </g>
   <g id="line2d_15">
    <path clip-path="url(#pa50d27609e)" d="M 47.25619 117.469563 
L 76.500781 97.351574 
L 105.745372 74.556257 
L 134.989963 83.181512 
L 164.234554 75.344243 
L 193.479146 73.078783 
L 222.723737 75.344243 
" style="fill:none;stroke:#f05076;stroke-dasharray:12,5,6,5;stroke-dashoffset:0;stroke-width:4;"/>
   </g>
   <g id="line2d_16">
    <path clip-path="url(#pa50d27609e)" d="M 47.25619 102.774684 
L 76.500781 97.351574 
L 105.745372 86.376051 
L 134.989963 92.978098 
L 164.234554 99.509155 
L 193.479146 95.733388 
L 222.723737 99.509155 
" style="fill:none;stroke:#f3764a;stroke-dasharray:20,4,4,4;stroke-dashoffset:0;stroke-width:4;"/>
   </g>
   <g id="line2d_17"/>
   <g id="line2d_18"/>
   <g id="line2d_19"/>
   <g id="line2d_20"/>
   <g id="line2d_21"/>
   <g id="patch_3">
    <path d="M 38.482813 263.796875 
L 38.482813 28.396875 
" style="fill:none;stroke:#000000;stroke-linecap:square;stroke-linejoin:miter;stroke-width:0.8;"/>
   </g>
   <g id="patch_4">
    <path d="M 38.482812 263.796875 
L 231.497114 263.796875 
" style="fill:none;stroke:#000000;stroke-linecap:square;stroke-linejoin:miter;stroke-width:0.8;"/>
   </g>
   <g id="text_12">
    <!-- Accuracy -->
    <g transform="translate(89.333713 22.396875)scale(0.2 -0.2)">
     <defs>
      <path d="M 34.1875 63.1875 
L 20.796875 26.90625 
L 47.609375 26.90625 
z
M 28.609375 72.90625 
L 39.796875 72.90625 
L 67.578125 0 
L 57.328125 0 
L 50.6875 18.703125 
L 17.828125 18.703125 
L 11.1875 0 
L 0.78125 0 
z
" id="DejaVuSans-65"/>
      <path d="M 48.78125 52.59375 
L 48.78125 44.1875 
Q 44.96875 46.296875 41.140625 47.34375 
Q 37.3125 48.390625 33.40625 48.390625 
Q 24.65625 48.390625 19.8125 42.84375 
Q 14.984375 37.3125 14.984375 27.296875 
Q 14.984375 17.28125 19.8125 11.734375 
Q 24.65625 6.203125 33.40625 6.203125 
Q 37.3125 6.203125 41.140625 7.25 
Q 44.96875 8.296875 48.78125 10.40625 
L 48.78125 2.09375 
Q 45.015625 0.34375 40.984375 -0.53125 
Q 36.96875 -1.421875 32.421875 -1.421875 
Q 20.0625 -1.421875 12.78125 6.34375 
Q 5.515625 14.109375 5.515625 27.296875 
Q 5.515625 40.671875 12.859375 48.328125 
Q 20.21875 56 33.015625 56 
Q 37.15625 56 41.109375 55.140625 
Q 45.0625 54.296875 48.78125 52.59375 
z
" id="DejaVuSans-99"/>
      <path d="M 8.5 21.578125 
L 8.5 54.6875 
L 17.484375 54.6875 
L 17.484375 21.921875 
Q 17.484375 14.15625 20.5 10.265625 
Q 23.53125 6.390625 29.59375 6.390625 
Q 36.859375 6.390625 41.078125 11.03125 
Q 45.3125 15.671875 45.3125 23.6875 
L 45.3125 54.6875 
L 54.296875 54.6875 
L 54.296875 0 
L 45.3125 0 
L 45.3125 8.40625 
Q 42.046875 3.421875 37.71875 1 
Q 33.40625 -1.421875 27.6875 -1.421875 
Q 18.265625 -1.421875 13.375 4.4375 
Q 8.5 10.296875 8.5 21.578125 
z
M 31.109375 56 
z
" id="DejaVuSans-117"/>
      <path d="M 41.109375 46.296875 
Q 39.59375 47.171875 37.8125 47.578125 
Q 36.03125 48 33.890625 48 
Q 26.265625 48 22.1875 43.046875 
Q 18.109375 38.09375 18.109375 28.8125 
L 18.109375 0 
L 9.078125 0 
L 9.078125 54.6875 
L 18.109375 54.6875 
L 18.109375 46.1875 
Q 20.953125 51.171875 25.484375 53.578125 
Q 30.03125 56 36.53125 56 
Q 37.453125 56 38.578125 55.875 
Q 39.703125 55.765625 41.0625 55.515625 
z
" id="DejaVuSans-114"/>
      <path d="M 34.28125 27.484375 
Q 23.390625 27.484375 19.1875 25 
Q 14.984375 22.515625 14.984375 16.5 
Q 14.984375 11.71875 18.140625 8.90625 
Q 21.296875 6.109375 26.703125 6.109375 
Q 34.1875 6.109375 38.703125 11.40625 
Q 43.21875 16.703125 43.21875 25.484375 
L 43.21875 27.484375 
z
M 52.203125 31.203125 
L 52.203125 0 
L 43.21875 0 
L 43.21875 8.296875 
Q 40.140625 3.328125 35.546875 0.953125 
Q 30.953125 -1.421875 24.3125 -1.421875 
Q 15.921875 -1.421875 10.953125 3.296875 
Q 6 8.015625 6 15.921875 
Q 6 25.140625 12.171875 29.828125 
Q 18.359375 34.515625 30.609375 34.515625 
L 43.21875 34.515625 
L 43.21875 35.40625 
Q 43.21875 41.609375 39.140625 45 
Q 35.0625 48.390625 27.6875 48.390625 
Q 23 48.390625 18.546875 47.265625 
Q 14.109375 46.140625 10.015625 43.890625 
L 10.015625 52.203125 
Q 14.9375 54.109375 19.578125 55.046875 
Q 24.21875 56 28.609375 56 
Q 40.484375 56 46.34375 49.84375 
Q 52.203125 43.703125 52.203125 31.203125 
z
" id="DejaVuSans-97"/>
      <path d="M 32.171875 -5.078125 
Q 28.375 -14.84375 24.75 -17.8125 
Q 21.140625 -20.796875 15.09375 -20.796875 
L 7.90625 -20.796875 
L 7.90625 -13.28125 
L 13.1875 -13.28125 
Q 16.890625 -13.28125 18.9375 -11.515625 
Q 21 -9.765625 23.484375 -3.21875 
L 25.09375 0.875 
L 2.984375 54.6875 
L 12.5 54.6875 
L 29.59375 11.921875 
L 46.6875 54.6875 
L 56.203125 54.6875 
z
" id="DejaVuSans-121"/>
     </defs>
     <use xlink:href="#DejaVuSans-65"/>
     <use x="66.658203" xlink:href="#DejaVuSans-99"/>
     <use x="121.638672" xlink:href="#DejaVuSans-99"/>
     <use x="176.619141" xlink:href="#DejaVuSans-117"/>
     <use x="239.998047" xlink:href="#DejaVuSans-114"/>
     <use x="281.111328" xlink:href="#DejaVuSans-97"/>
     <use x="342.390625" xlink:href="#DejaVuSans-99"/>
     <use x="397.371094" xlink:href="#DejaVuSans-121"/>
    </g>
   </g>
  </g>
  <g id="axes_2">
   <g id="patch_5">
    <path d="M 245.727024 263.796875 
L 438.741326 263.796875 
L 438.741326 28.396875 
L 245.727024 28.396875 
z
" style="fill:#ffffff;"/>
   </g>
   <g id="matplotlib.axis_3">
    <g id="xtick_5">
     <g id="line2d_22">
      <g>
       <use style="stroke:#000000;stroke-width:0.8;" x="254.500402" xlink:href="#m6af7529af6" y="263.796875"/>
      </g>
     </g>
     <g id="text_13">
      <!-- 4 -->
      <g transform="translate(251.319152 278.395312)scale(0.1 -0.1)">
       <use xlink:href="#DejaVuSans-52"/>
      </g>
     </g>
    </g>
    <g id="xtick_6">
     <g id="line2d_23">
      <g>
       <use style="stroke:#000000;stroke-width:0.8;" x="312.989584" xlink:href="#m6af7529af6" y="263.796875"/>
      </g>
     </g>
     <g id="text_14">
      <!-- 6 -->
      <g transform="translate(309.808334 278.395312)scale(0.1 -0.1)">
       <use xlink:href="#DejaVuSans-54"/>
      </g>
     </g>
    </g>
    <g id="xtick_7">
     <g id="line2d_24">
      <g>
       <use style="stroke:#000000;stroke-width:0.8;" x="371.478766" xlink:href="#m6af7529af6" y="263.796875"/>
      </g>
     </g>
     <g id="text_15">
      <!-- 8 -->
      <g transform="translate(368.297516 278.395312)scale(0.1 -0.1)">
       <use xlink:href="#DejaVuSans-56"/>
      </g>
     </g>
    </g>
    <g id="xtick_8">
     <g id="line2d_25">
      <g>
       <use style="stroke:#000000;stroke-width:0.8;" x="429.967949" xlink:href="#m6af7529af6" y="263.796875"/>
      </g>
     </g>
     <g id="text_16">
      <!-- 10 -->
      <g transform="translate(423.605449 278.395312)scale(0.1 -0.1)">
       <use xlink:href="#DejaVuSans-49"/>
       <use x="63.623047" xlink:href="#DejaVuSans-48"/>
      </g>
     </g>
    </g>
   </g>
   <g id="matplotlib.axis_4">
    <g id="ytick_8">
     <g id="line2d_26">
      <g>
       <use style="stroke:#000000;stroke-width:0.8;" x="245.727024" xlink:href="#mb83f6a8d2e" y="256.581084"/>
      </g>
     </g>
    </g>
    <g id="ytick_9">
     <g id="line2d_27">
      <g>
       <use style="stroke:#000000;stroke-width:0.8;" x="245.727024" xlink:href="#mb83f6a8d2e" y="220.333716"/>
      </g>
     </g>
    </g>
    <g id="ytick_10">
     <g id="line2d_28">
      <g>
       <use style="stroke:#000000;stroke-width:0.8;" x="245.727024" xlink:href="#mb83f6a8d2e" y="184.086348"/>
      </g>
     </g>
    </g>
    <g id="ytick_11">
     <g id="line2d_29">
      <g>
       <use style="stroke:#000000;stroke-width:0.8;" x="245.727024" xlink:href="#mb83f6a8d2e" y="147.83898"/>
      </g>
     </g>
    </g>
    <g id="ytick_12">
     <g id="line2d_30">
      <g>
       <use style="stroke:#000000;stroke-width:0.8;" x="245.727024" xlink:href="#mb83f6a8d2e" y="111.591611"/>
      </g>
     </g>
    </g>
    <g id="ytick_13">
     <g id="line2d_31">
      <g>
       <use style="stroke:#000000;stroke-width:0.8;" x="245.727024" xlink:href="#mb83f6a8d2e" y="75.344243"/>
      </g>
     </g>
    </g>
    <g id="ytick_14">
     <g id="line2d_32">
      <g>
       <use style="stroke:#000000;stroke-width:0.8;" x="245.727024" xlink:href="#mb83f6a8d2e" y="39.096875"/>
      </g>
     </g>
    </g>
   </g>
   <g id="line2d_33">
    <path clip-path="url(#p8868f96150)" d="M 254.500402 165.962664 
L 283.744993 39.096875 
L 312.989584 39.096875 
L 342.234175 39.096875 
L 371.478766 39.096875 
L 400.723357 39.096875 
L 429.967949 39.096875 
" style="fill:none;stroke:#2a557f;stroke-linecap:square;stroke-width:4;"/>
   </g>
   <g id="line2d_34">
    <path clip-path="url(#p8868f96150)" d="M 254.500402 184.086348 
L 283.744993 59.234302 
L 312.989584 39.096875 
L 342.234175 39.096875 
L 371.478766 39.096875 
L 400.723357 39.096875 
L 429.967949 39.096875 
" style="fill:none;stroke:#45bc9c;stroke-dasharray:16,6;stroke-dashoffset:0;stroke-width:4;"/>
   </g>
   <g id="line2d_35">
    <path clip-path="url(#p8868f96150)" d="M 254.500402 175.024506 
L 283.744993 55.572951 
L 312.989584 39.096875 
L 342.234175 50.424178 
L 371.478766 39.096875 
L 400.723357 39.096875 
L 429.967949 39.096875 
" style="fill:none;stroke:#ffcd6e;stroke-dasharray:4,4;stroke-dashoffset:0;stroke-width:4;"/>
   </g>
   <g id="line2d_36">
    <path clip-path="url(#p8868f96150)" d="M 254.500402 191.717373 
L 283.744993 99.509155 
L 312.989584 74.174973 
L 342.234175 66.282401 
L 371.478766 66.282401 
L 400.723357 55.572951 
L 429.967949 39.096875 
" style="fill:none;stroke:#f05076;stroke-dasharray:12,5,6,5;stroke-dashoffset:0;stroke-width:4;"/>
   </g>
   <g id="line2d_37">
    <path clip-path="url(#p8868f96150)" d="M 254.500402 220.333716 
L 283.744993 96.329562 
L 312.989584 49.165588 
L 342.234175 52.042364 
L 371.478766 54.199945 
L 400.723357 39.096875 
L 429.967949 39.096875 
" style="fill:none;stroke:#f3764a;stroke-dasharray:20,4,4,4;stroke-dashoffset:0;stroke-width:4;"/>
   </g>
   <g id="patch_6">
    <path d="M 245.727024 263.796875 
L 245.727024 28.396875 
" style="fill:none;stroke:#000000;stroke-linecap:square;stroke-linejoin:miter;stroke-width:0.8;"/>
   </g>
   <g id="patch_7">
    <path d="M 245.727024 263.796875 
L 438.741326 263.796875 
" style="fill:none;stroke:#000000;stroke-linecap:square;stroke-linejoin:miter;stroke-width:0.8;"/>
   </g>
   <g id="text_17">
    <!-- Precision -->
    <g transform="translate(297.620113 22.396875)scale(0.2 -0.2)">
     <defs>
      <path d="M 19.671875 64.796875 
L 19.671875 37.40625 
L 32.078125 37.40625 
Q 38.96875 37.40625 42.71875 40.96875 
Q 46.484375 44.53125 46.484375 51.125 
Q 46.484375 57.671875 42.71875 61.234375 
Q 38.96875 64.796875 32.078125 64.796875 
z
M 9.8125 72.90625 
L 32.078125 72.90625 
Q 44.34375 72.90625 50.609375 67.359375 
Q 56.890625 61.8125 56.890625 51.125 
Q 56.890625 40.328125 50.609375 34.8125 
Q 44.34375 29.296875 32.078125 29.296875 
L 19.671875 29.296875 
L 19.671875 0 
L 9.8125 0 
z
" id="DejaVuSans-80"/>
      <path d="M 56.203125 29.59375 
L 56.203125 25.203125 
L 14.890625 25.203125 
Q 15.484375 15.921875 20.484375 11.0625 
Q 25.484375 6.203125 34.421875 6.203125 
Q 39.59375 6.203125 44.453125 7.46875 
Q 49.3125 8.734375 54.109375 11.28125 
L 54.109375 2.78125 
Q 49.265625 0.734375 44.1875 -0.34375 
Q 39.109375 -1.421875 33.890625 -1.421875 
Q 20.796875 -1.421875 13.15625 6.1875 
Q 5.515625 13.8125 5.515625 26.8125 
Q 5.515625 40.234375 12.765625 48.109375 
Q 20.015625 56 32.328125 56 
Q 43.359375 56 49.78125 48.890625 
Q 56.203125 41.796875 56.203125 29.59375 
z
M 47.21875 32.234375 
Q 47.125 39.59375 43.09375 43.984375 
Q 39.0625 48.390625 32.421875 48.390625 
Q 24.90625 48.390625 20.390625 44.140625 
Q 15.875 39.890625 15.1875 32.171875 
z
" id="DejaVuSans-101"/>
      <path d="M 9.421875 54.6875 
L 18.40625 54.6875 
L 18.40625 0 
L 9.421875 0 
z
M 9.421875 75.984375 
L 18.40625 75.984375 
L 18.40625 64.59375 
L 9.421875 64.59375 
z
" id="DejaVuSans-105"/>
      <path d="M 44.28125 53.078125 
L 44.28125 44.578125 
Q 40.484375 46.53125 36.375 47.5 
Q 32.28125 48.484375 27.875 48.484375 
Q 21.1875 48.484375 17.84375 46.4375 
Q 14.5 44.390625 14.5 40.28125 
Q 14.5 37.15625 16.890625 35.375 
Q 19.28125 33.59375 26.515625 31.984375 
L 29.59375 31.296875 
Q 39.15625 29.25 43.1875 25.515625 
Q 47.21875 21.78125 47.21875 15.09375 
Q 47.21875 7.46875 41.1875 3.015625 
Q 35.15625 -1.421875 24.609375 -1.421875 
Q 20.21875 -1.421875 15.453125 -0.5625 
Q 10.6875 0.296875 5.421875 2 
L 5.421875 11.28125 
Q 10.40625 8.6875 15.234375 7.390625 
Q 20.0625 6.109375 24.8125 6.109375 
Q 31.15625 6.109375 34.5625 8.28125 
Q 37.984375 10.453125 37.984375 14.40625 
Q 37.984375 18.0625 35.515625 20.015625 
Q 33.0625 21.96875 24.703125 23.78125 
L 21.578125 24.515625 
Q 13.234375 26.265625 9.515625 29.90625 
Q 5.8125 33.546875 5.8125 39.890625 
Q 5.8125 47.609375 11.28125 51.796875 
Q 16.75 56 26.8125 56 
Q 31.78125 56 36.171875 55.265625 
Q 40.578125 54.546875 44.28125 53.078125 
z
" id="DejaVuSans-115"/>
      <path d="M 30.609375 48.390625 
Q 23.390625 48.390625 19.1875 42.75 
Q 14.984375 37.109375 14.984375 27.296875 
Q 14.984375 17.484375 19.15625 11.84375 
Q 23.34375 6.203125 30.609375 6.203125 
Q 37.796875 6.203125 41.984375 11.859375 
Q 46.1875 17.53125 46.1875 27.296875 
Q 46.1875 37.015625 41.984375 42.703125 
Q 37.796875 48.390625 30.609375 48.390625 
z
M 30.609375 56 
Q 42.328125 56 49.015625 48.375 
Q 55.71875 40.765625 55.71875 27.296875 
Q 55.71875 13.875 49.015625 6.21875 
Q 42.328125 -1.421875 30.609375 -1.421875 
Q 18.84375 -1.421875 12.171875 6.21875 
Q 5.515625 13.875 5.515625 27.296875 
Q 5.515625 40.765625 12.171875 48.375 
Q 18.84375 56 30.609375 56 
z
" id="DejaVuSans-111"/>
      <path d="M 54.890625 33.015625 
L 54.890625 0 
L 45.90625 0 
L 45.90625 32.71875 
Q 45.90625 40.484375 42.875 44.328125 
Q 39.84375 48.1875 33.796875 48.1875 
Q 26.515625 48.1875 22.3125 43.546875 
Q 18.109375 38.921875 18.109375 30.90625 
L 18.109375 0 
L 9.078125 0 
L 9.078125 54.6875 
L 18.109375 54.6875 
L 18.109375 46.1875 
Q 21.34375 51.125 25.703125 53.5625 
Q 30.078125 56 35.796875 56 
Q 45.21875 56 50.046875 50.171875 
Q 54.890625 44.34375 54.890625 33.015625 
z
" id="DejaVuSans-110"/>
     </defs>
     <use xlink:href="#DejaVuSans-80"/>
     <use x="58.552734" xlink:href="#DejaVuSans-114"/>
     <use x="97.416016" xlink:href="#DejaVuSans-101"/>
     <use x="158.939453" xlink:href="#DejaVuSans-99"/>
     <use x="213.919922" xlink:href="#DejaVuSans-105"/>
     <use x="241.703125" xlink:href="#DejaVuSans-115"/>
     <use x="293.802734" xlink:href="#DejaVuSans-105"/>
     <use x="321.585938" xlink:href="#DejaVuSans-111"/>
     <use x="382.767578" xlink:href="#DejaVuSans-110"/>
    </g>
   </g>
  </g>
  <g id="axes_3">
   <g id="patch_8">
    <path d="M 452.971236 263.796875 
L 645.985538 263.796875 
L 645.985538 28.396875 
L 452.971236 28.396875 
z
" style="fill:#ffffff;"/>
   </g>
   <g id="matplotlib.axis_5">
    <g id="xtick_9">
     <g id="line2d_38">
      <g>
       <use style="stroke:#000000;stroke-width:0.8;" x="461.744613" xlink:href="#m6af7529af6" y="263.796875"/>
      </g>
     </g>
     <g id="text_18">
      <!-- 4 -->
      <g transform="translate(458.563363 278.395312)scale(0.1 -0.1)">
       <use xlink:href="#DejaVuSans-52"/>
      </g>
     </g>
    </g>
    <g id="xtick_10">
     <g id="line2d_39">
      <g>
       <use style="stroke:#000000;stroke-width:0.8;" x="520.233796" xlink:href="#m6af7529af6" y="263.796875"/>
      </g>
     </g>
     <g id="text_19">
      <!-- 6 -->
      <g transform="translate(517.052546 278.395312)scale(0.1 -0.1)">
       <use xlink:href="#DejaVuSans-54"/>
      </g>
     </g>
    </g>
    <g id="xtick_11">
     <g id="line2d_40">
      <g>
       <use style="stroke:#000000;stroke-width:0.8;" x="578.722978" xlink:href="#m6af7529af6" y="263.796875"/>
      </g>
     </g>
     <g id="text_20">
      <!-- 8 -->
      <g transform="translate(575.541728 278.395312)scale(0.1 -0.1)">
       <use xlink:href="#DejaVuSans-56"/>
      </g>
     </g>
    </g>
    <g id="xtick_12">
     <g id="line2d_41">
      <g>
       <use style="stroke:#000000;stroke-width:0.8;" x="637.21216" xlink:href="#m6af7529af6" y="263.796875"/>
      </g>
     </g>
     <g id="text_21">
      <!-- 10 -->
      <g transform="translate(630.84966 278.395312)scale(0.1 -0.1)">
       <use xlink:href="#DejaVuSans-49"/>
       <use x="63.623047" xlink:href="#DejaVuSans-48"/>
      </g>
     </g>
    </g>
   </g>
   <g id="matplotlib.axis_6">
    <g id="ytick_15">
     <g id="line2d_42">
      <g>
       <use style="stroke:#000000;stroke-width:0.8;" x="452.971236" xlink:href="#mb83f6a8d2e" y="256.581084"/>
      </g>
     </g>
    </g>
    <g id="ytick_16">
     <g id="line2d_43">
      <g>
       <use style="stroke:#000000;stroke-width:0.8;" x="452.971236" xlink:href="#mb83f6a8d2e" y="220.333716"/>
      </g>
     </g>
    </g>
    <g id="ytick_17">
     <g id="line2d_44">
      <g>
       <use style="stroke:#000000;stroke-width:0.8;" x="452.971236" xlink:href="#mb83f6a8d2e" y="184.086348"/>
      </g>
     </g>
    </g>
    <g id="ytick_18">
     <g id="line2d_45">
      <g>
       <use style="stroke:#000000;stroke-width:0.8;" x="452.971236" xlink:href="#mb83f6a8d2e" y="147.83898"/>
      </g>
     </g>
    </g>
    <g id="ytick_19">
     <g id="line2d_46">
      <g>
       <use style="stroke:#000000;stroke-width:0.8;" x="452.971236" xlink:href="#mb83f6a8d2e" y="111.591611"/>
      </g>
     </g>
    </g>
    <g id="ytick_20">
     <g id="line2d_47">
      <g>
       <use style="stroke:#000000;stroke-width:0.8;" x="452.971236" xlink:href="#mb83f6a8d2e" y="75.344243"/>
      </g>
     </g>
    </g>
    <g id="ytick_21">
     <g id="line2d_48">
      <g>
       <use style="stroke:#000000;stroke-width:0.8;" x="452.971236" xlink:href="#mb83f6a8d2e" y="39.096875"/>
      </g>
     </g>
    </g>
   </g>
   <g id="line2d_49">
    <path clip-path="url(#pe1c29f4aa4)" d="M 461.744613 39.096875 
L 490.989205 73.078783 
L 520.233796 116.769807 
L 549.478387 117.895502 
L 578.722978 84.406085 
L 607.967569 175.024506 
L 637.21216 137.953334 
" style="fill:none;stroke:#2a557f;stroke-linecap:square;stroke-width:4;"/>
   </g>
   <g id="line2d_50">
    <path clip-path="url(#pe1c29f4aa4)" d="M 461.744613 159.921436 
L 490.989205 129.715295 
L 520.233796 142.660784 
L 549.478387 125.775364 
L 578.722978 102.529769 
L 607.967569 159.921436 
L 637.21216 170.905486 
" style="fill:none;stroke:#45bc9c;stroke-dasharray:16,6;stroke-dashoffset:0;stroke-width:4;"/>
   </g>
   <g id="line2d_51">
    <path clip-path="url(#pe1c29f4aa4)" d="M 461.744613 99.509155 
L 490.989205 107.06069 
L 520.233796 110.297063 
L 549.478387 102.135776 
L 578.722978 93.467927 
L 607.967569 114.612225 
L 637.21216 88.525104 
" style="fill:none;stroke:#ffcd6e;stroke-dasharray:4,4;stroke-dashoffset:0;stroke-width:4;"/>
   </g>
   <g id="line2d_52">
    <path clip-path="url(#pe1c29f4aa4)" d="M 461.744613 39.096875 
L 490.989205 61.75148 
L 520.233796 58.515108 
L 549.478387 86.376051 
L 578.722978 66.282401 
L 607.967569 69.303015 
L 637.21216 88.525104 
" style="fill:none;stroke:#f05076;stroke-dasharray:12,5,6,5;stroke-dashoffset:0;stroke-width:4;"/>
   </g>
   <g id="line2d_53">
    <path clip-path="url(#pe1c29f4aa4)" d="M 461.744613 220.333716 
L 490.989205 73.078783 
L 520.233796 110.297063 
L 549.478387 117.895502 
L 578.722978 120.653453 
L 607.967569 114.612225 
L 637.21216 121.477257 
" style="fill:none;stroke:#f3764a;stroke-dasharray:20,4,4,4;stroke-dashoffset:0;stroke-width:4;"/>
   </g>
   <g id="patch_9">
    <path d="M 452.971236 263.796875 
L 452.971236 28.396875 
" style="fill:none;stroke:#000000;stroke-linecap:square;stroke-linejoin:miter;stroke-width:0.8;"/>
   </g>
   <g id="patch_10">
    <path d="M 452.971236 263.796875 
L 645.985538 263.796875 
" style="fill:none;stroke:#000000;stroke-linecap:square;stroke-linejoin:miter;stroke-width:0.8;"/>
   </g>
   <g id="text_22">
    <!-- Recall -->
    <g transform="translate(519.644012 22.396875)scale(0.2 -0.2)">
     <defs>
      <path d="M 44.390625 34.1875 
Q 47.5625 33.109375 50.5625 29.59375 
Q 53.5625 26.078125 56.59375 19.921875 
L 66.609375 0 
L 56 0 
L 46.6875 18.703125 
Q 43.0625 26.03125 39.671875 28.421875 
Q 36.28125 30.8125 30.421875 30.8125 
L 19.671875 30.8125 
L 19.671875 0 
L 9.8125 0 
L 9.8125 72.90625 
L 32.078125 72.90625 
Q 44.578125 72.90625 50.734375 67.671875 
Q 56.890625 62.453125 56.890625 51.90625 
Q 56.890625 45.015625 53.6875 40.46875 
Q 50.484375 35.9375 44.390625 34.1875 
z
M 19.671875 64.796875 
L 19.671875 38.921875 
L 32.078125 38.921875 
Q 39.203125 38.921875 42.84375 42.21875 
Q 46.484375 45.515625 46.484375 51.90625 
Q 46.484375 58.296875 42.84375 61.546875 
Q 39.203125 64.796875 32.078125 64.796875 
z
" id="DejaVuSans-82"/>
      <path d="M 9.421875 75.984375 
L 18.40625 75.984375 
L 18.40625 0 
L 9.421875 0 
z
" id="DejaVuSans-108"/>
     </defs>
     <use xlink:href="#DejaVuSans-82"/>
     <use x="64.982422" xlink:href="#DejaVuSans-101"/>
     <use x="126.505859" xlink:href="#DejaVuSans-99"/>
     <use x="181.486328" xlink:href="#DejaVuSans-97"/>
     <use x="242.765625" xlink:href="#DejaVuSans-108"/>
     <use x="270.548828" xlink:href="#DejaVuSans-108"/>
    </g>
   </g>
  </g>
  <g id="axes_4">
   <g id="patch_11">
    <path d="M 660.215448 263.796875 
L 853.229749 263.796875 
L 853.229749 28.396875 
L 660.215448 28.396875 
z
" style="fill:#ffffff;"/>
   </g>
   <g id="matplotlib.axis_7">
    <g id="xtick_13">
     <g id="line2d_54">
      <g>
       <use style="stroke:#000000;stroke-width:0.8;" x="668.988825" xlink:href="#m6af7529af6" y="263.796875"/>
      </g>
     </g>
     <g id="text_23">
      <!-- 4 -->
      <g transform="translate(665.807575 278.395312)scale(0.1 -0.1)">
       <use xlink:href="#DejaVuSans-52"/>
      </g>
     </g>
    </g>
    <g id="xtick_14">
     <g id="line2d_55">
      <g>
       <use style="stroke:#000000;stroke-width:0.8;" x="727.478007" xlink:href="#m6af7529af6" y="263.796875"/>
      </g>
     </g>
     <g id="text_24">
      <!-- 6 -->
      <g transform="translate(724.296757 278.395312)scale(0.1 -0.1)">
       <use xlink:href="#DejaVuSans-54"/>
      </g>
     </g>
    </g>
    <g id="xtick_15">
     <g id="line2d_56">
      <g>
       <use style="stroke:#000000;stroke-width:0.8;" x="785.96719" xlink:href="#m6af7529af6" y="263.796875"/>
      </g>
     </g>
     <g id="text_25">
      <!-- 8 -->
      <g transform="translate(782.78594 278.395312)scale(0.1 -0.1)">
       <use xlink:href="#DejaVuSans-56"/>
      </g>
     </g>
    </g>
    <g id="xtick_16">
     <g id="line2d_57">
      <g>
       <use style="stroke:#000000;stroke-width:0.8;" x="844.456372" xlink:href="#m6af7529af6" y="263.796875"/>
      </g>
     </g>
     <g id="text_26">
      <!-- 10 -->
      <g transform="translate(838.093872 278.395312)scale(0.1 -0.1)">
       <use xlink:href="#DejaVuSans-49"/>
       <use x="63.623047" xlink:href="#DejaVuSans-48"/>
      </g>
     </g>
    </g>
   </g>
   <g id="matplotlib.axis_8">
    <g id="ytick_22">
     <g id="line2d_58">
      <g>
       <use style="stroke:#000000;stroke-width:0.8;" x="660.215448" xlink:href="#mb83f6a8d2e" y="256.581084"/>
      </g>
     </g>
    </g>
    <g id="ytick_23">
     <g id="line2d_59">
      <g>
       <use style="stroke:#000000;stroke-width:0.8;" x="660.215448" xlink:href="#mb83f6a8d2e" y="220.333716"/>
      </g>
     </g>
    </g>
    <g id="ytick_24">
     <g id="line2d_60">
      <g>
       <use style="stroke:#000000;stroke-width:0.8;" x="660.215448" xlink:href="#mb83f6a8d2e" y="184.086348"/>
      </g>
     </g>
    </g>
    <g id="ytick_25">
     <g id="line2d_61">
      <g>
       <use style="stroke:#000000;stroke-width:0.8;" x="660.215448" xlink:href="#mb83f6a8d2e" y="147.83898"/>
      </g>
     </g>
    </g>
    <g id="ytick_26">
     <g id="line2d_62">
      <g>
       <use style="stroke:#000000;stroke-width:0.8;" x="660.215448" xlink:href="#mb83f6a8d2e" y="111.591611"/>
      </g>
     </g>
    </g>
    <g id="ytick_27">
     <g id="line2d_63">
      <g>
       <use style="stroke:#000000;stroke-width:0.8;" x="660.215448" xlink:href="#mb83f6a8d2e" y="75.344243"/>
      </g>
     </g>
    </g>
    <g id="ytick_28">
     <g id="line2d_64">
      <g>
       <use style="stroke:#000000;stroke-width:0.8;" x="660.215448" xlink:href="#mb83f6a8d2e" y="39.096875"/>
      </g>
     </g>
    </g>
   </g>
   <g id="line2d_65">
    <path clip-path="url(#peebe41c24f)" d="M 668.988825 136.685943 
L 698.233416 57.845514 
L 727.478007 88.525104 
L 756.722599 89.440442 
L 785.96719 64.987852 
L 815.211781 147.83898 
L 844.456372 107.06069 
" style="fill:none;stroke:#2a557f;stroke-linecap:square;stroke-width:4;"/>
   </g>
   <g id="line2d_66">
    <path clip-path="url(#peebe41c24f)" d="M 668.988825 175.024506 
L 698.233416 104.342138 
L 727.478007 111.591611 
L 756.722599 96.057025 
L 785.96719 77.541053 
L 815.211781 129.715295 
L 844.456372 142.660784 
" style="fill:none;stroke:#45bc9c;stroke-dasharray:16,6;stroke-dashoffset:0;stroke-width:4;"/>
   </g>
   <g id="line2d_67">
    <path clip-path="url(#peebe41c24f)" d="M 668.988825 154.42941 
L 698.233416 86.084204 
L 727.478007 83.399214 
L 756.722599 80.920761 
L 785.96719 71.079847 
L 815.211781 86.790781 
L 844.456372 67.713218 
" style="fill:none;stroke:#ffcd6e;stroke-dasharray:4,4;stroke-dashoffset:0;stroke-width:4;"/>
   </g>
   <g id="line2d_68">
    <path clip-path="url(#peebe41c24f)" d="M 668.988825 170.905486 
L 698.233416 83.181512 
L 727.478007 66.743173 
L 756.722599 77.030167 
L 785.96719 66.282401 
L 815.211781 62.736463 
L 844.456372 67.713218 
" style="fill:none;stroke:#f05076;stroke-dasharray:12,5,6,5;stroke-dashoffset:0;stroke-width:4;"/>
   </g>
   <g id="line2d_69">
    <path clip-path="url(#peebe41c24f)" d="M 668.988825 220.333716 
L 698.233416 85.700634 
L 727.478007 86.376051 
L 756.722599 92.978098 
L 785.96719 95.733388 
L 815.211781 86.790781 
L 844.456372 92.401828 
" style="fill:none;stroke:#f3764a;stroke-dasharray:20,4,4,4;stroke-dashoffset:0;stroke-width:4;"/>
   </g>
   <g id="patch_12">
    <path d="M 660.215448 263.796875 
L 660.215448 28.396875 
" style="fill:none;stroke:#000000;stroke-linecap:square;stroke-linejoin:miter;stroke-width:0.8;"/>
   </g>
   <g id="patch_13">
    <path d="M 660.215448 263.796875 
L 853.229749 263.796875 
" style="fill:none;stroke:#000000;stroke-linecap:square;stroke-linejoin:miter;stroke-width:0.8;"/>
   </g>
   <g id="text_27">
    <!-- F1 -->
    <g transform="translate(744.608536 22.396875)scale(0.2 -0.2)">
     <defs>
      <path d="M 9.8125 72.90625 
L 51.703125 72.90625 
L 51.703125 64.59375 
L 19.671875 64.59375 
L 19.671875 43.109375 
L 48.578125 43.109375 
L 48.578125 34.8125 
L 19.671875 34.8125 
L 19.671875 0 
L 9.8125 0 
z
" id="DejaVuSans-70"/>
     </defs>
     <use xlink:href="#DejaVuSans-70"/>
     <use x="57.519531" xlink:href="#DejaVuSans-49"/>
    </g>
   </g>
  </g>
  <g id="axes_5">
   <g id="patch_14">
    <path d="M 867.45966 263.796875 
L 1060.473961 263.796875 
L 1060.473961 28.396875 
L 867.45966 28.396875 
z
" style="fill:#ffffff;"/>
   </g>
   <g id="matplotlib.axis_9">
    <g id="xtick_17">
     <g id="line2d_70">
      <g>
       <use style="stroke:#000000;stroke-width:0.8;" x="876.233037" xlink:href="#m6af7529af6" y="263.796875"/>
      </g>
     </g>
     <g id="text_28">
      <!-- 4 -->
      <g transform="translate(873.051787 278.395312)scale(0.1 -0.1)">
       <use xlink:href="#DejaVuSans-52"/>
      </g>
     </g>
    </g>
    <g id="xtick_18">
     <g id="line2d_71">
      <g>
       <use style="stroke:#000000;stroke-width:0.8;" x="934.722219" xlink:href="#m6af7529af6" y="263.796875"/>
      </g>
     </g>
     <g id="text_29">
      <!-- 6 -->
      <g transform="translate(931.540969 278.395312)scale(0.1 -0.1)">
       <use xlink:href="#DejaVuSans-54"/>
      </g>
     </g>
    </g>
    <g id="xtick_19">
     <g id="line2d_72">
      <g>
       <use style="stroke:#000000;stroke-width:0.8;" x="993.211402" xlink:href="#m6af7529af6" y="263.796875"/>
      </g>
     </g>
     <g id="text_30">
      <!-- 8 -->
      <g transform="translate(990.030152 278.395312)scale(0.1 -0.1)">
       <use xlink:href="#DejaVuSans-56"/>
      </g>
     </g>
    </g>
    <g id="xtick_20">
     <g id="line2d_73">
      <g>
       <use style="stroke:#000000;stroke-width:0.8;" x="1051.700584" xlink:href="#m6af7529af6" y="263.796875"/>
      </g>
     </g>
     <g id="text_31">
      <!-- 10 -->
      <g transform="translate(1045.338084 278.395312)scale(0.1 -0.1)">
       <use xlink:href="#DejaVuSans-49"/>
       <use x="63.623047" xlink:href="#DejaVuSans-48"/>
      </g>
     </g>
    </g>
   </g>
   <g id="matplotlib.axis_10">
    <g id="ytick_29">
     <g id="line2d_74">
      <g>
       <use style="stroke:#000000;stroke-width:0.8;" x="867.45966" xlink:href="#mb83f6a8d2e" y="256.581084"/>
      </g>
     </g>
    </g>
    <g id="ytick_30">
     <g id="line2d_75">
      <g>
       <use style="stroke:#000000;stroke-width:0.8;" x="867.45966" xlink:href="#mb83f6a8d2e" y="220.333716"/>
      </g>
     </g>
    </g>
    <g id="ytick_31">
     <g id="line2d_76">
      <g>
       <use style="stroke:#000000;stroke-width:0.8;" x="867.45966" xlink:href="#mb83f6a8d2e" y="184.086348"/>
      </g>
     </g>
    </g>
    <g id="ytick_32">
     <g id="line2d_77">
      <g>
       <use style="stroke:#000000;stroke-width:0.8;" x="867.45966" xlink:href="#mb83f6a8d2e" y="147.83898"/>
      </g>
     </g>
    </g>
    <g id="ytick_33">
     <g id="line2d_78">
      <g>
       <use style="stroke:#000000;stroke-width:0.8;" x="867.45966" xlink:href="#mb83f6a8d2e" y="111.591611"/>
      </g>
     </g>
    </g>
    <g id="ytick_34">
     <g id="line2d_79">
      <g>
       <use style="stroke:#000000;stroke-width:0.8;" x="867.45966" xlink:href="#mb83f6a8d2e" y="75.344243"/>
      </g>
     </g>
    </g>
    <g id="ytick_35">
     <g id="line2d_80">
      <g>
       <use style="stroke:#000000;stroke-width:0.8;" x="867.45966" xlink:href="#mb83f6a8d2e" y="39.096875"/>
      </g>
     </g>
    </g>
   </g>
   <g id="line2d_81">
    <path clip-path="url(#p2c7a759cd2)" d="M 876.233037 131.873186 
L 905.477628 74.215903 
L 934.722219 114.212288 
L 963.96681 116.266811 
L 993.211402 92.179917 
L 1022.455993 170.06766 
L 1051.700584 143.054067 
" style="fill:none;stroke:#2a557f;stroke-linecap:square;stroke-width:4;"/>
   </g>
   <g id="line2d_82">
    <path clip-path="url(#p2c7a759cd2)" d="M 876.233037 189.122615 
L 905.477628 140.315696 
L 934.722219 134.005079 
L 963.96681 122.36956 
L 993.211402 108.26647 
L 1022.455993 159.921436 
L 1051.700584 165.688752 
" style="fill:none;stroke:#45bc9c;stroke-dasharray:16,6;stroke-dashoffset:0;stroke-width:4;"/>
   </g>
   <g id="line2d_83">
    <path clip-path="url(#p2c7a759cd2)" d="M 876.233037 161.425969 
L 905.477628 120.859985 
L 934.722219 109.076245 
L 963.96681 117.297354 
L 993.211402 100.456813 
L 1022.455993 128.052433 
L 1051.700584 103.497869 
" style="fill:none;stroke:#ffcd6e;stroke-dasharray:4,4;stroke-dashoffset:0;stroke-width:4;"/>
   </g>
   <g id="line2d_84">
    <path clip-path="url(#p2c7a759cd2)" d="M 876.233037 167.93422 
L 905.477628 159.921436 
L 934.722219 114.760477 
L 963.96681 127.764669 
L 993.211402 120.653453 
L 1022.455993 121.568833 
L 1051.700584 103.497869 
" style="fill:none;stroke:#f05076;stroke-dasharray:12,5,6,5;stroke-dashoffset:0;stroke-width:4;"/>
   </g>
   <g id="line2d_85">
    <path clip-path="url(#p2c7a759cd2)" d="M 876.233037 253.096875 
L 905.477628 160.320201 
L 934.722219 120.365776 
L 963.96681 130.84099 
L 993.211402 141.855862 
L 1022.455993 128.052433 
L 1051.700584 131.098864 
" style="fill:none;stroke:#f3764a;stroke-dasharray:20,4,4,4;stroke-dashoffset:0;stroke-width:4;"/>
   </g>
   <g id="patch_15">
    <path d="M 867.45966 263.796875 
L 867.45966 28.396875 
" style="fill:none;stroke:#000000;stroke-linecap:square;stroke-linejoin:miter;stroke-width:0.8;"/>
   </g>
   <g id="patch_16">
    <path d="M 867.45966 263.796875 
L 1060.473961 263.796875 
" style="fill:none;stroke:#000000;stroke-linecap:square;stroke-linejoin:miter;stroke-width:0.8;"/>
   </g>
   <g id="text_32">
    <!-- MCC -->
    <g transform="translate(941.37306 22.396875)scale(0.2 -0.2)">
     <defs>
      <path d="M 9.8125 72.90625 
L 24.515625 72.90625 
L 43.109375 23.296875 
L 61.8125 72.90625 
L 76.515625 72.90625 
L 76.515625 0 
L 66.890625 0 
L 66.890625 64.015625 
L 48.09375 14.015625 
L 38.1875 14.015625 
L 19.390625 64.015625 
L 19.390625 0 
L 9.8125 0 
z
" id="DejaVuSans-77"/>
      <path d="M 64.40625 67.28125 
L 64.40625 56.890625 
Q 59.421875 61.53125 53.78125 63.8125 
Q 48.140625 66.109375 41.796875 66.109375 
Q 29.296875 66.109375 22.65625 58.46875 
Q 16.015625 50.828125 16.015625 36.375 
Q 16.015625 21.96875 22.65625 14.328125 
Q 29.296875 6.6875 41.796875 6.6875 
Q 48.140625 6.6875 53.78125 8.984375 
Q 59.421875 11.28125 64.40625 15.921875 
L 64.40625 5.609375 
Q 59.234375 2.09375 53.4375 0.328125 
Q 47.65625 -1.421875 41.21875 -1.421875 
Q 24.65625 -1.421875 15.125 8.703125 
Q 5.609375 18.84375 5.609375 36.375 
Q 5.609375 53.953125 15.125 64.078125 
Q 24.65625 74.21875 41.21875 74.21875 
Q 47.75 74.21875 53.53125 72.484375 
Q 59.328125 70.75 64.40625 67.28125 
z
" id="DejaVuSans-67"/>
     </defs>
     <use xlink:href="#DejaVuSans-77"/>
     <use x="86.279297" xlink:href="#DejaVuSans-67"/>
     <use x="156.103516" xlink:href="#DejaVuSans-67"/>
    </g>
   </g>
  </g>
  <g id="legend_1">
   <g id="text_33">
    <!-- Label -->
    <g transform="translate(1107.150211 109.345312)scale(0.1 -0.1)">
     <defs>
      <path d="M 9.8125 72.90625 
L 19.671875 72.90625 
L 19.671875 8.296875 
L 55.171875 8.296875 
L 55.171875 0 
L 9.8125 0 
z
" id="DejaVuSans-76"/>
      <path d="M 48.6875 27.296875 
Q 48.6875 37.203125 44.609375 42.84375 
Q 40.53125 48.484375 33.40625 48.484375 
Q 26.265625 48.484375 22.1875 42.84375 
Q 18.109375 37.203125 18.109375 27.296875 
Q 18.109375 17.390625 22.1875 11.75 
Q 26.265625 6.109375 33.40625 6.109375 
Q 40.53125 6.109375 44.609375 11.75 
Q 48.6875 17.390625 48.6875 27.296875 
z
M 18.109375 46.390625 
Q 20.953125 51.265625 25.265625 53.625 
Q 29.59375 56 35.59375 56 
Q 45.5625 56 51.78125 48.09375 
Q 58.015625 40.1875 58.015625 27.296875 
Q 58.015625 14.40625 51.78125 6.484375 
Q 45.5625 -1.421875 35.59375 -1.421875 
Q 29.59375 -1.421875 25.265625 0.953125 
Q 20.953125 3.328125 18.109375 8.203125 
L 18.109375 0 
L 9.078125 0 
L 9.078125 75.984375 
L 18.109375 75.984375 
z
" id="DejaVuSans-98"/>
     </defs>
     <use xlink:href="#DejaVuSans-76"/>
     <use x="55.712891" xlink:href="#DejaVuSans-97"/>
     <use x="116.992188" xlink:href="#DejaVuSans-98"/>
     <use x="180.46875" xlink:href="#DejaVuSans-101"/>
     <use x="241.992188" xlink:href="#DejaVuSans-108"/>
    </g>
   </g>
   <g id="line2d_86">
    <path d="M 1073.154899 120.523437 
L 1093.154899 120.523437 
" style="fill:none;stroke:#2a557f;stroke-linecap:square;stroke-width:1.5;"/>
   </g>
   <g id="line2d_87"/>
   <g id="text_34">
    <!-- Umami_SCM -->
    <g transform="translate(1101.154899 124.023437)scale(0.1 -0.1)">
     <defs>
      <path d="M 8.6875 72.90625 
L 18.609375 72.90625 
L 18.609375 28.609375 
Q 18.609375 16.890625 22.84375 11.734375 
Q 27.09375 6.59375 36.625 6.59375 
Q 46.09375 6.59375 50.34375 11.734375 
Q 54.59375 16.890625 54.59375 28.609375 
L 54.59375 72.90625 
L 64.5 72.90625 
L 64.5 27.390625 
Q 64.5 13.140625 57.4375 5.859375 
Q 50.390625 -1.421875 36.625 -1.421875 
Q 22.796875 -1.421875 15.734375 5.859375 
Q 8.6875 13.140625 8.6875 27.390625 
z
" id="DejaVuSans-85"/>
      <path d="M 52 44.1875 
Q 55.375 50.25 60.0625 53.125 
Q 64.75 56 71.09375 56 
Q 79.640625 56 84.28125 50.015625 
Q 88.921875 44.046875 88.921875 33.015625 
L 88.921875 0 
L 79.890625 0 
L 79.890625 32.71875 
Q 79.890625 40.578125 77.09375 44.375 
Q 74.3125 48.1875 68.609375 48.1875 
Q 61.625 48.1875 57.5625 43.546875 
Q 53.515625 38.921875 53.515625 30.90625 
L 53.515625 0 
L 44.484375 0 
L 44.484375 32.71875 
Q 44.484375 40.625 41.703125 44.40625 
Q 38.921875 48.1875 33.109375 48.1875 
Q 26.21875 48.1875 22.15625 43.53125 
Q 18.109375 38.875 18.109375 30.90625 
L 18.109375 0 
L 9.078125 0 
L 9.078125 54.6875 
L 18.109375 54.6875 
L 18.109375 46.1875 
Q 21.1875 51.21875 25.484375 53.609375 
Q 29.78125 56 35.6875 56 
Q 41.65625 56 45.828125 52.96875 
Q 50 49.953125 52 44.1875 
z
" id="DejaVuSans-109"/>
      <path d="M 50.984375 -16.609375 
L 50.984375 -23.578125 
L -0.984375 -23.578125 
L -0.984375 -16.609375 
z
" id="DejaVuSans-95"/>
      <path d="M 53.515625 70.515625 
L 53.515625 60.890625 
Q 47.90625 63.578125 42.921875 64.890625 
Q 37.9375 66.21875 33.296875 66.21875 
Q 25.25 66.21875 20.875 63.09375 
Q 16.5 59.96875 16.5 54.203125 
Q 16.5 49.359375 19.40625 46.890625 
Q 22.3125 44.4375 30.421875 42.921875 
L 36.375 41.703125 
Q 47.40625 39.59375 52.65625 34.296875 
Q 57.90625 29 57.90625 20.125 
Q 57.90625 9.515625 50.796875 4.046875 
Q 43.703125 -1.421875 29.984375 -1.421875 
Q 24.8125 -1.421875 18.96875 -0.25 
Q 13.140625 0.921875 6.890625 3.21875 
L 6.890625 13.375 
Q 12.890625 10.015625 18.65625 8.296875 
Q 24.421875 6.59375 29.984375 6.59375 
Q 38.421875 6.59375 43.015625 9.90625 
Q 47.609375 13.234375 47.609375 19.390625 
Q 47.609375 24.75 44.3125 27.78125 
Q 41.015625 30.8125 33.5 32.328125 
L 27.484375 33.5 
Q 16.453125 35.6875 11.515625 40.375 
Q 6.59375 45.0625 6.59375 53.421875 
Q 6.59375 63.09375 13.40625 68.65625 
Q 20.21875 74.21875 32.171875 74.21875 
Q 37.3125 74.21875 42.625 73.28125 
Q 47.953125 72.359375 53.515625 70.515625 
z
" id="DejaVuSans-83"/>
     </defs>
     <use xlink:href="#DejaVuSans-85"/>
     <use x="73.193359" xlink:href="#DejaVuSans-109"/>
     <use x="170.605469" xlink:href="#DejaVuSans-97"/>
     <use x="231.884766" xlink:href="#DejaVuSans-109"/>
     <use x="329.296875" xlink:href="#DejaVuSans-105"/>
     <use x="357.080078" xlink:href="#DejaVuSans-95"/>
     <use x="407.080078" xlink:href="#DejaVuSans-83"/>
     <use x="470.556641" xlink:href="#DejaVuSans-67"/>
     <use x="540.380859" xlink:href="#DejaVuSans-77"/>
    </g>
   </g>
   <g id="line2d_88">
    <path d="M 1073.154899 135.479687 
L 1093.154899 135.479687 
" style="fill:none;stroke:#45bc9c;stroke-dasharray:6,2.25;stroke-dashoffset:0;stroke-width:1.5;"/>
   </g>
   <g id="line2d_89"/>
   <g id="text_35">
    <!-- Bitter_SCM -->
    <g transform="translate(1101.154899 138.979687)scale(0.1 -0.1)">
     <defs>
      <path d="M 19.671875 34.8125 
L 19.671875 8.109375 
L 35.5 8.109375 
Q 43.453125 8.109375 47.28125 11.40625 
Q 51.125 14.703125 51.125 21.484375 
Q 51.125 28.328125 47.28125 31.5625 
Q 43.453125 34.8125 35.5 34.8125 
z
M 19.671875 64.796875 
L 19.671875 42.828125 
L 34.28125 42.828125 
Q 41.5 42.828125 45.03125 45.53125 
Q 48.578125 48.25 48.578125 53.8125 
Q 48.578125 59.328125 45.03125 62.0625 
Q 41.5 64.796875 34.28125 64.796875 
z
M 9.8125 72.90625 
L 35.015625 72.90625 
Q 46.296875 72.90625 52.390625 68.21875 
Q 58.5 63.53125 58.5 54.890625 
Q 58.5 48.1875 55.375 44.234375 
Q 52.25 40.28125 46.1875 39.3125 
Q 53.46875 37.75 57.5 32.78125 
Q 61.53125 27.828125 61.53125 20.40625 
Q 61.53125 10.640625 54.890625 5.3125 
Q 48.25 0 35.984375 0 
L 9.8125 0 
z
" id="DejaVuSans-66"/>
      <path d="M 18.3125 70.21875 
L 18.3125 54.6875 
L 36.8125 54.6875 
L 36.8125 47.703125 
L 18.3125 47.703125 
L 18.3125 18.015625 
Q 18.3125 11.328125 20.140625 9.421875 
Q 21.96875 7.515625 27.59375 7.515625 
L 36.8125 7.515625 
L 36.8125 0 
L 27.59375 0 
Q 17.1875 0 13.234375 3.875 
Q 9.28125 7.765625 9.28125 18.015625 
L 9.28125 47.703125 
L 2.6875 47.703125 
L 2.6875 54.6875 
L 9.28125 54.6875 
L 9.28125 70.21875 
z
" id="DejaVuSans-116"/>
     </defs>
     <use xlink:href="#DejaVuSans-66"/>
     <use x="68.603516" xlink:href="#DejaVuSans-105"/>
     <use x="96.386719" xlink:href="#DejaVuSans-116"/>
     <use x="135.595703" xlink:href="#DejaVuSans-116"/>
     <use x="174.804688" xlink:href="#DejaVuSans-101"/>
     <use x="236.328125" xlink:href="#DejaVuSans-114"/>
     <use x="277.441406" xlink:href="#DejaVuSans-95"/>
     <use x="327.441406" xlink:href="#DejaVuSans-83"/>
     <use x="390.917969" xlink:href="#DejaVuSans-67"/>
     <use x="460.742188" xlink:href="#DejaVuSans-77"/>
    </g>
   </g>
   <g id="line2d_90">
    <path d="M 1073.154899 150.435937 
L 1093.154899 150.435937 
" style="fill:none;stroke:#ffcd6e;stroke-dasharray:1.5,1.5;stroke-dashoffset:0;stroke-width:1.5;"/>
   </g>
   <g id="line2d_91"/>
   <g id="text_36">
    <!-- Bitter_BERT -->
    <g transform="translate(1101.154899 153.935937)scale(0.1 -0.1)">
     <defs>
      <path d="M 9.8125 72.90625 
L 55.90625 72.90625 
L 55.90625 64.59375 
L 19.671875 64.59375 
L 19.671875 43.015625 
L 54.390625 43.015625 
L 54.390625 34.71875 
L 19.671875 34.71875 
L 19.671875 8.296875 
L 56.78125 8.296875 
L 56.78125 0 
L 9.8125 0 
z
" id="DejaVuSans-69"/>
      <path d="M -0.296875 72.90625 
L 61.375 72.90625 
L 61.375 64.59375 
L 35.5 64.59375 
L 35.5 0 
L 25.59375 0 
L 25.59375 64.59375 
L -0.296875 64.59375 
z
" id="DejaVuSans-84"/>
     </defs>
     <use xlink:href="#DejaVuSans-66"/>
     <use x="68.603516" xlink:href="#DejaVuSans-105"/>
     <use x="96.386719" xlink:href="#DejaVuSans-116"/>
     <use x="135.595703" xlink:href="#DejaVuSans-116"/>
     <use x="174.804688" xlink:href="#DejaVuSans-101"/>
     <use x="236.328125" xlink:href="#DejaVuSans-114"/>
     <use x="277.441406" xlink:href="#DejaVuSans-95"/>
     <use x="327.441406" xlink:href="#DejaVuSans-66"/>
     <use x="396.044922" xlink:href="#DejaVuSans-69"/>
     <use x="459.228516" xlink:href="#DejaVuSans-82"/>
     <use x="521.460938" xlink:href="#DejaVuSans-84"/>
    </g>
   </g>
   <g id="line2d_92">
    <path d="M 1073.154899 165.392187 
L 1093.154899 165.392187 
" style="fill:none;stroke:#f05076;stroke-dasharray:4.5,1.875,2.25,1.875;stroke-dashoffset:0;stroke-width:1.5;"/>
   </g>
   <g id="line2d_93"/>
   <g id="text_37">
    <!-- Umami_YYDS -->
    <g transform="translate(1101.154899 168.892187)scale(0.1 -0.1)">
     <defs>
      <path d="M -0.203125 72.90625 
L 10.40625 72.90625 
L 30.609375 42.921875 
L 50.6875 72.90625 
L 61.28125 72.90625 
L 35.5 34.71875 
L 35.5 0 
L 25.59375 0 
L 25.59375 34.71875 
z
" id="DejaVuSans-89"/>
      <path d="M 19.671875 64.796875 
L 19.671875 8.109375 
L 31.59375 8.109375 
Q 46.6875 8.109375 53.6875 14.9375 
Q 60.6875 21.78125 60.6875 36.53125 
Q 60.6875 51.171875 53.6875 57.984375 
Q 46.6875 64.796875 31.59375 64.796875 
z
M 9.8125 72.90625 
L 30.078125 72.90625 
Q 51.265625 72.90625 61.171875 64.09375 
Q 71.09375 55.28125 71.09375 36.53125 
Q 71.09375 17.671875 61.125 8.828125 
Q 51.171875 0 30.078125 0 
L 9.8125 0 
z
" id="DejaVuSans-68"/>
     </defs>
     <use xlink:href="#DejaVuSans-85"/>
     <use x="73.193359" xlink:href="#DejaVuSans-109"/>
     <use x="170.605469" xlink:href="#DejaVuSans-97"/>
     <use x="231.884766" xlink:href="#DejaVuSans-109"/>
     <use x="329.296875" xlink:href="#DejaVuSans-105"/>
     <use x="357.080078" xlink:href="#DejaVuSans-95"/>
     <use x="407.080078" xlink:href="#DejaVuSans-89"/>
     <use x="468.164062" xlink:href="#DejaVuSans-89"/>
     <use x="529.248047" xlink:href="#DejaVuSans-68"/>
     <use x="606.25" xlink:href="#DejaVuSans-83"/>
    </g>
   </g>
   <g id="line2d_94">
    <path d="M 1073.154899 180.348437 
L 1093.154899 180.348437 
" style="fill:none;stroke:#f3764a;stroke-dasharray:7.5,1.5,1.5,1.5;stroke-dashoffset:0;stroke-width:1.5;"/>
   </g>
   <g id="line2d_95"/>
   <g id="text_38">
    <!-- Q-Value -->
    <g transform="translate(1101.154899 183.848437)scale(0.1 -0.1)">
     <defs>
      <path d="M 39.40625 66.21875 
Q 28.65625 66.21875 22.328125 58.203125 
Q 16.015625 50.203125 16.015625 36.375 
Q 16.015625 22.609375 22.328125 14.59375 
Q 28.65625 6.59375 39.40625 6.59375 
Q 50.140625 6.59375 56.421875 14.59375 
Q 62.703125 22.609375 62.703125 36.375 
Q 62.703125 50.203125 56.421875 58.203125 
Q 50.140625 66.21875 39.40625 66.21875 
z
M 53.21875 1.3125 
L 66.21875 -12.890625 
L 54.296875 -12.890625 
L 43.5 -1.21875 
Q 41.890625 -1.3125 41.03125 -1.359375 
Q 40.1875 -1.421875 39.40625 -1.421875 
Q 24.03125 -1.421875 14.8125 8.859375 
Q 5.609375 19.140625 5.609375 36.375 
Q 5.609375 53.65625 14.8125 63.9375 
Q 24.03125 74.21875 39.40625 74.21875 
Q 54.734375 74.21875 63.90625 63.9375 
Q 73.09375 53.65625 73.09375 36.375 
Q 73.09375 23.6875 67.984375 14.640625 
Q 62.890625 5.609375 53.21875 1.3125 
z
" id="DejaVuSans-81"/>
      <path d="M 4.890625 31.390625 
L 31.203125 31.390625 
L 31.203125 23.390625 
L 4.890625 23.390625 
z
" id="DejaVuSans-45"/>
      <path d="M 28.609375 0 
L 0.78125 72.90625 
L 11.078125 72.90625 
L 34.1875 11.53125 
L 57.328125 72.90625 
L 67.578125 72.90625 
L 39.796875 0 
z
" id="DejaVuSans-86"/>
     </defs>
     <use xlink:href="#DejaVuSans-81"/>
     <use x="81.460938" xlink:href="#DejaVuSans-45"/>
     <use x="111.669922" xlink:href="#DejaVuSans-86"/>
     <use x="172.328125" xlink:href="#DejaVuSans-97"/>
     <use x="233.607422" xlink:href="#DejaVuSans-108"/>
     <use x="261.390625" xlink:href="#DejaVuSans-117"/>
     <use x="324.769531" xlink:href="#DejaVuSans-101"/>
    </g>
   </g>
  </g>
 </g>
 <defs>
  <clipPath id="pa50d27609e">
   <rect height="235.4" width="193.014302" x="38.482813" y="28.396875"/>
  </clipPath>
  <clipPath id="p8868f96150">
   <rect height="235.4" width="193.014302" x="245.727024" y="28.396875"/>
  </clipPath>
  <clipPath id="pe1c29f4aa4">
   <rect height="235.4" width="193.014302" x="452.971236" y="28.396875"/>
  </clipPath>
  <clipPath id="peebe41c24f">
   <rect height="235.4" width="193.014302" x="660.215448" y="28.396875"/>
  </clipPath>
  <clipPath id="p2c7a759cd2">
   <rect height="235.4" width="193.014302" x="867.45966" y="28.396875"/>
  </clipPath>
 </defs>
</svg>
