<?xml version="1.0" standalone="no"?>
<svg xmlns="http://www.w3.org/2000/svg" xmlns:xlink="http://www.w3.org/1999/xlink" version="1.1" class="round-corner-donut-chart" width="600" height="470" style="background-color: transparent; font-size: 14px; font-family: &quot;阿里巴巴普惠体 常规&quot;; letter-spacing: 0px; user-select: none; filter: drop-shadow(rgb(198, 198, 198) 2px 2px 5px);" totalHeight="41"><defs><path d="M3.296561863794663 -109.85242786307717A109.90187999999999 109.90187999999999 0 0 1  108.78521518602878 -15.626905786617197" id="arc-path-大学本科-0-na2q4q1flaoe6au"/><path d="M17.78670487607085 108.4530145140556A109.90187999999999 109.90187999999999 0 0 0  109.52651241550367 -9.07558844543509" id="arc-path-大学专科-1-na2q4q1flaoe6au"/><path d="M-40.859310199257855 102.02421280056623A109.90187999999999 109.90187999999999 0 0 0  11.251421145925963 109.32441973196751" id="arc-path-硕士-2-na2q4q1flaoe6au"/><path d="M-75.08082098008957 80.25766971754251A109.90187999999999 109.90187999999999 0 0 0  -46.90356605971253 99.39053636245546" id="arc-path-高中及以下-3-na2q4q1flaoe6au"/><path d="M-100.78605524180843 17.216011319975866A102.24587999999999 102.24587999999999 0 0 0  -74.2021545897664 70.34387131236672" id="arc-path-博士及以上-4-na2q4q1flaoe6au"/><path d="M-101.63703577465371 11.141496125572985A102.24587999999999 102.24587999999999 0 0 1  -97.01431964484014 -32.28686669256064" id="arc-path---5-5-na2q4q1flaoe6au"/><path d="M-94.90369636737222 -38.046135057112146A102.24587999999999 102.24587999999999 0 0 1  -76.04077076467097 -68.35218473823026" id="arc-path---6-6-na2q4q1flaoe6au"/><path d="M-71.80526758585617 -72.788896982287A102.24587999999999 102.24587999999999 0 0 1  -56.608174629088275 -85.14537299311715" id="arc-path---7-7-na2q4q1flaoe6au"/><path d="M-51.4006527816482 -88.3866102449621A102.24587999999999 102.24587999999999 0 0 1  -38.6743006194359 -94.64945033423012" id="arc-path---8-8-na2q4q1flaoe6au"/><path d="M-30.463468172726053 -89.55011169900183A94.58988 94.58988 0 0 1  -26.309273176580074 -90.85740224843809" id="arc-path---9-9-na2q4q1flaoe6au"/><path d="M-20.813756833034127 -92.27151740873087A94.58988 94.58988 0 0 1  -20.234039759212273 -92.4003735568045" id="arc-path---10-10-na2q4q1flaoe6au"/><path d="M-14.656932814052706 -93.44741686584356A94.58988 94.58988 0 0 1  -2.837270764694165 -94.54731774631267" id="arc-path---11-11-na2q4q1flaoe6au"/><path d="M4.7323951726851625 -127.84420070002058A127.93176 127.93176 0 0 1  126.50146607976372 -19.076537850668487" id="arc-path-Dipeptide-0-na2q4q1flaoe6au"/><path d="M21.58789287554955 126.09717720032988A127.93176 127.93176 0 0 0  127.5656388680316 -9.6717628635396" id="arc-path-Tripeptide-1-na2q4q1flaoe6au"/><path d="M-46.72996664494756 119.09175216638509A127.93176 127.93176 0 0 0  12.206135015539253 127.34812713455987" id="arc-path-Tetrapeptide---2-na2q4q1flaoe6au"/><path d="M-86.7420493228558 94.03378167429432A127.93176 127.93176 0 0 0  -55.406827094811575 115.31096534147676" id="arc-path-Pentapeptide-3-na2q4q1flaoe6au"/><path d="M-125.95132770898988 22.42316358233686A127.93176 127.93176 0 0 0  -93.45680874273297 87.36337972126438" id="arc-path-Hexapeptide-4-na2q4q1flaoe6au"/><path d="M-127.26443043271982 13.049902809332195A127.93176 127.93176 0 0 1  -121.66575276712688 -39.54718473299911" id="arc-path-Hepteptide-5-na2q4q1flaoe6au"/><path d="M-118.40896243240037 -48.43400491782602A127.93176 127.93176 0 0 1  -95.73981569813895 -84.8553057079166" id="arc-path-Octopeptide-6-na2q4q1flaoe6au"/><path d="M-89.20423639190862 -91.70136000318689A127.93176 127.93176 0 0 1  -71.57310340596818 -106.03690907196507" id="arc-path-Nonapeptide-7-na2q4q1flaoe6au"/><path d="M-63.537653877065814 -111.03828959640806A127.93176 127.93176 0 0 1  -49.21773014912606 -118.08535157107933" id="arc-path-Decapeptide-8-na2q4q1flaoe6au"/><path d="M-40.35269045756179 -121.40097029897991A127.93176 127.93176 0 0 1  -36.44230574576821 -122.63153578353958" id="arc-path-Undecapeptide-9-na2q4q1flaoe6au"/><path d="M-27.276118528379563 -124.99019391425628A127.93176 127.93176 0 0 1  -28.24042930997906 -124.77585250794992" id="arc-path-Dodecapeptide-10-na2q4q1flaoe6au"/><path d="M-18.938153928564105 -126.52225710315008A127.93176 127.93176 0 0 1  -4.732395172685291 -127.84420070002058" id="arc-path-N----13-peptides-11-na2q4q1flaoe6au"/><filter x="-10%" y="-10%" width="180%" height="180%" id="Drop_Shadow_roundDonut" filterUnits="objectBoundingBox"><feGaussianBlur in="SourceAlpha" stdDeviation="0" result="blurredAlpha"/><feOffset in="blurredAlpha" dx="0.5" dy="0.7" result="offsetBlurredAlpha"/><feFlood result="flooded" style="flood-color: rgb(255, 255, 255); flood-opacity: 0.5;"/><feComposite in="flooded" in2="offsetBlurredAlpha" operator="in" result="coloredShadow"/><feComposite in="SourceGraphic" in2="coloredShadow" operator="over"/></filter></defs><g class="svg-group" opacity="1" transform="translate(24,20)"><g class="main-group" transform="translate(0,0)"><g class="pie" transform="translate(276,168.1)"><g stroke-linejoin="round"><path class="pie-path" d="M2.107507622422654,-137.39556558773276A10,10,0,0,1,12.985321236947815,-147.35696324359182A147.928,147.928,0,0,1,144.96258305990457,-29.471048447591134A10,10,0,0,1,136.2873956262597,-17.54220125762206L103.0751015729206,-13.784150733724902A10,10,0,0,1,92.21090974524573,-21.454585806315325A94.67392,94.67392,0,0,0,10.950819535989789,-94.03845319685232A10,10,0,0,1,2.1075076224226574,-103.97133156471247Z" style="stroke: rgb(90, 174, 243); stroke-width: 0; fill: rgb(90, 174, 243); fill-opacity: 0.77;"/><path class="pie-path" d="M136.7613104581812,-13.35391303373355A10,10,0,0,1,147.882589737926,-3.6650834102742245A147.928,147.928,0,0,1,32.34739617947842,144.34797935685785A10,10,0,0,1,20.248425262890855,135.9116783279666L15.830784530548879,102.78066762220061A10,10,0,0,1,23.283699485727652,91.76611829223638A94.67392,94.67392,0,0,0,94.67341841880192,0.3081770024808823A10,10,0,0,1,103.54901640484212,-9.595862509836389Z" style="stroke: rgb(98, 217, 173); stroke-width: 0; fill: rgb(98, 217, 173); fill-opacity: 0.77;"/><path class="pie-path" d="M16.070387402524126,136.4687718134971A10,10,0,0,1,6.604588333959806,147.780487876238A147.928,147.928,0,0,1,-46.95861489817646,140.27680375188464A10,10,0,0,1,-52.9517058857298,126.79944745677211L-39.600126081460616,96.15773182667304A10,10,0,0,1,-27.52523853668074,90.58428324861453A94.67392,94.67392,0,0,0,1.5741985868343922,94.66083153541177A10,10,0,0,1,11.652746670182145,103.33776110773111Z" style="stroke: rgb(91, 110, 150); stroke-width: 0; fill: rgb(91, 110, 150); fill-opacity: 0.77;"/><path class="pie-path" d="M-56.815827301949234,125.11572562850213A10,10,0,0,1,-70.76723952867661,129.90262119561294A147.928,147.928,0,0,1,-94.63884931744302,113.69336561062089A10,10,0,0,1,-95.33568198003621,98.96004634676025L-71.77963184367566,75.24735097067756A10,10,0,0,1,-58.505486442221994,74.43291734391026A94.67392,94.67392,0,0,0,-47.60359832241155,81.8354969125556A10,10,0,0,1,-43.46424749768004,94.47400999840306Z" style="stroke: rgb(168, 223, 250); stroke-width: 0; fill: rgb(168, 223, 250); fill-opacity: 0.77;"/><path class="pie-path" d="M-98.32600847301505,95.98947384643859A10,10,0,0,1,-113.06362259064649,95.39030574791052A147.928,147.928,0,0,1,-144.13041734017747,33.303392940453826A10,10,0,0,1,-135.7744909730192,21.14877378405354L-102.67348712574946,16.511644895542716A10,10,0,0,1,-91.60978340829627,23.89139410020779A94.67392,94.67392,0,0,0,-74.04352076764806,58.997526732035716A10,10,0,0,1,-74.76995833665448,72.27677847035588Z" style="stroke: rgb(255, 220, 76); stroke-width: 0; fill: rgb(255, 220, 76); fill-opacity: 0.77;"/><path class="pie-path" d="M-136.35926335535487,16.974519985452424A10,10,0,0,1,-147.73346823989127,7.583900435332665A147.928,147.928,0,0,1,-142.8267562933397,-38.512476818856285A10,10,0,0,1,-129.73064919778759,-45.29836299770806L-98.34747569480028,-33.79723953488822A10,10,0,0,1,-92.06409391498694,-22.076089775566295A94.67392,94.67392,0,0,0,-94.64831895637991,2.2015555631809396A10,10,0,0,1,-103.25825950808512,12.3373910969416Z" style="stroke: rgb(255, 151, 76); stroke-width: 0; fill: rgb(255, 151, 76); fill-opacity: 0.77;"/><path class="pie-path" d="M-128.2802820571301,-49.2559871172499A10,10,0,0,1,-133.89037901404865,-62.89721449694255A147.928,147.928,0,0,1,-115.55251917943431,-92.35966920299393A10,10,0,0,1,-100.8359668119491,-93.34929474104796L-76.65961292035483,-70.2693611940461A10,10,0,0,1,-75.58142123290467,-57.01403241817426A94.67392,94.67392,0,0,0,-84.5278417803391,-42.64029892161122A10,10,0,0,1,-96.89710855414286,-37.75486365443007Z" style="stroke: rgb(230, 90, 86); stroke-width: 0; fill: rgb(230, 90, 86); fill-opacity: 0.77;"/><path class="pie-path" d="M-97.92543573788987,-96.3980916154254A10,10,0,0,1,-97.61940208667974,-111.14470531806339A147.928,147.928,0,0,1,-88.89062608081734,-118.24191210801825A10,10,0,0,1,-74.39174575604662,-115.53290091969154L-56.7297261035005,-87.15628234349927A10,10,0,0,1,-58.988823383937515,-74.0504547180166A94.67392,94.67392,0,0,0,-60.45801185264595,-72.85588466961143A10,10,0,0,1,-73.74908184629558,-73.31815806842356Z" style="stroke: rgb(109, 97, 228); stroke-width: 0; fill: rgb(109, 97, 228); fill-opacity: 0.77;"/><path class="pie-path" d="M-70.81326794221141,-117.76019749854413A10,10,0,0,1,-66.84198271765658,-131.96530805621794A147.928,147.928,0,0,1,-63.78322954459969,-133.470569088698A10,10,0,0,1,-50.10511926956751,-127.95100646159045L-37.796371036598515,-95.04084682214551A8.092444449123187,8.092444449123187,0,0,1,-52.24637628648031,-87.92976966385308Z" style="stroke: rgb(74, 111, 226); stroke-width: 0; fill: rgb(74, 111, 226); fill-opacity: 0.77;"/><path class="pie-path" d="M-47.86963650810657,-134.00616353254676A5.443842080306143,5.443842080306143,0,1,1,-37.498656462624545,-137.2698245341196L-26.365616561665345,-94.00474652137635A3.07285851556016,3.07285851556016,0,0,1,-32.219672185863715,-92.16252399679851Z" style="stroke: rgb(109, 154, 231); stroke-width: 0; fill: rgb(109, 154, 231); fill-opacity: 0.77;"/><path class="pie-path" d="M-34.12937756923217,-141.0901299667824A2.7042065226830583,2.7042065226830583,0,1,1,-28.852711610324565,-142.2629966647624L-19.726904802092776,-93.65411860690786A1.0646063290065195,1.0646063290065195,0,0,1,-21.80425057017141,-93.19237824082383Z" style="stroke: rgb(35, 194, 219); stroke-width: 0; fill: rgb(35, 194, 219); fill-opacity: 0.77;"/><path class="pie-path" d="M-23.28034988520524,-135.42528693258868A10,10,0,0,1,-14.427350073096742,-147.2227725383146A147.928,147.928,0,0,1,-12.985321236948046,-147.3569632435918A10,10,0,0,1,-2.1075076224228475,-137.3955655877328L-2.107507622422766,-101.5802832930221A7.345236674810335,7.345236674810335,0,0,1,-16.67185975541932,-100.22497011506078Z" style="stroke: rgb(212, 236, 89); stroke-width: 0; fill: rgb(212, 236, 89); fill-opacity: 0.77;"/></g></g><g class="outside-ellipse-text-polygon" display="none"><g><g><g class="pie-texts" style="opacity: 1; visibility: visible;"><g class="half-texts"><text dy="0.35em" dx="0.1em" x="393.269911530374" y="68.84895279965751" style="fill: rgb(84, 84, 84); font-size: 14px; font-family: &quot;阿里巴巴普惠体 常规&quot;; text-anchor: start; opacity: 1; display: block;">Dipeptide</text></g></g><g class="pie-texts" style="opacity: 1; visibility: visible;"><g class="half-texts"><text dy="0.35em" dx="0.1em" x="409.5206630583702" y="249.98588442832997" style="fill: rgb(84, 84, 84); font-size: 14px; font-family: &quot;阿里巴巴普惠体 常规&quot;; text-anchor: start; opacity: 1; display: block;">Tripeptide</text></g></g><g class="pie-texts" style="opacity: 1; visibility: visible;"><g class="half-texts"><text dy="0.35em" dx="-0.1em" x="228.92107540289481" y="300.29764134542614" style="fill: rgb(84, 84, 84); font-size: 14px; font-family: &quot;阿里巴巴普惠体 常规&quot;; text-anchor: end; opacity: 1; display: block;">Tetrapeptide',</text></g></g><g class="pie-texts" style="opacity: 1; visibility: visible;"><g class="half-texts"><text dy="0.35em" dx="-0.1em" x="176.17191457110678" y="278.19762065083006" style="fill: rgb(84, 84, 84); font-size: 14px; font-family: &quot;阿里巴巴普惠体 常规&quot;; text-anchor: end; opacity: 1; display: block;">Pentapeptide</text></g></g><g class="pie-texts" style="opacity: 1; visibility: visible;"><g class="half-texts"><text dy="0.35em" dx="-0.1em" x="133.102062053062" y="227.65097183781057" style="fill: rgb(84, 84, 84); font-size: 14px; font-family: &quot;阿里巴巴普惠体 常规&quot;; text-anchor: end; opacity: 1; display: block;">Hexapeptide</text></g></g><g class="pie-texts" style="opacity: 1; visibility: visible;"><g class="half-texts"><text dy="0.35em" dx="-0.1em" x="119.30403156199242" y="168.19249568080966" style="fill: rgb(84, 84, 84); font-size: 14px; font-family: &quot;阿里巴巴普惠体 常规&quot;; text-anchor: end; opacity: 1; display: block;">Hepteptide</text></g></g><g class="pie-texts" style="opacity: 1; visibility: visible;"><g class="half-texts"><text dy="0.35em" dx="-0.1em" x="121.12072632102416" y="146.09249388014064" style="fill: rgb(84, 84, 84); font-size: 14px; font-family: &quot;阿里巴巴普惠体 常规&quot;; text-anchor: end; opacity: 1; display: block;">Octopeptide</text></g></g><g class="pie-texts" style="opacity: 1; visibility: visible;"><g class="half-texts"><text dy="0.35em" dx="-0.1em" x="126.7605675680872" y="123.992492227906" style="fill: rgb(84, 84, 84); font-size: 14px; font-family: &quot;阿里巴巴普惠体 常规&quot;; text-anchor: end; opacity: 1; display: block;">Nonapeptide</text></g></g><g class="pie-texts" style="opacity: 1; visibility: visible;"><g class="half-texts"><text dy="0.35em" dx="-0.1em" x="136.78176122095627" y="101.89249374959607" style="fill: rgb(84, 84, 84); font-size: 14px; font-family: &quot;阿里巴巴普惠体 常规&quot;; text-anchor: end; opacity: 1; display: block;">Decapeptide</text></g></g><g class="pie-texts" style="opacity: 1; visibility: visible;"><g class="half-texts"><text dy="0.35em" dx="-0.1em" x="152.4943641094581" y="79.79249513246185" style="fill: rgb(84, 84, 84); font-size: 14px; font-family: &quot;阿里巴巴普惠体 常规&quot;; text-anchor: end; opacity: 1; display: block;">Undecapeptide</text></g></g><g class="pie-texts" style="opacity: 1; visibility: visible;"><g class="half-texts"><text dy="0.35em" dx="-0.1em" x="177.3944565765961" y="57.6924946513315" style="fill: rgb(84, 84, 84); font-size: 14px; font-family: &quot;阿里巴巴普惠体 常规&quot;; text-anchor: end; opacity: 1; display: block;">Dodecapeptide</text></g></g><g class="pie-texts" style="opacity: 1; visibility: visible;"><g class="half-texts"><text dy="0.35em" dx="-0.1em" x="235.0532647530344" y="35.592493162578755" style="fill: rgb(84, 84, 84); font-size: 14px; font-family: &quot;阿里巴巴普惠体 常规&quot;; text-anchor: end; opacity: 1; display: block;">N &gt;= 13 peptides</text></g></g></g><polyline points="354.66136063650856,80.03595090609828  378.269911530374,68.84895279965751  393.269911530374,68.84895279965751" style="stroke: rgb(90, 174, 243); fill: none; display: block; opacity: 1; visibility: visible;"/><polyline points="369.08042240706607,240.75618600313499  394.5206630583702,249.98588442832997  409.5206630583702,249.98588442832997" style="stroke: rgb(98, 217, 173); fill: none; display: block; opacity: 1; visibility: visible;"/><polyline points="259.6181083827308,285.038103401073  243.92107540289481,300.29764134542614  228.92107540289481,300.29764134542614" style="stroke: rgb(91, 110, 150); fill: none; display: block; opacity: 1; visibility: visible;"/><polyline points="209.66803710388336,265.7880601626842  191.17191457110678,278.19762065083006  176.17191457110678,278.19762065083006" style="stroke: rgb(168, 223, 250); fill: none; display: block; opacity: 1; visibility: visible;"/><polyline points="170.4019197032134,220.93873425464886  148.102062053062,227.65097183781057  133.102062053062,227.65097183781057" style="stroke: rgb(255, 220, 76); fill: none; display: block; opacity: 1; visibility: visible;"/><polyline points="158.583318860213,155.60162450085656  134.30403156199242,168.19249568080966  119.30403156199242,168.19249568080966" style="stroke: rgb(255, 151, 76); fill: none; display: block; opacity: 1; visibility: visible;"/><polyline points="175.75204460425175,105.7042161763147  136.12072632102416,146.09249388014064  121.12072632102416,146.09249388014064" style="stroke: rgb(230, 90, 86); fill: none; display: block; opacity: 1; visibility: visible;"/><polyline points="201.50753353561714,76.48254074657608  141.7605675680872,123.992492227906  126.7605675680872,123.992492227906" style="stroke: rgb(109, 97, 228); fill: none; display: block; opacity: 1; visibility: visible;"/><polyline points="223.86230757066505,62.154035338083474  151.78176122095627,101.89249374959607  136.78176122095627,101.89249374959607" style="stroke: rgb(74, 111, 226); fill: none; display: block; opacity: 1; visibility: visible;"/><polyline points="240.55486399803837,55.46550824102573  167.4943641094581,79.79249513246185  152.4943641094581,79.79249513246185" style="stroke: rgb(109, 154, 231); fill: none; display: block; opacity: 1; visibility: visible;"/><polyline points="250.37914233880588,52.833100793398515  192.3944565765961,57.6924946513315  177.3944565765961,57.6924946513315" style="stroke: rgb(35, 194, 219); fill: none; display: block; opacity: 1; visibility: visible;"/><polyline points="265.05911318033,50.527965078428764  250.0532647530344,35.592493162578755  235.0532647530344,35.592493162578755" style="stroke: rgb(212, 236, 89); fill: none; display: block; opacity: 1; visibility: visible;"/></g></g><g class="pie-text" transform="translate(276,168.1)"><g><g class="pie-text-group"><g/><text dy="0.35em" class="chart-label-text" style="text-anchor: middle; font-size: 14px; font-family: &quot;阿里巴巴普惠体 常规&quot;; pointer-events: none; fill: rgb(84, 84, 84);"><textPath startOffset="52%" xlink:href="#arc-path-Dipeptide-0-na2q4q1flaoe6au">110</textPath></text></g><g class="pie-text-group"><g/><text dy="0.35em" class="chart-label-text" style="text-anchor: middle; font-size: 14px; font-family: &quot;阿里巴巴普惠体 常规&quot;; pointer-events: none; fill: rgb(84, 84, 84);"><textPath startOffset="52%" xlink:href="#arc-path-Tripeptide-1-na2q4q1flaoe6au">117</textPath></text></g><g class="pie-text-group"><g/><text dy="0.35em" class="chart-label-text" style="text-anchor: middle; font-size: 14px; font-family: &quot;阿里巴巴普惠体 常规&quot;; pointer-events: none; fill: rgb(84, 84, 84);"><textPath startOffset="52%" xlink:href="#arc-path-Tetrapeptide---2-na2q4q1flaoe6au">41</textPath></text></g><g class="pie-text-group"><g/><text dy="0.35em" class="chart-label-text" style="text-anchor: middle; font-size: 14px; font-family: &quot;阿里巴巴普惠体 常规&quot;; pointer-events: none; fill: rgb(84, 84, 84);"><textPath startOffset="52%" xlink:href="#arc-path-Pentapeptide-3-na2q4q1flaoe6au">28</textPath></text></g><g class="pie-text-group"><g/><text dy="0.35em" class="chart-label-text" style="text-anchor: middle; font-size: 14px; font-family: &quot;阿里巴巴普惠体 常规&quot;; pointer-events: none; fill: rgb(84, 84, 84);"><textPath startOffset="52%" xlink:href="#arc-path-Hexapeptide-4-na2q4q1flaoe6au">49</textPath></text></g><g class="pie-text-group"><g/><text dy="0.35em" class="chart-label-text" style="text-anchor: middle; font-size: 14px; font-family: &quot;阿里巴巴普惠体 常规&quot;; pointer-events: none; fill: rgb(84, 84, 84);"><textPath startOffset="52%" xlink:href="#arc-path-Hepteptide-5-na2q4q1flaoe6au">37</textPath></text></g><g class="pie-text-group"><g/><text dy="0.35em" class="chart-label-text" style="text-anchor: middle; font-size: 14px; font-family: &quot;阿里巴巴普惠体 常规&quot;; pointer-events: none; fill: rgb(84, 84, 84);"><textPath startOffset="52%" xlink:href="#arc-path-Octopeptide-6-na2q4q1flaoe6au">31</textPath></text></g><g class="pie-text-group"><g/><text dy="0.35em" class="chart-label-text" style="text-anchor: middle; font-size: 14px; font-family: &quot;阿里巴巴普惠体 常规&quot;; pointer-events: none; fill: rgb(84, 84, 84);"><textPath startOffset="52%" xlink:href="#arc-path-Nonapeptide-7-na2q4q1flaoe6au">19</textPath></text></g><g class="pie-text-group"><g/><text dy="0.35em" class="chart-label-text" style="text-anchor: middle; font-size: 14px; font-family: &quot;阿里巴巴普惠体 常规&quot;; pointer-events: none; fill: rgb(84, 84, 84);"><textPath startOffset="52%" xlink:href="#arc-path-Decapeptide-8-na2q4q1flaoe6au"/></text></g><g class="pie-text-group"><g/><text dy="0.35em" class="chart-label-text" style="text-anchor: middle; font-size: 14px; font-family: &quot;阿里巴巴普惠体 常规&quot;; pointer-events: none; fill: rgb(84, 84, 84);"><textPath startOffset="52%" xlink:href="#arc-path-Undecapeptide-9-na2q4q1flaoe6au"/></text></g><g class="pie-text-group"><g/><text dy="0.35em" class="chart-label-text" style="text-anchor: middle; font-size: 14px; font-family: &quot;阿里巴巴普惠体 常规&quot;; pointer-events: none; fill: rgb(84, 84, 84);"><textPath startOffset="52%" xlink:href="#arc-path-Dodecapeptide-10-na2q4q1flaoe6au"/></text></g><g class="pie-text-group"><g/><text dy="0.35em" class="chart-label-text" style="text-anchor: middle; font-size: 14px; font-family: &quot;阿里巴巴普惠体 常规&quot;; pointer-events: none; fill: rgb(84, 84, 84);"><textPath startOffset="52%" xlink:href="#arc-path-N----13-peptides-11-na2q4q1flaoe6au"/></text></g></g></g></g><text dy="1em" transform="translate(0,0)" style="fill: rgb(76, 76, 76); font-size: 36px; font-family: &quot;阿里巴巴普惠体 常规&quot;; font-weight: bold; text-anchor: start; letter-spacing: 0px; display: none;"><tspan x="0" y="0">中国网红受教育水平</tspan></text><g class="unit-group" transform="translate(0,0)" style="display: none;"><text dy="1em" style="fill: rgb(135, 135, 135); font-size: 14px; font-family: &quot;阿里巴巴普惠体 常规&quot;; font-weight: normal; text-anchor: start;">单位：%</text></g><g class="source-group" transform="translate(0,427.7)" style="display: none;"><text dy="1em" style="fill: rgb(135, 135, 135); font-size: 14px; font-family: &quot;阿里巴巴普惠体 常规&quot;; font-weight: normal; text-anchor: start;">数据来源：示例数据</text></g><g class="legend" transform="translate(0,353.075)" style="display: block;"><g transform="translate(45.765625,0)"><g class="legend-group"><g class="legend-item" transform="translate(0,0)" style="opacity: 1;"><circle cx="6" cy="6" r="6" class="legend-shape" style="fill: rgb(90, 174, 243);"/><text x="18" y="6" dy="0.35em" style="text-anchor: start; font-size: 14px; font-family: &quot;阿里巴巴普惠体 常规&quot;; fill: rgb(84, 84, 84);">Dipeptide</text></g><g class="legend-item" transform="translate(102.875,0)" style="opacity: 1;"><circle cx="6" cy="6" r="6" class="legend-shape" style="fill: rgb(98, 217, 173);"/><text x="18" y="6" dy="0.35em" style="text-anchor: start; font-size: 14px; font-family: &quot;阿里巴巴普惠体 常规&quot;; fill: rgb(84, 84, 84);">Tripeptide</text></g><g class="legend-item" transform="translate(207.828125,0)" style="opacity: 1;"><circle cx="6" cy="6" r="6" class="legend-shape" style="fill: rgb(91, 110, 150);"/><text x="18" y="6" dy="0.35em" style="text-anchor: start; font-size: 14px; font-family: &quot;阿里巴巴普惠体 常规&quot;; fill: rgb(84, 84, 84);">Tetrapeptide',</text></g><g class="legend-item" transform="translate(334.984375,0)" style="opacity: 1;"><circle cx="6" cy="6" r="6" class="legend-shape" style="fill: rgb(168, 223, 250);"/><text x="18" y="6" dy="0.35em" style="text-anchor: start; font-size: 14px; font-family: &quot;阿里巴巴普惠体 常规&quot;; fill: rgb(84, 84, 84);">Pentapeptide</text></g></g><g class="legend-group"><g class="legend-item" transform="translate(0,20)" style="opacity: 1;"><circle cx="6" cy="6" r="6" class="legend-shape" style="fill: rgb(255, 220, 76);"/><text x="18" y="6" dy="0.35em" style="text-anchor: start; font-size: 14px; font-family: &quot;阿里巴巴普惠体 常规&quot;; fill: rgb(84, 84, 84);">Hexapeptide</text></g><g class="legend-item" transform="translate(122.84375,20)" style="opacity: 1;"><circle cx="6" cy="6" r="6" class="legend-shape" style="fill: rgb(255, 151, 76);"/><text x="18" y="6" dy="0.35em" style="text-anchor: start; font-size: 14px; font-family: &quot;阿里巴巴普惠体 常规&quot;; fill: rgb(84, 84, 84);">Hepteptide</text></g><g class="legend-item" transform="translate(234.890625,20)" style="opacity: 1;"><circle cx="6" cy="6" r="6" class="legend-shape" style="fill: rgb(230, 90, 86);"/><text x="18" y="6" dy="0.35em" style="text-anchor: start; font-size: 14px; font-family: &quot;阿里巴巴普惠体 常规&quot;; fill: rgb(84, 84, 84);">Octopeptide</text></g><g class="legend-item" transform="translate(354.953125,20)" style="opacity: 1;"><circle cx="6" cy="6" r="6" class="legend-shape" style="fill: rgb(109, 97, 228);"/><text x="18" y="6" dy="0.35em" style="text-anchor: start; font-size: 14px; font-family: &quot;阿里巴巴普惠体 常规&quot;; fill: rgb(84, 84, 84);">Nonapeptide</text></g></g><g class="legend-group"><g class="legend-item" transform="translate(0,40)" style="opacity: 1;"><circle cx="6" cy="6" r="6" class="legend-shape" style="fill: rgb(74, 111, 226);"/><text x="18" y="6" dy="0.35em" style="text-anchor: start; font-size: 14px; font-family: &quot;阿里巴巴普惠体 常规&quot;; fill: rgb(84, 84, 84);">Decapeptide</text></g><g class="legend-item" transform="translate(122.734375,40)" style="opacity: 1;"><circle cx="6" cy="6" r="6" class="legend-shape" style="fill: rgb(109, 154, 231);"/><text x="18" y="6" dy="0.35em" style="text-anchor: start; font-size: 14px; font-family: &quot;阿里巴巴普惠体 常规&quot;; fill: rgb(84, 84, 84);">Undecapeptide</text></g><g class="legend-item" transform="translate(263.046875,40)" style="opacity: 1;"><circle cx="6" cy="6" r="6" class="legend-shape" style="fill: rgb(35, 194, 219);"/><text x="18" y="6" dy="0.35em" style="text-anchor: start; font-size: 14px; font-family: &quot;阿里巴巴普惠体 常规&quot;; fill: rgb(84, 84, 84);">Dodecapeptide</text></g></g><g class="legend-group"><g class="legend-item" transform="translate(0,60)" style="opacity: 1;"><circle cx="6" cy="6" r="6" class="legend-shape" style="fill: rgb(212, 236, 89);"/><text x="18" y="6" dy="0.35em" style="text-anchor: start; font-size: 14px; font-family: &quot;阿里巴巴普惠体 常规&quot;; fill: rgb(84, 84, 84);">N &gt;= 13 peptides</text></g></g></g></g></g></svg>