<?xml version="1.0" encoding="utf-8" standalone="no"?>
<!DOCTYPE svg PUBLIC "-//W3C//DTD SVG 1.1//EN"
  "http://www.w3.org/Graphics/SVG/1.1/DTD/svg11.dtd">
<svg height="614.392187pt" version="1.1" viewBox="0 0 607.371875 614.392187" width="607.371875pt" xmlns="http://www.w3.org/2000/svg" xmlns:xlink="http://www.w3.org/1999/xlink">
 <metadata>
  <rdf:RDF xmlns:cc="http://creativecommons.org/ns#" xmlns:dc="http://purl.org/dc/elements/1.1/" xmlns:rdf="http://www.w3.org/1999/02/22-rdf-syntax-ns#">
   <cc:Work>
    <dc:type rdf:resource="http://purl.org/dc/dcmitype/StillImage"/>
    <dc:date>2021-10-22T21:59:05.117920</dc:date>
    <dc:format>image/svg+xml</dc:format>
    <dc:creator>
     <cc:Agent>
      <dc:title>Matplotlib v3.4.2, https://matplotlib.org/</dc:title>
     </cc:Agent>
    </dc:creator>
   </cc:Work>
  </rdf:RDF>
 </metadata>
 <defs>
  <style type="text/css">*{stroke-linecap:butt;stroke-linejoin:round;}</style>
 </defs>
 <g id="figure_1">
  <g id="patch_1">
   <path d="M 0 614.392187 
L 607.371875 614.392187 
L 607.371875 0 
L 0 0 
z
" style="fill:none;"/>
  </g>
  <g id="axes_1">
   <g id="patch_2">
    <path d="M 48.620313 571.996875 
L 592.220312 571.996875 
L 592.220312 28.396875 
L 48.620313 28.396875 
z
" style="fill:#ffffff;"/>
   </g>
   <g id="matplotlib.axis_1">
    <g id="xtick_1">
     <g id="line2d_1">
      <defs>
       <path d="M 0 0 
L 0 3.5 
" id="maf95250f71" style="stroke:#000000;stroke-width:0.8;"/>
      </defs>
      <g>
       <use style="stroke:#000000;stroke-width:0.8;" x="48.620313" xlink:href="#maf95250f71" y="571.996875"/>
      </g>
     </g>
     <g id="text_1">
      <!-- 0.0 -->
      <g transform="translate(40.66875 586.595312)scale(0.1 -0.1)">
       <defs>
        <path d="M 2034 4250 
Q 1547 4250 1301 3770 
Q 1056 3291 1056 2328 
Q 1056 1369 1301 889 
Q 1547 409 2034 409 
Q 2525 409 2770 889 
Q 3016 1369 3016 2328 
Q 3016 3291 2770 3770 
Q 2525 4250 2034 4250 
z
M 2034 4750 
Q 2819 4750 3233 4129 
Q 3647 3509 3647 2328 
Q 3647 1150 3233 529 
Q 2819 -91 2034 -91 
Q 1250 -91 836 529 
Q 422 1150 422 2328 
Q 422 3509 836 4129 
Q 1250 4750 2034 4750 
z
" id="DejaVuSans-30" transform="scale(0.015625)"/>
        <path d="M 684 794 
L 1344 794 
L 1344 0 
L 684 0 
L 684 794 
z
" id="DejaVuSans-2e" transform="scale(0.015625)"/>
       </defs>
       <use xlink:href="#DejaVuSans-30"/>
       <use x="63.623047" xlink:href="#DejaVuSans-2e"/>
       <use x="95.410156" xlink:href="#DejaVuSans-30"/>
      </g>
     </g>
    </g>
    <g id="xtick_2">
     <g id="line2d_2">
      <g>
       <use style="stroke:#000000;stroke-width:0.8;" x="157.340312" xlink:href="#maf95250f71" y="571.996875"/>
      </g>
     </g>
     <g id="text_2">
      <!-- 0.2 -->
      <g transform="translate(149.38875 586.595312)scale(0.1 -0.1)">
       <defs>
        <path d="M 1228 531 
L 3431 531 
L 3431 0 
L 469 0 
L 469 531 
Q 828 903 1448 1529 
Q 2069 2156 2228 2338 
Q 2531 2678 2651 2914 
Q 2772 3150 2772 3378 
Q 2772 3750 2511 3984 
Q 2250 4219 1831 4219 
Q 1534 4219 1204 4116 
Q 875 4013 500 3803 
L 500 4441 
Q 881 4594 1212 4672 
Q 1544 4750 1819 4750 
Q 2544 4750 2975 4387 
Q 3406 4025 3406 3419 
Q 3406 3131 3298 2873 
Q 3191 2616 2906 2266 
Q 2828 2175 2409 1742 
Q 1991 1309 1228 531 
z
" id="DejaVuSans-32" transform="scale(0.015625)"/>
       </defs>
       <use xlink:href="#DejaVuSans-30"/>
       <use x="63.623047" xlink:href="#DejaVuSans-2e"/>
       <use x="95.410156" xlink:href="#DejaVuSans-32"/>
      </g>
     </g>
    </g>
    <g id="xtick_3">
     <g id="line2d_3">
      <g>
       <use style="stroke:#000000;stroke-width:0.8;" x="266.060313" xlink:href="#maf95250f71" y="571.996875"/>
      </g>
     </g>
     <g id="text_3">
      <!-- 0.4 -->
      <g transform="translate(258.10875 586.595312)scale(0.1 -0.1)">
       <defs>
        <path d="M 2419 4116 
L 825 1625 
L 2419 1625 
L 2419 4116 
z
M 2253 4666 
L 3047 4666 
L 3047 1625 
L 3713 1625 
L 3713 1100 
L 3047 1100 
L 3047 0 
L 2419 0 
L 2419 1100 
L 313 1100 
L 313 1709 
L 2253 4666 
z
" id="DejaVuSans-34" transform="scale(0.015625)"/>
       </defs>
       <use xlink:href="#DejaVuSans-30"/>
       <use x="63.623047" xlink:href="#DejaVuSans-2e"/>
       <use x="95.410156" xlink:href="#DejaVuSans-34"/>
      </g>
     </g>
    </g>
    <g id="xtick_4">
     <g id="line2d_4">
      <g>
       <use style="stroke:#000000;stroke-width:0.8;" x="374.780312" xlink:href="#maf95250f71" y="571.996875"/>
      </g>
     </g>
     <g id="text_4">
      <!-- 0.6 -->
      <g transform="translate(366.82875 586.595312)scale(0.1 -0.1)">
       <defs>
        <path d="M 2113 2584 
Q 1688 2584 1439 2293 
Q 1191 2003 1191 1497 
Q 1191 994 1439 701 
Q 1688 409 2113 409 
Q 2538 409 2786 701 
Q 3034 994 3034 1497 
Q 3034 2003 2786 2293 
Q 2538 2584 2113 2584 
z
M 3366 4563 
L 3366 3988 
Q 3128 4100 2886 4159 
Q 2644 4219 2406 4219 
Q 1781 4219 1451 3797 
Q 1122 3375 1075 2522 
Q 1259 2794 1537 2939 
Q 1816 3084 2150 3084 
Q 2853 3084 3261 2657 
Q 3669 2231 3669 1497 
Q 3669 778 3244 343 
Q 2819 -91 2113 -91 
Q 1303 -91 875 529 
Q 447 1150 447 2328 
Q 447 3434 972 4092 
Q 1497 4750 2381 4750 
Q 2619 4750 2861 4703 
Q 3103 4656 3366 4563 
z
" id="DejaVuSans-36" transform="scale(0.015625)"/>
       </defs>
       <use xlink:href="#DejaVuSans-30"/>
       <use x="63.623047" xlink:href="#DejaVuSans-2e"/>
       <use x="95.410156" xlink:href="#DejaVuSans-36"/>
      </g>
     </g>
    </g>
    <g id="xtick_5">
     <g id="line2d_5">
      <g>
       <use style="stroke:#000000;stroke-width:0.8;" x="483.500312" xlink:href="#maf95250f71" y="571.996875"/>
      </g>
     </g>
     <g id="text_5">
      <!-- 0.8 -->
      <g transform="translate(475.54875 586.595312)scale(0.1 -0.1)">
       <defs>
        <path d="M 2034 2216 
Q 1584 2216 1326 1975 
Q 1069 1734 1069 1313 
Q 1069 891 1326 650 
Q 1584 409 2034 409 
Q 2484 409 2743 651 
Q 3003 894 3003 1313 
Q 3003 1734 2745 1975 
Q 2488 2216 2034 2216 
z
M 1403 2484 
Q 997 2584 770 2862 
Q 544 3141 544 3541 
Q 544 4100 942 4425 
Q 1341 4750 2034 4750 
Q 2731 4750 3128 4425 
Q 3525 4100 3525 3541 
Q 3525 3141 3298 2862 
Q 3072 2584 2669 2484 
Q 3125 2378 3379 2068 
Q 3634 1759 3634 1313 
Q 3634 634 3220 271 
Q 2806 -91 2034 -91 
Q 1263 -91 848 271 
Q 434 634 434 1313 
Q 434 1759 690 2068 
Q 947 2378 1403 2484 
z
M 1172 3481 
Q 1172 3119 1398 2916 
Q 1625 2713 2034 2713 
Q 2441 2713 2670 2916 
Q 2900 3119 2900 3481 
Q 2900 3844 2670 4047 
Q 2441 4250 2034 4250 
Q 1625 4250 1398 4047 
Q 1172 3844 1172 3481 
z
" id="DejaVuSans-38" transform="scale(0.015625)"/>
       </defs>
       <use xlink:href="#DejaVuSans-30"/>
       <use x="63.623047" xlink:href="#DejaVuSans-2e"/>
       <use x="95.410156" xlink:href="#DejaVuSans-38"/>
      </g>
     </g>
    </g>
    <g id="xtick_6">
     <g id="line2d_6">
      <g>
       <use style="stroke:#000000;stroke-width:0.8;" x="592.220312" xlink:href="#maf95250f71" y="571.996875"/>
      </g>
     </g>
     <g id="text_6">
      <!-- 1.0 -->
      <g transform="translate(584.26875 586.595312)scale(0.1 -0.1)">
       <defs>
        <path d="M 794 531 
L 1825 531 
L 1825 4091 
L 703 3866 
L 703 4441 
L 1819 4666 
L 2450 4666 
L 2450 531 
L 3481 531 
L 3481 0 
L 794 0 
L 794 531 
z
" id="DejaVuSans-31" transform="scale(0.015625)"/>
       </defs>
       <use xlink:href="#DejaVuSans-31"/>
       <use x="63.623047" xlink:href="#DejaVuSans-2e"/>
       <use x="95.410156" xlink:href="#DejaVuSans-30"/>
      </g>
     </g>
    </g>
    <g id="text_7">
     <!-- False Positive Rate -->
     <g transform="translate(250.720703 604.072656)scale(0.15 -0.15)">
      <defs>
       <path d="M 628 4666 
L 3309 4666 
L 3309 4134 
L 1259 4134 
L 1259 2759 
L 3109 2759 
L 3109 2228 
L 1259 2228 
L 1259 0 
L 628 0 
L 628 4666 
z
" id="DejaVuSans-46" transform="scale(0.015625)"/>
       <path d="M 2194 1759 
Q 1497 1759 1228 1600 
Q 959 1441 959 1056 
Q 959 750 1161 570 
Q 1363 391 1709 391 
Q 2188 391 2477 730 
Q 2766 1069 2766 1631 
L 2766 1759 
L 2194 1759 
z
M 3341 1997 
L 3341 0 
L 2766 0 
L 2766 531 
Q 2569 213 2275 61 
Q 1981 -91 1556 -91 
Q 1019 -91 701 211 
Q 384 513 384 1019 
Q 384 1609 779 1909 
Q 1175 2209 1959 2209 
L 2766 2209 
L 2766 2266 
Q 2766 2663 2505 2880 
Q 2244 3097 1772 3097 
Q 1472 3097 1187 3025 
Q 903 2953 641 2809 
L 641 3341 
Q 956 3463 1253 3523 
Q 1550 3584 1831 3584 
Q 2591 3584 2966 3190 
Q 3341 2797 3341 1997 
z
" id="DejaVuSans-61" transform="scale(0.015625)"/>
       <path d="M 603 4863 
L 1178 4863 
L 1178 0 
L 603 0 
L 603 4863 
z
" id="DejaVuSans-6c" transform="scale(0.015625)"/>
       <path d="M 2834 3397 
L 2834 2853 
Q 2591 2978 2328 3040 
Q 2066 3103 1784 3103 
Q 1356 3103 1142 2972 
Q 928 2841 928 2578 
Q 928 2378 1081 2264 
Q 1234 2150 1697 2047 
L 1894 2003 
Q 2506 1872 2764 1633 
Q 3022 1394 3022 966 
Q 3022 478 2636 193 
Q 2250 -91 1575 -91 
Q 1294 -91 989 -36 
Q 684 19 347 128 
L 347 722 
Q 666 556 975 473 
Q 1284 391 1588 391 
Q 1994 391 2212 530 
Q 2431 669 2431 922 
Q 2431 1156 2273 1281 
Q 2116 1406 1581 1522 
L 1381 1569 
Q 847 1681 609 1914 
Q 372 2147 372 2553 
Q 372 3047 722 3315 
Q 1072 3584 1716 3584 
Q 2034 3584 2315 3537 
Q 2597 3491 2834 3397 
z
" id="DejaVuSans-73" transform="scale(0.015625)"/>
       <path d="M 3597 1894 
L 3597 1613 
L 953 1613 
Q 991 1019 1311 708 
Q 1631 397 2203 397 
Q 2534 397 2845 478 
Q 3156 559 3463 722 
L 3463 178 
Q 3153 47 2828 -22 
Q 2503 -91 2169 -91 
Q 1331 -91 842 396 
Q 353 884 353 1716 
Q 353 2575 817 3079 
Q 1281 3584 2069 3584 
Q 2775 3584 3186 3129 
Q 3597 2675 3597 1894 
z
M 3022 2063 
Q 3016 2534 2758 2815 
Q 2500 3097 2075 3097 
Q 1594 3097 1305 2825 
Q 1016 2553 972 2059 
L 3022 2063 
z
" id="DejaVuSans-65" transform="scale(0.015625)"/>
       <path id="DejaVuSans-20" transform="scale(0.015625)"/>
       <path d="M 1259 4147 
L 1259 2394 
L 2053 2394 
Q 2494 2394 2734 2622 
Q 2975 2850 2975 3272 
Q 2975 3691 2734 3919 
Q 2494 4147 2053 4147 
L 1259 4147 
z
M 628 4666 
L 2053 4666 
Q 2838 4666 3239 4311 
Q 3641 3956 3641 3272 
Q 3641 2581 3239 2228 
Q 2838 1875 2053 1875 
L 1259 1875 
L 1259 0 
L 628 0 
L 628 4666 
z
" id="DejaVuSans-50" transform="scale(0.015625)"/>
       <path d="M 1959 3097 
Q 1497 3097 1228 2736 
Q 959 2375 959 1747 
Q 959 1119 1226 758 
Q 1494 397 1959 397 
Q 2419 397 2687 759 
Q 2956 1122 2956 1747 
Q 2956 2369 2687 2733 
Q 2419 3097 1959 3097 
z
M 1959 3584 
Q 2709 3584 3137 3096 
Q 3566 2609 3566 1747 
Q 3566 888 3137 398 
Q 2709 -91 1959 -91 
Q 1206 -91 779 398 
Q 353 888 353 1747 
Q 353 2609 779 3096 
Q 1206 3584 1959 3584 
z
" id="DejaVuSans-6f" transform="scale(0.015625)"/>
       <path d="M 603 3500 
L 1178 3500 
L 1178 0 
L 603 0 
L 603 3500 
z
M 603 4863 
L 1178 4863 
L 1178 4134 
L 603 4134 
L 603 4863 
z
" id="DejaVuSans-69" transform="scale(0.015625)"/>
       <path d="M 1172 4494 
L 1172 3500 
L 2356 3500 
L 2356 3053 
L 1172 3053 
L 1172 1153 
Q 1172 725 1289 603 
Q 1406 481 1766 481 
L 2356 481 
L 2356 0 
L 1766 0 
Q 1100 0 847 248 
Q 594 497 594 1153 
L 594 3053 
L 172 3053 
L 172 3500 
L 594 3500 
L 594 4494 
L 1172 4494 
z
" id="DejaVuSans-74" transform="scale(0.015625)"/>
       <path d="M 191 3500 
L 800 3500 
L 1894 563 
L 2988 3500 
L 3597 3500 
L 2284 0 
L 1503 0 
L 191 3500 
z
" id="DejaVuSans-76" transform="scale(0.015625)"/>
       <path d="M 2841 2188 
Q 3044 2119 3236 1894 
Q 3428 1669 3622 1275 
L 4263 0 
L 3584 0 
L 2988 1197 
Q 2756 1666 2539 1819 
Q 2322 1972 1947 1972 
L 1259 1972 
L 1259 0 
L 628 0 
L 628 4666 
L 2053 4666 
Q 2853 4666 3247 4331 
Q 3641 3997 3641 3322 
Q 3641 2881 3436 2590 
Q 3231 2300 2841 2188 
z
M 1259 4147 
L 1259 2491 
L 2053 2491 
Q 2509 2491 2742 2702 
Q 2975 2913 2975 3322 
Q 2975 3731 2742 3939 
Q 2509 4147 2053 4147 
L 1259 4147 
z
" id="DejaVuSans-52" transform="scale(0.015625)"/>
      </defs>
      <use xlink:href="#DejaVuSans-46"/>
      <use x="48.394531" xlink:href="#DejaVuSans-61"/>
      <use x="109.673828" xlink:href="#DejaVuSans-6c"/>
      <use x="137.457031" xlink:href="#DejaVuSans-73"/>
      <use x="189.556641" xlink:href="#DejaVuSans-65"/>
      <use x="251.080078" xlink:href="#DejaVuSans-20"/>
      <use x="282.867188" xlink:href="#DejaVuSans-50"/>
      <use x="339.544922" xlink:href="#DejaVuSans-6f"/>
      <use x="400.726562" xlink:href="#DejaVuSans-73"/>
      <use x="452.826172" xlink:href="#DejaVuSans-69"/>
      <use x="480.609375" xlink:href="#DejaVuSans-74"/>
      <use x="519.818359" xlink:href="#DejaVuSans-69"/>
      <use x="547.601562" xlink:href="#DejaVuSans-76"/>
      <use x="606.78125" xlink:href="#DejaVuSans-65"/>
      <use x="668.304688" xlink:href="#DejaVuSans-20"/>
      <use x="700.091797" xlink:href="#DejaVuSans-52"/>
      <use x="767.324219" xlink:href="#DejaVuSans-61"/>
      <use x="828.603516" xlink:href="#DejaVuSans-74"/>
      <use x="867.8125" xlink:href="#DejaVuSans-65"/>
     </g>
    </g>
   </g>
   <g id="matplotlib.axis_2">
    <g id="ytick_1">
     <g id="line2d_7">
      <defs>
       <path d="M 0 0 
L -3.5 0 
" id="m4c2b1d9707" style="stroke:#000000;stroke-width:0.8;"/>
      </defs>
      <g>
       <use style="stroke:#000000;stroke-width:0.8;" x="48.620313" xlink:href="#m4c2b1d9707" y="571.996875"/>
      </g>
     </g>
     <g id="text_8">
      <!-- 0.0 -->
      <g transform="translate(25.717188 575.796094)scale(0.1 -0.1)">
       <use xlink:href="#DejaVuSans-30"/>
       <use x="63.623047" xlink:href="#DejaVuSans-2e"/>
       <use x="95.410156" xlink:href="#DejaVuSans-30"/>
      </g>
     </g>
    </g>
    <g id="ytick_2">
     <g id="line2d_8">
      <g>
       <use style="stroke:#000000;stroke-width:0.8;" x="48.620313" xlink:href="#m4c2b1d9707" y="463.276875"/>
      </g>
     </g>
     <g id="text_9">
      <!-- 0.2 -->
      <g transform="translate(25.717188 467.076094)scale(0.1 -0.1)">
       <use xlink:href="#DejaVuSans-30"/>
       <use x="63.623047" xlink:href="#DejaVuSans-2e"/>
       <use x="95.410156" xlink:href="#DejaVuSans-32"/>
      </g>
     </g>
    </g>
    <g id="ytick_3">
     <g id="line2d_9">
      <g>
       <use style="stroke:#000000;stroke-width:0.8;" x="48.620313" xlink:href="#m4c2b1d9707" y="354.556875"/>
      </g>
     </g>
     <g id="text_10">
      <!-- 0.4 -->
      <g transform="translate(25.717188 358.356094)scale(0.1 -0.1)">
       <use xlink:href="#DejaVuSans-30"/>
       <use x="63.623047" xlink:href="#DejaVuSans-2e"/>
       <use x="95.410156" xlink:href="#DejaVuSans-34"/>
      </g>
     </g>
    </g>
    <g id="ytick_4">
     <g id="line2d_10">
      <g>
       <use style="stroke:#000000;stroke-width:0.8;" x="48.620313" xlink:href="#m4c2b1d9707" y="245.836875"/>
      </g>
     </g>
     <g id="text_11">
      <!-- 0.6 -->
      <g transform="translate(25.717188 249.636094)scale(0.1 -0.1)">
       <use xlink:href="#DejaVuSans-30"/>
       <use x="63.623047" xlink:href="#DejaVuSans-2e"/>
       <use x="95.410156" xlink:href="#DejaVuSans-36"/>
      </g>
     </g>
    </g>
    <g id="ytick_5">
     <g id="line2d_11">
      <g>
       <use style="stroke:#000000;stroke-width:0.8;" x="48.620313" xlink:href="#m4c2b1d9707" y="137.116875"/>
      </g>
     </g>
     <g id="text_12">
      <!-- 0.8 -->
      <g transform="translate(25.717188 140.916094)scale(0.1 -0.1)">
       <use xlink:href="#DejaVuSans-30"/>
       <use x="63.623047" xlink:href="#DejaVuSans-2e"/>
       <use x="95.410156" xlink:href="#DejaVuSans-38"/>
      </g>
     </g>
    </g>
    <g id="ytick_6">
     <g id="line2d_12">
      <g>
       <use style="stroke:#000000;stroke-width:0.8;" x="48.620313" xlink:href="#m4c2b1d9707" y="28.396875"/>
      </g>
     </g>
     <g id="text_13">
      <!-- 1.0 -->
      <g transform="translate(25.717188 32.196094)scale(0.1 -0.1)">
       <use xlink:href="#DejaVuSans-31"/>
       <use x="63.623047" xlink:href="#DejaVuSans-2e"/>
       <use x="95.410156" xlink:href="#DejaVuSans-30"/>
      </g>
     </g>
    </g>
    <g id="text_14">
     <!-- True Positive Rate -->
     <g transform="translate(18.597656 366.991406)rotate(-90)scale(0.15 -0.15)">
      <defs>
       <path d="M -19 4666 
L 3928 4666 
L 3928 4134 
L 2272 4134 
L 2272 0 
L 1638 0 
L 1638 4134 
L -19 4134 
L -19 4666 
z
" id="DejaVuSans-54" transform="scale(0.015625)"/>
       <path d="M 2631 2963 
Q 2534 3019 2420 3045 
Q 2306 3072 2169 3072 
Q 1681 3072 1420 2755 
Q 1159 2438 1159 1844 
L 1159 0 
L 581 0 
L 581 3500 
L 1159 3500 
L 1159 2956 
Q 1341 3275 1631 3429 
Q 1922 3584 2338 3584 
Q 2397 3584 2469 3576 
Q 2541 3569 2628 3553 
L 2631 2963 
z
" id="DejaVuSans-72" transform="scale(0.015625)"/>
       <path d="M 544 1381 
L 544 3500 
L 1119 3500 
L 1119 1403 
Q 1119 906 1312 657 
Q 1506 409 1894 409 
Q 2359 409 2629 706 
Q 2900 1003 2900 1516 
L 2900 3500 
L 3475 3500 
L 3475 0 
L 2900 0 
L 2900 538 
Q 2691 219 2414 64 
Q 2138 -91 1772 -91 
Q 1169 -91 856 284 
Q 544 659 544 1381 
z
M 1991 3584 
L 1991 3584 
z
" id="DejaVuSans-75" transform="scale(0.015625)"/>
      </defs>
      <use xlink:href="#DejaVuSans-54"/>
      <use x="46.333984" xlink:href="#DejaVuSans-72"/>
      <use x="87.447266" xlink:href="#DejaVuSans-75"/>
      <use x="150.826172" xlink:href="#DejaVuSans-65"/>
      <use x="212.349609" xlink:href="#DejaVuSans-20"/>
      <use x="244.136719" xlink:href="#DejaVuSans-50"/>
      <use x="300.814453" xlink:href="#DejaVuSans-6f"/>
      <use x="361.996094" xlink:href="#DejaVuSans-73"/>
      <use x="414.095703" xlink:href="#DejaVuSans-69"/>
      <use x="441.878906" xlink:href="#DejaVuSans-74"/>
      <use x="481.087891" xlink:href="#DejaVuSans-69"/>
      <use x="508.871094" xlink:href="#DejaVuSans-76"/>
      <use x="568.050781" xlink:href="#DejaVuSans-65"/>
      <use x="629.574219" xlink:href="#DejaVuSans-20"/>
      <use x="661.361328" xlink:href="#DejaVuSans-52"/>
      <use x="728.59375" xlink:href="#DejaVuSans-61"/>
      <use x="789.873047" xlink:href="#DejaVuSans-74"/>
      <use x="829.082031" xlink:href="#DejaVuSans-65"/>
     </g>
    </g>
   </g>
   <g id="line2d_13">
    <path clip-path="url(#pf5c2368727)" d="M 48.620313 571.996875 
L 48.620313 549.346875 
L 48.620313 390.796875 
L 71.270313 390.796875 
L 71.270313 232.246875 
L 93.920312 232.246875 
L 93.920312 186.946875 
L 139.220312 186.946875 
L 139.220312 164.296875 
L 161.870313 164.296875 
L 161.870313 96.346875 
L 252.470312 96.346875 
L 252.470312 51.046875 
L 275.120312 51.046875 
L 275.120312 28.396875 
L 592.220312 28.396875 
" style="fill:none;stroke:#00429d;stroke-linecap:square;stroke-width:5;"/>
   </g>
   <g id="line2d_14">
    <path clip-path="url(#pf5c2368727)" d="M 48.620313 571.996875 
L 71.270313 232.246875 
L 71.270313 209.596875 
L 592.220312 28.396875 
" style="fill:none;stroke:#2f5aa8;stroke-linecap:square;stroke-width:5;"/>
   </g>
   <g id="line2d_15">
    <path clip-path="url(#pf5c2368727)" d="M 48.620313 571.996875 
L 48.620313 549.346875 
L 48.620313 390.796875 
L 71.270313 390.796875 
L 71.270313 186.946875 
L 93.920312 186.946875 
L 93.920312 164.296875 
L 116.570312 164.296875 
L 116.570312 141.646875 
L 161.870313 141.646875 
L 161.870313 118.996875 
L 184.520312 118.996875 
L 184.520312 96.346875 
L 229.820312 96.346875 
L 229.820312 73.696875 
L 343.070312 73.696875 
L 343.070312 51.046875 
L 388.370312 51.046875 
L 388.370312 28.396875 
L 592.220312 28.396875 
" style="fill:none;stroke:#4774b4;stroke-linecap:square;stroke-width:5;"/>
   </g>
   <g id="line2d_16">
    <path clip-path="url(#pf5c2368727)" d="M 48.620313 571.996875 
L 48.620313 549.346875 
L 48.620313 481.396875 
L 71.270313 481.396875 
L 71.270313 232.246875 
L 93.920312 232.246875 
L 93.920312 209.596875 
L 116.570312 209.596875 
L 116.570312 96.346875 
L 229.820312 96.346875 
L 229.820312 73.696875 
L 411.020312 73.696875 
L 411.020312 51.046875 
L 546.920312 51.046875 
L 546.920312 28.396875 
L 592.220312 28.396875 
" style="fill:none;stroke:#5c8ebf;stroke-linecap:square;stroke-width:5;"/>
   </g>
   <g id="line2d_17">
    <path clip-path="url(#pf5c2368727)" d="M 48.620313 571.996875 
L 48.620313 504.046875 
L 48.620313 390.796875 
L 71.270313 390.796875 
L 71.270313 254.896875 
L 93.920312 254.896875 
L 93.920312 209.596875 
L 116.570312 209.596875 
L 116.570312 186.946875 
L 139.220312 186.946875 
L 139.220312 141.646875 
L 161.870313 141.646875 
L 161.870313 118.996875 
L 252.470312 118.996875 
L 252.470312 51.046875 
L 275.120312 51.046875 
L 275.120312 28.396875 
L 592.220312 28.396875 
" style="fill:none;stroke:#6fa9ca;stroke-linecap:square;stroke-width:5;"/>
   </g>
   <g id="line2d_18">
    <path clip-path="url(#pf5c2368727)" d="M 48.620313 571.996875 
L 71.270313 164.296875 
L 592.220312 28.396875 
" style="fill:none;stroke:#83c4d5;stroke-linecap:square;stroke-width:5;"/>
   </g>
   <g id="line2d_19">
    <path clip-path="url(#pf5c2368727)" d="M 48.620313 571.996875 
L 48.620313 526.696875 
L 48.620313 504.046875 
L 48.620313 458.746875 
L 48.620313 436.096875 
L 48.620313 390.796875 
L 48.620313 322.846875 
L 71.270313 322.846875 
L 71.270313 254.896875 
L 71.270313 209.596875 
L 71.270313 164.296875 
L 116.570312 164.296875 
L 116.570312 141.646875 
L 116.570312 96.346875 
L 161.870313 96.346875 
L 161.870313 73.696875 
L 207.170312 73.696875 
L 207.170312 51.046875 
L 252.470312 51.046875 
L 343.070312 51.046875 
L 343.070312 28.396875 
L 501.620312 28.396875 
L 546.920312 28.396875 
L 592.220312 28.396875 
" style="fill:none;stroke:#99e0e0;stroke-linecap:square;stroke-width:5;"/>
   </g>
   <g id="line2d_20">
    <path clip-path="url(#pf5c2368727)" d="M 48.620313 571.996875 
L 71.270313 345.496875 
L 71.270313 209.596875 
L 93.920312 186.946875 
L 139.220312 141.646875 
L 161.870313 118.996875 
L 207.170312 96.346875 
L 275.120312 51.046875 
L 592.220312 28.396875 
" style="fill:none;stroke:#c0f8ec;stroke-linecap:square;stroke-width:5;"/>
   </g>
   <g id="line2d_21">
    <path clip-path="url(#pf5c2368727)" d="M 48.620313 571.996875 
L 48.620313 481.396875 
L 48.620313 390.796875 
L 71.270313 390.796875 
L 71.270313 164.296875 
L 93.920312 164.296875 
L 93.920312 96.346875 
L 161.870313 96.346875 
L 161.870313 73.696875 
L 184.520312 73.696875 
L 184.520312 51.046875 
L 320.420312 51.046875 
L 320.420312 28.396875 
L 592.220312 28.396875 
" style="fill:none;stroke:#fccbe5;stroke-linecap:square;stroke-width:5;"/>
   </g>
   <g id="line2d_22">
    <path clip-path="url(#pf5c2368727)" d="M 48.620313 571.996875 
L 71.270313 390.796875 
L 71.270313 141.646875 
L 161.870313 141.646875 
L 161.870313 73.696875 
L 207.170312 28.396875 
L 297.770312 28.396875 
L 343.070312 28.396875 
L 365.720312 28.396875 
L 456.320312 28.396875 
L 546.920312 28.396875 
L 592.220312 28.396875 
" style="fill:none;stroke:#f7b6cc;stroke-linecap:square;stroke-width:5;"/>
   </g>
   <g id="line2d_23">
    <path clip-path="url(#pf5c2368727)" d="M 48.620313 571.996875 
L 48.620313 549.346875 
L 48.620313 458.746875 
L 48.620313 345.496875 
L 71.270313 345.496875 
L 71.270313 186.946875 
L 93.920312 186.946875 
L 93.920312 164.296875 
L 116.570312 164.296875 
L 116.570312 141.646875 
L 161.870313 141.646875 
L 161.870313 118.996875 
L 184.520312 118.996875 
L 184.520312 51.046875 
L 207.170312 51.046875 
L 207.170312 28.396875 
L 592.220312 28.396875 
" style="fill:none;stroke:#f1a1b4;stroke-linecap:square;stroke-width:5;"/>
   </g>
   <g id="line2d_24">
    <path clip-path="url(#pf5c2368727)" d="M 48.620313 571.996875 
L 93.920312 186.946875 
L 93.920312 118.996875 
L 139.220312 118.996875 
L 592.220312 28.396875 
" style="fill:none;stroke:#ea8c9c;stroke-linecap:square;stroke-width:5;"/>
   </g>
   <g id="line2d_25">
    <path clip-path="url(#pf5c2368727)" d="M 48.620313 571.996875 
L 48.620313 481.396875 
L 48.620313 322.846875 
L 71.270313 322.846875 
L 71.270313 300.196875 
L 93.920312 300.196875 
L 93.920312 209.596875 
L 116.570312 209.596875 
L 116.570312 186.946875 
L 139.220312 186.946875 
L 139.220312 141.646875 
L 161.870313 141.646875 
L 161.870313 96.346875 
L 229.820312 96.346875 
L 229.820312 73.696875 
L 320.420312 73.696875 
L 320.420312 28.396875 
L 592.220312 28.396875 
" style="fill:none;stroke:#e27786;stroke-linecap:square;stroke-width:5;"/>
   </g>
   <g id="line2d_26">
    <path clip-path="url(#pf5c2368727)" d="M 48.620313 571.996875 
L 48.620313 413.446875 
L 48.620313 390.796875 
L 48.620313 345.496875 
L 71.270313 345.496875 
L 71.270313 300.196875 
L 93.920312 300.196875 
L 93.920312 254.896875 
L 116.570312 254.896875 
L 116.570312 209.596875 
L 139.220312 164.296875 
L 139.220312 141.646875 
L 184.520312 141.646875 
L 252.470312 141.646875 
L 297.770312 118.996875 
L 433.670312 28.396875 
L 456.320312 28.396875 
L 592.220312 28.396875 
" style="fill:none;stroke:#d96171;stroke-linecap:square;stroke-width:5;"/>
   </g>
   <g id="line2d_27">
    <path clip-path="url(#pf5c2368727)" d="M 48.620313 571.996875 
L 592.220312 28.396875 
" style="fill:none;stroke:#808080;stroke-dasharray:18.5,8;stroke-dashoffset:0;stroke-width:5;"/>
   </g>
   <g id="patch_3">
    <path d="M 48.620313 571.996875 
L 48.620313 28.396875 
" style="fill:none;stroke:#000000;stroke-linecap:square;stroke-linejoin:miter;stroke-width:0.8;"/>
   </g>
   <g id="patch_4">
    <path d="M 48.620313 571.996875 
L 592.220312 571.996875 
" style="fill:none;stroke:#000000;stroke-linecap:square;stroke-linejoin:miter;stroke-width:0.8;"/>
   </g>
   <g id="text_15">
    <!-- ROC Curve of Auto_ML  -->
    <g transform="translate(204.345312 22.396875)scale(0.2 -0.2)">
     <defs>
      <path d="M 2522 4238 
Q 1834 4238 1429 3725 
Q 1025 3213 1025 2328 
Q 1025 1447 1429 934 
Q 1834 422 2522 422 
Q 3209 422 3611 934 
Q 4013 1447 4013 2328 
Q 4013 3213 3611 3725 
Q 3209 4238 2522 4238 
z
M 2522 4750 
Q 3503 4750 4090 4092 
Q 4678 3434 4678 2328 
Q 4678 1225 4090 567 
Q 3503 -91 2522 -91 
Q 1538 -91 948 565 
Q 359 1222 359 2328 
Q 359 3434 948 4092 
Q 1538 4750 2522 4750 
z
" id="DejaVuSans-4f" transform="scale(0.015625)"/>
      <path d="M 4122 4306 
L 4122 3641 
Q 3803 3938 3442 4084 
Q 3081 4231 2675 4231 
Q 1875 4231 1450 3742 
Q 1025 3253 1025 2328 
Q 1025 1406 1450 917 
Q 1875 428 2675 428 
Q 3081 428 3442 575 
Q 3803 722 4122 1019 
L 4122 359 
Q 3791 134 3420 21 
Q 3050 -91 2638 -91 
Q 1578 -91 968 557 
Q 359 1206 359 2328 
Q 359 3453 968 4101 
Q 1578 4750 2638 4750 
Q 3056 4750 3426 4639 
Q 3797 4528 4122 4306 
z
" id="DejaVuSans-43" transform="scale(0.015625)"/>
      <path d="M 2375 4863 
L 2375 4384 
L 1825 4384 
Q 1516 4384 1395 4259 
Q 1275 4134 1275 3809 
L 1275 3500 
L 2222 3500 
L 2222 3053 
L 1275 3053 
L 1275 0 
L 697 0 
L 697 3053 
L 147 3053 
L 147 3500 
L 697 3500 
L 697 3744 
Q 697 4328 969 4595 
Q 1241 4863 1831 4863 
L 2375 4863 
z
" id="DejaVuSans-66" transform="scale(0.015625)"/>
      <path d="M 2188 4044 
L 1331 1722 
L 3047 1722 
L 2188 4044 
z
M 1831 4666 
L 2547 4666 
L 4325 0 
L 3669 0 
L 3244 1197 
L 1141 1197 
L 716 0 
L 50 0 
L 1831 4666 
z
" id="DejaVuSans-41" transform="scale(0.015625)"/>
      <path d="M 3263 -1063 
L 3263 -1509 
L -63 -1509 
L -63 -1063 
L 3263 -1063 
z
" id="DejaVuSans-5f" transform="scale(0.015625)"/>
      <path d="M 628 4666 
L 1569 4666 
L 2759 1491 
L 3956 4666 
L 4897 4666 
L 4897 0 
L 4281 0 
L 4281 4097 
L 3078 897 
L 2444 897 
L 1241 4097 
L 1241 0 
L 628 0 
L 628 4666 
z
" id="DejaVuSans-4d" transform="scale(0.015625)"/>
      <path d="M 628 4666 
L 1259 4666 
L 1259 531 
L 3531 531 
L 3531 0 
L 628 0 
L 628 4666 
z
" id="DejaVuSans-4c" transform="scale(0.015625)"/>
     </defs>
     <use xlink:href="#DejaVuSans-52"/>
     <use x="69.482422" xlink:href="#DejaVuSans-4f"/>
     <use x="148.193359" xlink:href="#DejaVuSans-43"/>
     <use x="218.017578" xlink:href="#DejaVuSans-20"/>
     <use x="249.804688" xlink:href="#DejaVuSans-43"/>
     <use x="319.628906" xlink:href="#DejaVuSans-75"/>
     <use x="383.007812" xlink:href="#DejaVuSans-72"/>
     <use x="424.121094" xlink:href="#DejaVuSans-76"/>
     <use x="483.300781" xlink:href="#DejaVuSans-65"/>
     <use x="544.824219" xlink:href="#DejaVuSans-20"/>
     <use x="576.611328" xlink:href="#DejaVuSans-6f"/>
     <use x="637.792969" xlink:href="#DejaVuSans-66"/>
     <use x="672.998047" xlink:href="#DejaVuSans-20"/>
     <use x="704.785156" xlink:href="#DejaVuSans-41"/>
     <use x="773.193359" xlink:href="#DejaVuSans-75"/>
     <use x="836.572266" xlink:href="#DejaVuSans-74"/>
     <use x="875.78125" xlink:href="#DejaVuSans-6f"/>
     <use x="936.962891" xlink:href="#DejaVuSans-5f"/>
     <use x="986.962891" xlink:href="#DejaVuSans-4d"/>
     <use x="1073.242188" xlink:href="#DejaVuSans-4c"/>
     <use x="1128.955078" xlink:href="#DejaVuSans-20"/>
    </g>
   </g>
   <g id="legend_1">
    <g id="patch_5">
     <path d="M 204.14375 568.996875 
L 587.220312 568.996875 
Q 589.220312 568.996875 589.220312 566.996875 
L 589.220312 450.571875 
Q 589.220312 448.571875 587.220312 448.571875 
L 204.14375 448.571875 
Q 202.14375 448.571875 202.14375 450.571875 
L 202.14375 566.996875 
Q 202.14375 568.996875 204.14375 568.996875 
z
" style="fill:#4c4c4c;opacity:0.5;stroke:#4c4c4c;stroke-linejoin:miter;"/>
    </g>
    <g id="patch_6">
     <path d="M 202.14375 566.996875 
L 585.220312 566.996875 
Q 587.220312 566.996875 587.220312 564.996875 
L 587.220312 448.571875 
Q 587.220312 446.571875 585.220312 446.571875 
L 202.14375 446.571875 
Q 200.14375 446.571875 200.14375 448.571875 
L 200.14375 564.996875 
Q 200.14375 566.996875 202.14375 566.996875 
z
" style="fill:#ffffff;stroke:#cccccc;stroke-linejoin:miter;"/>
    </g>
    <g id="text_16">
     <!-- ROC -->
     <g transform="translate(382.780469 458.170313)scale(0.1 -0.1)">
      <use xlink:href="#DejaVuSans-52"/>
      <use x="69.482422" xlink:href="#DejaVuSans-4f"/>
      <use x="148.193359" xlink:href="#DejaVuSans-43"/>
     </g>
    </g>
    <g id="line2d_28">
     <path d="M 204.14375 469.348437 
L 224.14375 469.348437 
" style="fill:none;stroke:#00429d;stroke-linecap:square;stroke-width:5;"/>
    </g>
    <g id="line2d_29"/>
    <g id="text_17">
     <!-- LogisticRegression (AUC=0.899) -->
     <g transform="translate(232.14375 472.848437)scale(0.1 -0.1)">
      <defs>
       <path d="M 2906 1791 
Q 2906 2416 2648 2759 
Q 2391 3103 1925 3103 
Q 1463 3103 1205 2759 
Q 947 2416 947 1791 
Q 947 1169 1205 825 
Q 1463 481 1925 481 
Q 2391 481 2648 825 
Q 2906 1169 2906 1791 
z
M 3481 434 
Q 3481 -459 3084 -895 
Q 2688 -1331 1869 -1331 
Q 1566 -1331 1297 -1286 
Q 1028 -1241 775 -1147 
L 775 -588 
Q 1028 -725 1275 -790 
Q 1522 -856 1778 -856 
Q 2344 -856 2625 -561 
Q 2906 -266 2906 331 
L 2906 616 
Q 2728 306 2450 153 
Q 2172 0 1784 0 
Q 1141 0 747 490 
Q 353 981 353 1791 
Q 353 2603 747 3093 
Q 1141 3584 1784 3584 
Q 2172 3584 2450 3431 
Q 2728 3278 2906 2969 
L 2906 3500 
L 3481 3500 
L 3481 434 
z
" id="DejaVuSans-67" transform="scale(0.015625)"/>
       <path d="M 3122 3366 
L 3122 2828 
Q 2878 2963 2633 3030 
Q 2388 3097 2138 3097 
Q 1578 3097 1268 2742 
Q 959 2388 959 1747 
Q 959 1106 1268 751 
Q 1578 397 2138 397 
Q 2388 397 2633 464 
Q 2878 531 3122 666 
L 3122 134 
Q 2881 22 2623 -34 
Q 2366 -91 2075 -91 
Q 1284 -91 818 406 
Q 353 903 353 1747 
Q 353 2603 823 3093 
Q 1294 3584 2113 3584 
Q 2378 3584 2631 3529 
Q 2884 3475 3122 3366 
z
" id="DejaVuSans-63" transform="scale(0.015625)"/>
       <path d="M 3513 2113 
L 3513 0 
L 2938 0 
L 2938 2094 
Q 2938 2591 2744 2837 
Q 2550 3084 2163 3084 
Q 1697 3084 1428 2787 
Q 1159 2491 1159 1978 
L 1159 0 
L 581 0 
L 581 3500 
L 1159 3500 
L 1159 2956 
Q 1366 3272 1645 3428 
Q 1925 3584 2291 3584 
Q 2894 3584 3203 3211 
Q 3513 2838 3513 2113 
z
" id="DejaVuSans-6e" transform="scale(0.015625)"/>
       <path d="M 1984 4856 
Q 1566 4138 1362 3434 
Q 1159 2731 1159 2009 
Q 1159 1288 1364 580 
Q 1569 -128 1984 -844 
L 1484 -844 
Q 1016 -109 783 600 
Q 550 1309 550 2009 
Q 550 2706 781 3412 
Q 1013 4119 1484 4856 
L 1984 4856 
z
" id="DejaVuSans-28" transform="scale(0.015625)"/>
       <path d="M 556 4666 
L 1191 4666 
L 1191 1831 
Q 1191 1081 1462 751 
Q 1734 422 2344 422 
Q 2950 422 3222 751 
Q 3494 1081 3494 1831 
L 3494 4666 
L 4128 4666 
L 4128 1753 
Q 4128 841 3676 375 
Q 3225 -91 2344 -91 
Q 1459 -91 1007 375 
Q 556 841 556 1753 
L 556 4666 
z
" id="DejaVuSans-55" transform="scale(0.015625)"/>
       <path d="M 678 2906 
L 4684 2906 
L 4684 2381 
L 678 2381 
L 678 2906 
z
M 678 1631 
L 4684 1631 
L 4684 1100 
L 678 1100 
L 678 1631 
z
" id="DejaVuSans-3d" transform="scale(0.015625)"/>
       <path d="M 703 97 
L 703 672 
Q 941 559 1184 500 
Q 1428 441 1663 441 
Q 2288 441 2617 861 
Q 2947 1281 2994 2138 
Q 2813 1869 2534 1725 
Q 2256 1581 1919 1581 
Q 1219 1581 811 2004 
Q 403 2428 403 3163 
Q 403 3881 828 4315 
Q 1253 4750 1959 4750 
Q 2769 4750 3195 4129 
Q 3622 3509 3622 2328 
Q 3622 1225 3098 567 
Q 2575 -91 1691 -91 
Q 1453 -91 1209 -44 
Q 966 3 703 97 
z
M 1959 2075 
Q 2384 2075 2632 2365 
Q 2881 2656 2881 3163 
Q 2881 3666 2632 3958 
Q 2384 4250 1959 4250 
Q 1534 4250 1286 3958 
Q 1038 3666 1038 3163 
Q 1038 2656 1286 2365 
Q 1534 2075 1959 2075 
z
" id="DejaVuSans-39" transform="scale(0.015625)"/>
       <path d="M 513 4856 
L 1013 4856 
Q 1481 4119 1714 3412 
Q 1947 2706 1947 2009 
Q 1947 1309 1714 600 
Q 1481 -109 1013 -844 
L 513 -844 
Q 928 -128 1133 580 
Q 1338 1288 1338 2009 
Q 1338 2731 1133 3434 
Q 928 4138 513 4856 
z
" id="DejaVuSans-29" transform="scale(0.015625)"/>
      </defs>
      <use xlink:href="#DejaVuSans-4c"/>
      <use x="53.962891" xlink:href="#DejaVuSans-6f"/>
      <use x="115.144531" xlink:href="#DejaVuSans-67"/>
      <use x="178.621094" xlink:href="#DejaVuSans-69"/>
      <use x="206.404297" xlink:href="#DejaVuSans-73"/>
      <use x="258.503906" xlink:href="#DejaVuSans-74"/>
      <use x="297.712891" xlink:href="#DejaVuSans-69"/>
      <use x="325.496094" xlink:href="#DejaVuSans-63"/>
      <use x="380.476562" xlink:href="#DejaVuSans-52"/>
      <use x="445.458984" xlink:href="#DejaVuSans-65"/>
      <use x="506.982422" xlink:href="#DejaVuSans-67"/>
      <use x="570.458984" xlink:href="#DejaVuSans-72"/>
      <use x="609.322266" xlink:href="#DejaVuSans-65"/>
      <use x="670.845703" xlink:href="#DejaVuSans-73"/>
      <use x="722.945312" xlink:href="#DejaVuSans-73"/>
      <use x="775.044922" xlink:href="#DejaVuSans-69"/>
      <use x="802.828125" xlink:href="#DejaVuSans-6f"/>
      <use x="864.009766" xlink:href="#DejaVuSans-6e"/>
      <use x="927.388672" xlink:href="#DejaVuSans-20"/>
      <use x="959.175781" xlink:href="#DejaVuSans-28"/>
      <use x="998.189453" xlink:href="#DejaVuSans-41"/>
      <use x="1066.597656" xlink:href="#DejaVuSans-55"/>
      <use x="1139.791016" xlink:href="#DejaVuSans-43"/>
      <use x="1209.615234" xlink:href="#DejaVuSans-3d"/>
      <use x="1293.404297" xlink:href="#DejaVuSans-30"/>
      <use x="1357.027344" xlink:href="#DejaVuSans-2e"/>
      <use x="1388.814453" xlink:href="#DejaVuSans-38"/>
      <use x="1452.4375" xlink:href="#DejaVuSans-39"/>
      <use x="1516.060547" xlink:href="#DejaVuSans-39"/>
      <use x="1579.683594" xlink:href="#DejaVuSans-29"/>
     </g>
    </g>
    <g id="line2d_30">
     <path d="M 204.14375 484.026563 
L 224.14375 484.026563 
" style="fill:none;stroke:#2f5aa8;stroke-linecap:square;stroke-width:5;"/>
    </g>
    <g id="line2d_31"/>
    <g id="text_18">
     <!-- SGDClassifier (AUC=0.812) -->
     <g transform="translate(232.14375 487.526563)scale(0.1 -0.1)">
      <defs>
       <path d="M 3425 4513 
L 3425 3897 
Q 3066 4069 2747 4153 
Q 2428 4238 2131 4238 
Q 1616 4238 1336 4038 
Q 1056 3838 1056 3469 
Q 1056 3159 1242 3001 
Q 1428 2844 1947 2747 
L 2328 2669 
Q 3034 2534 3370 2195 
Q 3706 1856 3706 1288 
Q 3706 609 3251 259 
Q 2797 -91 1919 -91 
Q 1588 -91 1214 -16 
Q 841 59 441 206 
L 441 856 
Q 825 641 1194 531 
Q 1563 422 1919 422 
Q 2459 422 2753 634 
Q 3047 847 3047 1241 
Q 3047 1584 2836 1778 
Q 2625 1972 2144 2069 
L 1759 2144 
Q 1053 2284 737 2584 
Q 422 2884 422 3419 
Q 422 4038 858 4394 
Q 1294 4750 2059 4750 
Q 2388 4750 2728 4690 
Q 3069 4631 3425 4513 
z
" id="DejaVuSans-53" transform="scale(0.015625)"/>
       <path d="M 3809 666 
L 3809 1919 
L 2778 1919 
L 2778 2438 
L 4434 2438 
L 4434 434 
Q 4069 175 3628 42 
Q 3188 -91 2688 -91 
Q 1594 -91 976 548 
Q 359 1188 359 2328 
Q 359 3472 976 4111 
Q 1594 4750 2688 4750 
Q 3144 4750 3555 4637 
Q 3966 4525 4313 4306 
L 4313 3634 
Q 3963 3931 3569 4081 
Q 3175 4231 2741 4231 
Q 1884 4231 1454 3753 
Q 1025 3275 1025 2328 
Q 1025 1384 1454 906 
Q 1884 428 2741 428 
Q 3075 428 3337 486 
Q 3600 544 3809 666 
z
" id="DejaVuSans-47" transform="scale(0.015625)"/>
       <path d="M 1259 4147 
L 1259 519 
L 2022 519 
Q 2988 519 3436 956 
Q 3884 1394 3884 2338 
Q 3884 3275 3436 3711 
Q 2988 4147 2022 4147 
L 1259 4147 
z
M 628 4666 
L 1925 4666 
Q 3281 4666 3915 4102 
Q 4550 3538 4550 2338 
Q 4550 1131 3912 565 
Q 3275 0 1925 0 
L 628 0 
L 628 4666 
z
" id="DejaVuSans-44" transform="scale(0.015625)"/>
      </defs>
      <use xlink:href="#DejaVuSans-53"/>
      <use x="63.476562" xlink:href="#DejaVuSans-47"/>
      <use x="140.966797" xlink:href="#DejaVuSans-44"/>
      <use x="217.96875" xlink:href="#DejaVuSans-43"/>
      <use x="287.792969" xlink:href="#DejaVuSans-6c"/>
      <use x="315.576172" xlink:href="#DejaVuSans-61"/>
      <use x="376.855469" xlink:href="#DejaVuSans-73"/>
      <use x="428.955078" xlink:href="#DejaVuSans-73"/>
      <use x="481.054688" xlink:href="#DejaVuSans-69"/>
      <use x="508.837891" xlink:href="#DejaVuSans-66"/>
      <use x="544.042969" xlink:href="#DejaVuSans-69"/>
      <use x="571.826172" xlink:href="#DejaVuSans-65"/>
      <use x="633.349609" xlink:href="#DejaVuSans-72"/>
      <use x="674.462891" xlink:href="#DejaVuSans-20"/>
      <use x="706.25" xlink:href="#DejaVuSans-28"/>
      <use x="745.263672" xlink:href="#DejaVuSans-41"/>
      <use x="813.671875" xlink:href="#DejaVuSans-55"/>
      <use x="886.865234" xlink:href="#DejaVuSans-43"/>
      <use x="956.689453" xlink:href="#DejaVuSans-3d"/>
      <use x="1040.478516" xlink:href="#DejaVuSans-30"/>
      <use x="1104.101562" xlink:href="#DejaVuSans-2e"/>
      <use x="1135.888672" xlink:href="#DejaVuSans-38"/>
      <use x="1199.511719" xlink:href="#DejaVuSans-31"/>
      <use x="1263.134766" xlink:href="#DejaVuSans-32"/>
      <use x="1326.757812" xlink:href="#DejaVuSans-29"/>
     </g>
    </g>
    <g id="line2d_32">
     <path d="M 204.14375 498.704687 
L 224.14375 498.704687 
" style="fill:none;stroke:#4774b4;stroke-linecap:square;stroke-width:5;"/>
    </g>
    <g id="line2d_33"/>
    <g id="text_19">
     <!-- LinearDA (AUC=0.894) -->
     <g transform="translate(232.14375 502.204687)scale(0.1 -0.1)">
      <use xlink:href="#DejaVuSans-4c"/>
      <use x="55.712891" xlink:href="#DejaVuSans-69"/>
      <use x="83.496094" xlink:href="#DejaVuSans-6e"/>
      <use x="146.875" xlink:href="#DejaVuSans-65"/>
      <use x="208.398438" xlink:href="#DejaVuSans-61"/>
      <use x="269.677734" xlink:href="#DejaVuSans-72"/>
      <use x="310.791016" xlink:href="#DejaVuSans-44"/>
      <use x="386.042969" xlink:href="#DejaVuSans-41"/>
      <use x="454.451172" xlink:href="#DejaVuSans-20"/>
      <use x="486.238281" xlink:href="#DejaVuSans-28"/>
      <use x="525.251953" xlink:href="#DejaVuSans-41"/>
      <use x="593.660156" xlink:href="#DejaVuSans-55"/>
      <use x="666.853516" xlink:href="#DejaVuSans-43"/>
      <use x="736.677734" xlink:href="#DejaVuSans-3d"/>
      <use x="820.466797" xlink:href="#DejaVuSans-30"/>
      <use x="884.089844" xlink:href="#DejaVuSans-2e"/>
      <use x="915.876953" xlink:href="#DejaVuSans-38"/>
      <use x="979.5" xlink:href="#DejaVuSans-39"/>
      <use x="1043.123047" xlink:href="#DejaVuSans-34"/>
      <use x="1106.746094" xlink:href="#DejaVuSans-29"/>
     </g>
    </g>
    <g id="line2d_34">
     <path d="M 204.14375 513.382812 
L 224.14375 513.382812 
" style="fill:none;stroke:#5c8ebf;stroke-linecap:square;stroke-width:5;"/>
    </g>
    <g id="line2d_35"/>
    <g id="text_20">
     <!-- SVC (AUC=0.872) -->
     <g transform="translate(232.14375 516.882812)scale(0.1 -0.1)">
      <defs>
       <path d="M 1831 0 
L 50 4666 
L 709 4666 
L 2188 738 
L 3669 4666 
L 4325 4666 
L 2547 0 
L 1831 0 
z
" id="DejaVuSans-56" transform="scale(0.015625)"/>
       <path d="M 525 4666 
L 3525 4666 
L 3525 4397 
L 1831 0 
L 1172 0 
L 2766 4134 
L 525 4134 
L 525 4666 
z
" id="DejaVuSans-37" transform="scale(0.015625)"/>
      </defs>
      <use xlink:href="#DejaVuSans-53"/>
      <use x="63.476562" xlink:href="#DejaVuSans-56"/>
      <use x="131.884766" xlink:href="#DejaVuSans-43"/>
      <use x="201.708984" xlink:href="#DejaVuSans-20"/>
      <use x="233.496094" xlink:href="#DejaVuSans-28"/>
      <use x="272.509766" xlink:href="#DejaVuSans-41"/>
      <use x="340.917969" xlink:href="#DejaVuSans-55"/>
      <use x="414.111328" xlink:href="#DejaVuSans-43"/>
      <use x="483.935547" xlink:href="#DejaVuSans-3d"/>
      <use x="567.724609" xlink:href="#DejaVuSans-30"/>
      <use x="631.347656" xlink:href="#DejaVuSans-2e"/>
      <use x="663.134766" xlink:href="#DejaVuSans-38"/>
      <use x="726.757812" xlink:href="#DejaVuSans-37"/>
      <use x="790.380859" xlink:href="#DejaVuSans-32"/>
      <use x="854.003906" xlink:href="#DejaVuSans-29"/>
     </g>
    </g>
    <g id="line2d_36">
     <path d="M 204.14375 528.060938 
L 224.14375 528.060938 
" style="fill:none;stroke:#6fa9ca;stroke-linecap:square;stroke-width:5;"/>
    </g>
    <g id="line2d_37"/>
    <g id="text_21">
     <!-- NuSVC (AUC=0.891) -->
     <g transform="translate(232.14375 531.560938)scale(0.1 -0.1)">
      <defs>
       <path d="M 628 4666 
L 1478 4666 
L 3547 763 
L 3547 4666 
L 4159 4666 
L 4159 0 
L 3309 0 
L 1241 3903 
L 1241 0 
L 628 0 
L 628 4666 
z
" id="DejaVuSans-4e" transform="scale(0.015625)"/>
      </defs>
      <use xlink:href="#DejaVuSans-4e"/>
      <use x="74.804688" xlink:href="#DejaVuSans-75"/>
      <use x="138.183594" xlink:href="#DejaVuSans-53"/>
      <use x="201.660156" xlink:href="#DejaVuSans-56"/>
      <use x="270.068359" xlink:href="#DejaVuSans-43"/>
      <use x="339.892578" xlink:href="#DejaVuSans-20"/>
      <use x="371.679688" xlink:href="#DejaVuSans-28"/>
      <use x="410.693359" xlink:href="#DejaVuSans-41"/>
      <use x="479.101562" xlink:href="#DejaVuSans-55"/>
      <use x="552.294922" xlink:href="#DejaVuSans-43"/>
      <use x="622.119141" xlink:href="#DejaVuSans-3d"/>
      <use x="705.908203" xlink:href="#DejaVuSans-30"/>
      <use x="769.53125" xlink:href="#DejaVuSans-2e"/>
      <use x="801.318359" xlink:href="#DejaVuSans-38"/>
      <use x="864.941406" xlink:href="#DejaVuSans-39"/>
      <use x="928.564453" xlink:href="#DejaVuSans-31"/>
      <use x="992.1875" xlink:href="#DejaVuSans-29"/>
     </g>
    </g>
    <g id="line2d_38">
     <path d="M 204.14375 542.739063 
L 224.14375 542.739063 
" style="fill:none;stroke:#83c4d5;stroke-linecap:square;stroke-width:5;"/>
    </g>
    <g id="line2d_39"/>
    <g id="text_22">
     <!-- DecisionTree (AUC=0.854) -->
     <g transform="translate(232.14375 546.239063)scale(0.1 -0.1)">
      <defs>
       <path d="M 691 4666 
L 3169 4666 
L 3169 4134 
L 1269 4134 
L 1269 2991 
Q 1406 3038 1543 3061 
Q 1681 3084 1819 3084 
Q 2600 3084 3056 2656 
Q 3513 2228 3513 1497 
Q 3513 744 3044 326 
Q 2575 -91 1722 -91 
Q 1428 -91 1123 -41 
Q 819 9 494 109 
L 494 744 
Q 775 591 1075 516 
Q 1375 441 1709 441 
Q 2250 441 2565 725 
Q 2881 1009 2881 1497 
Q 2881 1984 2565 2268 
Q 2250 2553 1709 2553 
Q 1456 2553 1204 2497 
Q 953 2441 691 2322 
L 691 4666 
z
" id="DejaVuSans-35" transform="scale(0.015625)"/>
      </defs>
      <use xlink:href="#DejaVuSans-44"/>
      <use x="77.001953" xlink:href="#DejaVuSans-65"/>
      <use x="138.525391" xlink:href="#DejaVuSans-63"/>
      <use x="193.505859" xlink:href="#DejaVuSans-69"/>
      <use x="221.289062" xlink:href="#DejaVuSans-73"/>
      <use x="273.388672" xlink:href="#DejaVuSans-69"/>
      <use x="301.171875" xlink:href="#DejaVuSans-6f"/>
      <use x="362.353516" xlink:href="#DejaVuSans-6e"/>
      <use x="425.732422" xlink:href="#DejaVuSans-54"/>
      <use x="472.066406" xlink:href="#DejaVuSans-72"/>
      <use x="510.929688" xlink:href="#DejaVuSans-65"/>
      <use x="572.453125" xlink:href="#DejaVuSans-65"/>
      <use x="633.976562" xlink:href="#DejaVuSans-20"/>
      <use x="665.763672" xlink:href="#DejaVuSans-28"/>
      <use x="704.777344" xlink:href="#DejaVuSans-41"/>
      <use x="773.185547" xlink:href="#DejaVuSans-55"/>
      <use x="846.378906" xlink:href="#DejaVuSans-43"/>
      <use x="916.203125" xlink:href="#DejaVuSans-3d"/>
      <use x="999.992188" xlink:href="#DejaVuSans-30"/>
      <use x="1063.615234" xlink:href="#DejaVuSans-2e"/>
      <use x="1095.402344" xlink:href="#DejaVuSans-38"/>
      <use x="1159.025391" xlink:href="#DejaVuSans-35"/>
      <use x="1222.648438" xlink:href="#DejaVuSans-34"/>
      <use x="1286.271484" xlink:href="#DejaVuSans-29"/>
     </g>
    </g>
    <g id="line2d_40">
     <path d="M 204.14375 557.417187 
L 224.14375 557.417187 
" style="fill:none;stroke:#99e0e0;stroke-linecap:square;stroke-width:5;"/>
    </g>
    <g id="line2d_41"/>
    <g id="text_23">
     <!-- AdaBoost (AUC=0.929) -->
     <g transform="translate(232.14375 560.917187)scale(0.1 -0.1)">
      <defs>
       <path d="M 2906 2969 
L 2906 4863 
L 3481 4863 
L 3481 0 
L 2906 0 
L 2906 525 
Q 2725 213 2448 61 
Q 2172 -91 1784 -91 
Q 1150 -91 751 415 
Q 353 922 353 1747 
Q 353 2572 751 3078 
Q 1150 3584 1784 3584 
Q 2172 3584 2448 3432 
Q 2725 3281 2906 2969 
z
M 947 1747 
Q 947 1113 1208 752 
Q 1469 391 1925 391 
Q 2381 391 2643 752 
Q 2906 1113 2906 1747 
Q 2906 2381 2643 2742 
Q 2381 3103 1925 3103 
Q 1469 3103 1208 2742 
Q 947 2381 947 1747 
z
" id="DejaVuSans-64" transform="scale(0.015625)"/>
       <path d="M 1259 2228 
L 1259 519 
L 2272 519 
Q 2781 519 3026 730 
Q 3272 941 3272 1375 
Q 3272 1813 3026 2020 
Q 2781 2228 2272 2228 
L 1259 2228 
z
M 1259 4147 
L 1259 2741 
L 2194 2741 
Q 2656 2741 2882 2914 
Q 3109 3088 3109 3444 
Q 3109 3797 2882 3972 
Q 2656 4147 2194 4147 
L 1259 4147 
z
M 628 4666 
L 2241 4666 
Q 2963 4666 3353 4366 
Q 3744 4066 3744 3513 
Q 3744 3084 3544 2831 
Q 3344 2578 2956 2516 
Q 3422 2416 3680 2098 
Q 3938 1781 3938 1306 
Q 3938 681 3513 340 
Q 3088 0 2303 0 
L 628 0 
L 628 4666 
z
" id="DejaVuSans-42" transform="scale(0.015625)"/>
      </defs>
      <use xlink:href="#DejaVuSans-41"/>
      <use x="66.658203" xlink:href="#DejaVuSans-64"/>
      <use x="130.134766" xlink:href="#DejaVuSans-61"/>
      <use x="191.414062" xlink:href="#DejaVuSans-42"/>
      <use x="260.017578" xlink:href="#DejaVuSans-6f"/>
      <use x="321.199219" xlink:href="#DejaVuSans-6f"/>
      <use x="382.380859" xlink:href="#DejaVuSans-73"/>
      <use x="434.480469" xlink:href="#DejaVuSans-74"/>
      <use x="473.689453" xlink:href="#DejaVuSans-20"/>
      <use x="505.476562" xlink:href="#DejaVuSans-28"/>
      <use x="544.490234" xlink:href="#DejaVuSans-41"/>
      <use x="612.898438" xlink:href="#DejaVuSans-55"/>
      <use x="686.091797" xlink:href="#DejaVuSans-43"/>
      <use x="755.916016" xlink:href="#DejaVuSans-3d"/>
      <use x="839.705078" xlink:href="#DejaVuSans-30"/>
      <use x="903.328125" xlink:href="#DejaVuSans-2e"/>
      <use x="935.115234" xlink:href="#DejaVuSans-39"/>
      <use x="998.738281" xlink:href="#DejaVuSans-32"/>
      <use x="1062.361328" xlink:href="#DejaVuSans-39"/>
      <use x="1125.984375" xlink:href="#DejaVuSans-29"/>
     </g>
    </g>
    <g id="line2d_42">
     <path d="M 414.015625 469.348437 
L 434.015625 469.348437 
" style="fill:none;stroke:#c0f8ec;stroke-linecap:square;stroke-width:5;"/>
    </g>
    <g id="line2d_43"/>
    <g id="text_24">
     <!-- Bagging (AUC=0.891) -->
     <g transform="translate(442.015625 472.848437)scale(0.1 -0.1)">
      <use xlink:href="#DejaVuSans-42"/>
      <use x="68.603516" xlink:href="#DejaVuSans-61"/>
      <use x="129.882812" xlink:href="#DejaVuSans-67"/>
      <use x="193.359375" xlink:href="#DejaVuSans-67"/>
      <use x="256.835938" xlink:href="#DejaVuSans-69"/>
      <use x="284.619141" xlink:href="#DejaVuSans-6e"/>
      <use x="347.998047" xlink:href="#DejaVuSans-67"/>
      <use x="411.474609" xlink:href="#DejaVuSans-20"/>
      <use x="443.261719" xlink:href="#DejaVuSans-28"/>
      <use x="482.275391" xlink:href="#DejaVuSans-41"/>
      <use x="550.683594" xlink:href="#DejaVuSans-55"/>
      <use x="623.876953" xlink:href="#DejaVuSans-43"/>
      <use x="693.701172" xlink:href="#DejaVuSans-3d"/>
      <use x="777.490234" xlink:href="#DejaVuSans-30"/>
      <use x="841.113281" xlink:href="#DejaVuSans-2e"/>
      <use x="872.900391" xlink:href="#DejaVuSans-38"/>
      <use x="936.523438" xlink:href="#DejaVuSans-39"/>
      <use x="1000.146484" xlink:href="#DejaVuSans-31"/>
      <use x="1063.769531" xlink:href="#DejaVuSans-29"/>
     </g>
    </g>
    <g id="line2d_44">
     <path d="M 414.015625 484.026563 
L 434.015625 484.026563 
" style="fill:none;stroke:#fccbe5;stroke-linecap:square;stroke-width:5;"/>
    </g>
    <g id="line2d_45"/>
    <g id="text_25">
     <!-- GTBoost (AUC=0.932) -->
     <g transform="translate(442.015625 487.526563)scale(0.1 -0.1)">
      <defs>
       <path d="M 2597 2516 
Q 3050 2419 3304 2112 
Q 3559 1806 3559 1356 
Q 3559 666 3084 287 
Q 2609 -91 1734 -91 
Q 1441 -91 1130 -33 
Q 819 25 488 141 
L 488 750 
Q 750 597 1062 519 
Q 1375 441 1716 441 
Q 2309 441 2620 675 
Q 2931 909 2931 1356 
Q 2931 1769 2642 2001 
Q 2353 2234 1838 2234 
L 1294 2234 
L 1294 2753 
L 1863 2753 
Q 2328 2753 2575 2939 
Q 2822 3125 2822 3475 
Q 2822 3834 2567 4026 
Q 2313 4219 1838 4219 
Q 1578 4219 1281 4162 
Q 984 4106 628 3988 
L 628 4550 
Q 988 4650 1302 4700 
Q 1616 4750 1894 4750 
Q 2613 4750 3031 4423 
Q 3450 4097 3450 3541 
Q 3450 3153 3228 2886 
Q 3006 2619 2597 2516 
z
" id="DejaVuSans-33" transform="scale(0.015625)"/>
      </defs>
      <use xlink:href="#DejaVuSans-47"/>
      <use x="73.865234" xlink:href="#DejaVuSans-54"/>
      <use x="134.949219" xlink:href="#DejaVuSans-42"/>
      <use x="203.552734" xlink:href="#DejaVuSans-6f"/>
      <use x="264.734375" xlink:href="#DejaVuSans-6f"/>
      <use x="325.916016" xlink:href="#DejaVuSans-73"/>
      <use x="378.015625" xlink:href="#DejaVuSans-74"/>
      <use x="417.224609" xlink:href="#DejaVuSans-20"/>
      <use x="449.011719" xlink:href="#DejaVuSans-28"/>
      <use x="488.025391" xlink:href="#DejaVuSans-41"/>
      <use x="556.433594" xlink:href="#DejaVuSans-55"/>
      <use x="629.626953" xlink:href="#DejaVuSans-43"/>
      <use x="699.451172" xlink:href="#DejaVuSans-3d"/>
      <use x="783.240234" xlink:href="#DejaVuSans-30"/>
      <use x="846.863281" xlink:href="#DejaVuSans-2e"/>
      <use x="878.650391" xlink:href="#DejaVuSans-39"/>
      <use x="942.273438" xlink:href="#DejaVuSans-33"/>
      <use x="1005.896484" xlink:href="#DejaVuSans-32"/>
      <use x="1069.519531" xlink:href="#DejaVuSans-29"/>
     </g>
    </g>
    <g id="line2d_46">
     <path d="M 414.015625 498.704687 
L 434.015625 498.704687 
" style="fill:none;stroke:#f7b6cc;stroke-linecap:square;stroke-width:5;"/>
    </g>
    <g id="line2d_47"/>
    <g id="text_26">
     <!-- RandomForest (AUC=0.927) -->
     <g transform="translate(442.015625 502.204687)scale(0.1 -0.1)">
      <defs>
       <path d="M 3328 2828 
Q 3544 3216 3844 3400 
Q 4144 3584 4550 3584 
Q 5097 3584 5394 3201 
Q 5691 2819 5691 2113 
L 5691 0 
L 5113 0 
L 5113 2094 
Q 5113 2597 4934 2840 
Q 4756 3084 4391 3084 
Q 3944 3084 3684 2787 
Q 3425 2491 3425 1978 
L 3425 0 
L 2847 0 
L 2847 2094 
Q 2847 2600 2669 2842 
Q 2491 3084 2119 3084 
Q 1678 3084 1418 2786 
Q 1159 2488 1159 1978 
L 1159 0 
L 581 0 
L 581 3500 
L 1159 3500 
L 1159 2956 
Q 1356 3278 1631 3431 
Q 1906 3584 2284 3584 
Q 2666 3584 2933 3390 
Q 3200 3197 3328 2828 
z
" id="DejaVuSans-6d" transform="scale(0.015625)"/>
      </defs>
      <use xlink:href="#DejaVuSans-52"/>
      <use x="67.232422" xlink:href="#DejaVuSans-61"/>
      <use x="128.511719" xlink:href="#DejaVuSans-6e"/>
      <use x="191.890625" xlink:href="#DejaVuSans-64"/>
      <use x="255.367188" xlink:href="#DejaVuSans-6f"/>
      <use x="316.548828" xlink:href="#DejaVuSans-6d"/>
      <use x="413.960938" xlink:href="#DejaVuSans-46"/>
      <use x="467.855469" xlink:href="#DejaVuSans-6f"/>
      <use x="529.037109" xlink:href="#DejaVuSans-72"/>
      <use x="567.900391" xlink:href="#DejaVuSans-65"/>
      <use x="629.423828" xlink:href="#DejaVuSans-73"/>
      <use x="681.523438" xlink:href="#DejaVuSans-74"/>
      <use x="720.732422" xlink:href="#DejaVuSans-20"/>
      <use x="752.519531" xlink:href="#DejaVuSans-28"/>
      <use x="791.533203" xlink:href="#DejaVuSans-41"/>
      <use x="859.941406" xlink:href="#DejaVuSans-55"/>
      <use x="933.134766" xlink:href="#DejaVuSans-43"/>
      <use x="1002.958984" xlink:href="#DejaVuSans-3d"/>
      <use x="1086.748047" xlink:href="#DejaVuSans-30"/>
      <use x="1150.371094" xlink:href="#DejaVuSans-2e"/>
      <use x="1182.158203" xlink:href="#DejaVuSans-39"/>
      <use x="1245.78125" xlink:href="#DejaVuSans-32"/>
      <use x="1309.404297" xlink:href="#DejaVuSans-37"/>
      <use x="1373.027344" xlink:href="#DejaVuSans-29"/>
     </g>
    </g>
    <g id="line2d_48">
     <path d="M 414.015625 513.382812 
L 434.015625 513.382812 
" style="fill:none;stroke:#f1a1b4;stroke-linecap:square;stroke-width:5;"/>
    </g>
    <g id="line2d_49"/>
    <g id="text_27">
     <!-- XGBoost (AUC=0.927) -->
     <g transform="translate(442.015625 516.882812)scale(0.1 -0.1)">
      <defs>
       <path d="M 403 4666 
L 1081 4666 
L 2241 2931 
L 3406 4666 
L 4084 4666 
L 2584 2425 
L 4184 0 
L 3506 0 
L 2194 1984 
L 872 0 
L 191 0 
L 1856 2491 
L 403 4666 
z
" id="DejaVuSans-58" transform="scale(0.015625)"/>
      </defs>
      <use xlink:href="#DejaVuSans-58"/>
      <use x="68.505859" xlink:href="#DejaVuSans-47"/>
      <use x="145.996094" xlink:href="#DejaVuSans-42"/>
      <use x="214.599609" xlink:href="#DejaVuSans-6f"/>
      <use x="275.78125" xlink:href="#DejaVuSans-6f"/>
      <use x="336.962891" xlink:href="#DejaVuSans-73"/>
      <use x="389.0625" xlink:href="#DejaVuSans-74"/>
      <use x="428.271484" xlink:href="#DejaVuSans-20"/>
      <use x="460.058594" xlink:href="#DejaVuSans-28"/>
      <use x="499.072266" xlink:href="#DejaVuSans-41"/>
      <use x="567.480469" xlink:href="#DejaVuSans-55"/>
      <use x="640.673828" xlink:href="#DejaVuSans-43"/>
      <use x="710.498047" xlink:href="#DejaVuSans-3d"/>
      <use x="794.287109" xlink:href="#DejaVuSans-30"/>
      <use x="857.910156" xlink:href="#DejaVuSans-2e"/>
      <use x="889.697266" xlink:href="#DejaVuSans-39"/>
      <use x="953.320312" xlink:href="#DejaVuSans-32"/>
      <use x="1016.943359" xlink:href="#DejaVuSans-37"/>
      <use x="1080.566406" xlink:href="#DejaVuSans-29"/>
     </g>
    </g>
    <g id="line2d_50">
     <path d="M 414.015625 528.060938 
L 434.015625 528.060938 
" style="fill:none;stroke:#ea8c9c;stroke-linecap:square;stroke-width:5;"/>
    </g>
    <g id="line2d_51"/>
    <g id="text_28">
     <!-- KNeighbors (AUC=0.863) -->
     <g transform="translate(442.015625 531.560938)scale(0.1 -0.1)">
      <defs>
       <path d="M 628 4666 
L 1259 4666 
L 1259 2694 
L 3353 4666 
L 4166 4666 
L 1850 2491 
L 4331 0 
L 3500 0 
L 1259 2247 
L 1259 0 
L 628 0 
L 628 4666 
z
" id="DejaVuSans-4b" transform="scale(0.015625)"/>
       <path d="M 3513 2113 
L 3513 0 
L 2938 0 
L 2938 2094 
Q 2938 2591 2744 2837 
Q 2550 3084 2163 3084 
Q 1697 3084 1428 2787 
Q 1159 2491 1159 1978 
L 1159 0 
L 581 0 
L 581 4863 
L 1159 4863 
L 1159 2956 
Q 1366 3272 1645 3428 
Q 1925 3584 2291 3584 
Q 2894 3584 3203 3211 
Q 3513 2838 3513 2113 
z
" id="DejaVuSans-68" transform="scale(0.015625)"/>
       <path d="M 3116 1747 
Q 3116 2381 2855 2742 
Q 2594 3103 2138 3103 
Q 1681 3103 1420 2742 
Q 1159 2381 1159 1747 
Q 1159 1113 1420 752 
Q 1681 391 2138 391 
Q 2594 391 2855 752 
Q 3116 1113 3116 1747 
z
M 1159 2969 
Q 1341 3281 1617 3432 
Q 1894 3584 2278 3584 
Q 2916 3584 3314 3078 
Q 3713 2572 3713 1747 
Q 3713 922 3314 415 
Q 2916 -91 2278 -91 
Q 1894 -91 1617 61 
Q 1341 213 1159 525 
L 1159 0 
L 581 0 
L 581 4863 
L 1159 4863 
L 1159 2969 
z
" id="DejaVuSans-62" transform="scale(0.015625)"/>
      </defs>
      <use xlink:href="#DejaVuSans-4b"/>
      <use x="65.576172" xlink:href="#DejaVuSans-4e"/>
      <use x="140.380859" xlink:href="#DejaVuSans-65"/>
      <use x="201.904297" xlink:href="#DejaVuSans-69"/>
      <use x="229.6875" xlink:href="#DejaVuSans-67"/>
      <use x="293.164062" xlink:href="#DejaVuSans-68"/>
      <use x="356.542969" xlink:href="#DejaVuSans-62"/>
      <use x="420.019531" xlink:href="#DejaVuSans-6f"/>
      <use x="481.201172" xlink:href="#DejaVuSans-72"/>
      <use x="522.314453" xlink:href="#DejaVuSans-73"/>
      <use x="574.414062" xlink:href="#DejaVuSans-20"/>
      <use x="606.201172" xlink:href="#DejaVuSans-28"/>
      <use x="645.214844" xlink:href="#DejaVuSans-41"/>
      <use x="713.623047" xlink:href="#DejaVuSans-55"/>
      <use x="786.816406" xlink:href="#DejaVuSans-43"/>
      <use x="856.640625" xlink:href="#DejaVuSans-3d"/>
      <use x="940.429688" xlink:href="#DejaVuSans-30"/>
      <use x="1004.052734" xlink:href="#DejaVuSans-2e"/>
      <use x="1035.839844" xlink:href="#DejaVuSans-38"/>
      <use x="1099.462891" xlink:href="#DejaVuSans-36"/>
      <use x="1163.085938" xlink:href="#DejaVuSans-33"/>
      <use x="1226.708984" xlink:href="#DejaVuSans-29"/>
     </g>
    </g>
    <g id="line2d_52">
     <path d="M 414.015625 542.739063 
L 434.015625 542.739063 
" style="fill:none;stroke:#e27786;stroke-linecap:square;stroke-width:5;"/>
    </g>
    <g id="line2d_53"/>
    <g id="text_29">
     <!-- BernoulliNB (AUC=0.892) -->
     <g transform="translate(442.015625 546.239063)scale(0.1 -0.1)">
      <use xlink:href="#DejaVuSans-42"/>
      <use x="68.603516" xlink:href="#DejaVuSans-65"/>
      <use x="130.126953" xlink:href="#DejaVuSans-72"/>
      <use x="169.490234" xlink:href="#DejaVuSans-6e"/>
      <use x="232.869141" xlink:href="#DejaVuSans-6f"/>
      <use x="294.050781" xlink:href="#DejaVuSans-75"/>
      <use x="357.429688" xlink:href="#DejaVuSans-6c"/>
      <use x="385.212891" xlink:href="#DejaVuSans-6c"/>
      <use x="412.996094" xlink:href="#DejaVuSans-69"/>
      <use x="440.779297" xlink:href="#DejaVuSans-4e"/>
      <use x="515.583984" xlink:href="#DejaVuSans-42"/>
      <use x="584.1875" xlink:href="#DejaVuSans-20"/>
      <use x="615.974609" xlink:href="#DejaVuSans-28"/>
      <use x="654.988281" xlink:href="#DejaVuSans-41"/>
      <use x="723.396484" xlink:href="#DejaVuSans-55"/>
      <use x="796.589844" xlink:href="#DejaVuSans-43"/>
      <use x="866.414062" xlink:href="#DejaVuSans-3d"/>
      <use x="950.203125" xlink:href="#DejaVuSans-30"/>
      <use x="1013.826172" xlink:href="#DejaVuSans-2e"/>
      <use x="1045.613281" xlink:href="#DejaVuSans-38"/>
      <use x="1109.236328" xlink:href="#DejaVuSans-39"/>
      <use x="1172.859375" xlink:href="#DejaVuSans-32"/>
      <use x="1236.482422" xlink:href="#DejaVuSans-29"/>
     </g>
    </g>
    <g id="line2d_54">
     <path d="M 414.015625 557.417187 
L 434.015625 557.417187 
" style="fill:none;stroke:#d96171;stroke-linecap:square;stroke-width:5;"/>
    </g>
    <g id="line2d_55"/>
    <g id="text_30">
     <!-- GaussianNB (AUC=0.845) -->
     <g transform="translate(442.015625 560.917187)scale(0.1 -0.1)">
      <use xlink:href="#DejaVuSans-47"/>
      <use x="77.490234" xlink:href="#DejaVuSans-61"/>
      <use x="138.769531" xlink:href="#DejaVuSans-75"/>
      <use x="202.148438" xlink:href="#DejaVuSans-73"/>
      <use x="254.248047" xlink:href="#DejaVuSans-73"/>
      <use x="306.347656" xlink:href="#DejaVuSans-69"/>
      <use x="334.130859" xlink:href="#DejaVuSans-61"/>
      <use x="395.410156" xlink:href="#DejaVuSans-6e"/>
      <use x="458.789062" xlink:href="#DejaVuSans-4e"/>
      <use x="533.59375" xlink:href="#DejaVuSans-42"/>
      <use x="602.197266" xlink:href="#DejaVuSans-20"/>
      <use x="633.984375" xlink:href="#DejaVuSans-28"/>
      <use x="672.998047" xlink:href="#DejaVuSans-41"/>
      <use x="741.40625" xlink:href="#DejaVuSans-55"/>
      <use x="814.599609" xlink:href="#DejaVuSans-43"/>
      <use x="884.423828" xlink:href="#DejaVuSans-3d"/>
      <use x="968.212891" xlink:href="#DejaVuSans-30"/>
      <use x="1031.835938" xlink:href="#DejaVuSans-2e"/>
      <use x="1063.623047" xlink:href="#DejaVuSans-38"/>
      <use x="1127.246094" xlink:href="#DejaVuSans-34"/>
      <use x="1190.869141" xlink:href="#DejaVuSans-35"/>
      <use x="1254.492188" xlink:href="#DejaVuSans-29"/>
     </g>
    </g>
   </g>
  </g>
  <g id="axes_2">
   <g id="patch_7">
    <path d="M 361.820312 373.996875 
L 577.820312 373.996875 
L 577.820312 157.996875 
L 361.820312 157.996875 
z
" style="fill:#ffffff;"/>
   </g>
   <g id="matplotlib.axis_3">
    <g id="xtick_7">
     <g id="line2d_56">
      <g>
       <use style="stroke:#000000;stroke-width:0.8;" x="368.788054" xlink:href="#maf95250f71" y="373.996875"/>
      </g>
     </g>
     <g id="text_31">
      <!-- 0.00 -->
      <g transform="translate(357.655242 388.595312)scale(0.1 -0.1)">
       <use xlink:href="#DejaVuSans-30"/>
       <use x="63.623047" xlink:href="#DejaVuSans-2e"/>
       <use x="95.410156" xlink:href="#DejaVuSans-30"/>
       <use x="159.033203" xlink:href="#DejaVuSans-30"/>
      </g>
     </g>
    </g>
    <g id="xtick_8">
     <g id="line2d_57">
      <g>
       <use style="stroke:#000000;stroke-width:0.8;" x="403.626764" xlink:href="#maf95250f71" y="373.996875"/>
      </g>
     </g>
     <g id="text_32">
      <!-- 0.05 -->
      <g transform="translate(392.493952 388.595312)scale(0.1 -0.1)">
       <use xlink:href="#DejaVuSans-30"/>
       <use x="63.623047" xlink:href="#DejaVuSans-2e"/>
       <use x="95.410156" xlink:href="#DejaVuSans-30"/>
       <use x="159.033203" xlink:href="#DejaVuSans-35"/>
      </g>
     </g>
    </g>
    <g id="xtick_9">
     <g id="line2d_58">
      <g>
       <use style="stroke:#000000;stroke-width:0.8;" x="438.465474" xlink:href="#maf95250f71" y="373.996875"/>
      </g>
     </g>
     <g id="text_33">
      <!-- 0.10 -->
      <g transform="translate(427.332661 388.595312)scale(0.1 -0.1)">
       <use xlink:href="#DejaVuSans-30"/>
       <use x="63.623047" xlink:href="#DejaVuSans-2e"/>
       <use x="95.410156" xlink:href="#DejaVuSans-31"/>
       <use x="159.033203" xlink:href="#DejaVuSans-30"/>
      </g>
     </g>
    </g>
    <g id="xtick_10">
     <g id="line2d_59">
      <g>
       <use style="stroke:#000000;stroke-width:0.8;" x="473.304183" xlink:href="#maf95250f71" y="373.996875"/>
      </g>
     </g>
     <g id="text_34">
      <!-- 0.15 -->
      <g transform="translate(462.171371 388.595312)scale(0.1 -0.1)">
       <use xlink:href="#DejaVuSans-30"/>
       <use x="63.623047" xlink:href="#DejaVuSans-2e"/>
       <use x="95.410156" xlink:href="#DejaVuSans-31"/>
       <use x="159.033203" xlink:href="#DejaVuSans-35"/>
      </g>
     </g>
    </g>
    <g id="xtick_11">
     <g id="line2d_60">
      <g>
       <use style="stroke:#000000;stroke-width:0.8;" x="508.142893" xlink:href="#maf95250f71" y="373.996875"/>
      </g>
     </g>
     <g id="text_35">
      <!-- 0.20 -->
      <g transform="translate(497.010081 388.595312)scale(0.1 -0.1)">
       <use xlink:href="#DejaVuSans-30"/>
       <use x="63.623047" xlink:href="#DejaVuSans-2e"/>
       <use x="95.410156" xlink:href="#DejaVuSans-32"/>
       <use x="159.033203" xlink:href="#DejaVuSans-30"/>
      </g>
     </g>
    </g>
    <g id="xtick_12">
     <g id="line2d_61">
      <g>
       <use style="stroke:#000000;stroke-width:0.8;" x="542.981603" xlink:href="#maf95250f71" y="373.996875"/>
      </g>
     </g>
     <g id="text_36">
      <!-- 0.25 -->
      <g transform="translate(531.84879 388.595312)scale(0.1 -0.1)">
       <use xlink:href="#DejaVuSans-30"/>
       <use x="63.623047" xlink:href="#DejaVuSans-2e"/>
       <use x="95.410156" xlink:href="#DejaVuSans-32"/>
       <use x="159.033203" xlink:href="#DejaVuSans-35"/>
      </g>
     </g>
    </g>
    <g id="xtick_13">
     <g id="line2d_62">
      <g>
       <use style="stroke:#000000;stroke-width:0.8;" x="577.820312" xlink:href="#maf95250f71" y="373.996875"/>
      </g>
     </g>
     <g id="text_37">
      <!-- 0.30 -->
      <g transform="translate(566.6875 388.595312)scale(0.1 -0.1)">
       <use xlink:href="#DejaVuSans-30"/>
       <use x="63.623047" xlink:href="#DejaVuSans-2e"/>
       <use x="95.410156" xlink:href="#DejaVuSans-33"/>
       <use x="159.033203" xlink:href="#DejaVuSans-30"/>
      </g>
     </g>
    </g>
   </g>
   <g id="matplotlib.axis_4">
    <g id="ytick_7">
     <g id="line2d_63">
      <g>
       <use style="stroke:#000000;stroke-width:0.8;" x="361.820312" xlink:href="#m4c2b1d9707" y="373.996875"/>
      </g>
     </g>
     <g id="text_38">
      <!-- 0.70 -->
      <g transform="translate(332.554688 377.796094)scale(0.1 -0.1)">
       <use xlink:href="#DejaVuSans-30"/>
       <use x="63.623047" xlink:href="#DejaVuSans-2e"/>
       <use x="95.410156" xlink:href="#DejaVuSans-37"/>
       <use x="159.033203" xlink:href="#DejaVuSans-30"/>
      </g>
     </g>
    </g>
    <g id="ytick_8">
     <g id="line2d_64">
      <g>
       <use style="stroke:#000000;stroke-width:0.8;" x="361.820312" xlink:href="#m4c2b1d9707" y="339.158165"/>
      </g>
     </g>
     <g id="text_39">
      <!-- 0.75 -->
      <g transform="translate(332.554688 342.957384)scale(0.1 -0.1)">
       <use xlink:href="#DejaVuSans-30"/>
       <use x="63.623047" xlink:href="#DejaVuSans-2e"/>
       <use x="95.410156" xlink:href="#DejaVuSans-37"/>
       <use x="159.033203" xlink:href="#DejaVuSans-35"/>
      </g>
     </g>
    </g>
    <g id="ytick_9">
     <g id="line2d_65">
      <g>
       <use style="stroke:#000000;stroke-width:0.8;" x="361.820312" xlink:href="#m4c2b1d9707" y="304.319456"/>
      </g>
     </g>
     <g id="text_40">
      <!-- 0.80 -->
      <g transform="translate(332.554688 308.118674)scale(0.1 -0.1)">
       <use xlink:href="#DejaVuSans-30"/>
       <use x="63.623047" xlink:href="#DejaVuSans-2e"/>
       <use x="95.410156" xlink:href="#DejaVuSans-38"/>
       <use x="159.033203" xlink:href="#DejaVuSans-30"/>
      </g>
     </g>
    </g>
    <g id="ytick_10">
     <g id="line2d_66">
      <g>
       <use style="stroke:#000000;stroke-width:0.8;" x="361.820312" xlink:href="#m4c2b1d9707" y="269.480746"/>
      </g>
     </g>
     <g id="text_41">
      <!-- 0.85 -->
      <g transform="translate(332.554688 273.279965)scale(0.1 -0.1)">
       <use xlink:href="#DejaVuSans-30"/>
       <use x="63.623047" xlink:href="#DejaVuSans-2e"/>
       <use x="95.410156" xlink:href="#DejaVuSans-38"/>
       <use x="159.033203" xlink:href="#DejaVuSans-35"/>
      </g>
     </g>
    </g>
    <g id="ytick_11">
     <g id="line2d_67">
      <g>
       <use style="stroke:#000000;stroke-width:0.8;" x="361.820312" xlink:href="#m4c2b1d9707" y="234.642036"/>
      </g>
     </g>
     <g id="text_42">
      <!-- 0.90 -->
      <g transform="translate(332.554688 238.441255)scale(0.1 -0.1)">
       <use xlink:href="#DejaVuSans-30"/>
       <use x="63.623047" xlink:href="#DejaVuSans-2e"/>
       <use x="95.410156" xlink:href="#DejaVuSans-39"/>
       <use x="159.033203" xlink:href="#DejaVuSans-30"/>
      </g>
     </g>
    </g>
    <g id="ytick_12">
     <g id="line2d_68">
      <g>
       <use style="stroke:#000000;stroke-width:0.8;" x="361.820312" xlink:href="#m4c2b1d9707" y="199.803327"/>
      </g>
     </g>
     <g id="text_43">
      <!-- 0.95 -->
      <g transform="translate(332.554688 203.602545)scale(0.1 -0.1)">
       <use xlink:href="#DejaVuSans-30"/>
       <use x="63.623047" xlink:href="#DejaVuSans-2e"/>
       <use x="95.410156" xlink:href="#DejaVuSans-39"/>
       <use x="159.033203" xlink:href="#DejaVuSans-35"/>
      </g>
     </g>
    </g>
    <g id="ytick_13">
     <g id="line2d_69">
      <g>
       <use style="stroke:#000000;stroke-width:0.8;" x="361.820312" xlink:href="#m4c2b1d9707" y="164.964617"/>
      </g>
     </g>
     <g id="text_44">
      <!-- 1.00 -->
      <g transform="translate(332.554688 168.763836)scale(0.1 -0.1)">
       <use xlink:href="#DejaVuSans-31"/>
       <use x="63.623047" xlink:href="#DejaVuSans-2e"/>
       <use x="95.410156" xlink:href="#DejaVuSans-30"/>
       <use x="159.033203" xlink:href="#DejaVuSans-30"/>
      </g>
     </g>
    </g>
   </g>
   <g id="line2d_70">
    <path clip-path="url(#p36748f2792)" d="M 397.820312 615.392187 
L 397.820312 426.25494 
L 426.852571 426.25494 
L 426.852571 368.190423 
L 484.917087 368.190423 
L 484.917087 339.158165 
L 513.949345 339.158165 
L 513.949345 252.061391 
L 608.371875 252.061391 
" style="fill:none;stroke:#00429d;stroke-linecap:square;stroke-width:5;"/>
   </g>
   <g id="line2d_71">
    <path clip-path="url(#p36748f2792)" d="M 385.211163 615.392187 
L 397.820312 426.25494 
L 608.371875 343.865198 
" style="fill:none;stroke:#2f5aa8;stroke-linecap:square;stroke-width:5;"/>
   </g>
   <g id="line2d_72">
    <path clip-path="url(#p36748f2792)" d="M 397.820312 615.392187 
L 397.820312 368.190423 
L 426.852571 368.190423 
L 426.852571 339.158165 
L 455.884829 339.158165 
L 455.884829 310.125907 
L 513.949345 310.125907 
L 513.949345 281.093649 
L 542.981603 281.093649 
L 542.981603 252.061391 
L 601.046119 252.061391 
L 601.046119 223.029133 
L 608.371875 223.029133 
" style="fill:none;stroke:#4774b4;stroke-linecap:square;stroke-width:5;"/>
   </g>
   <g id="line2d_73">
    <path clip-path="url(#p36748f2792)" d="M 397.820312 615.392187 
L 397.820312 426.25494 
L 426.852571 426.25494 
L 426.852571 397.222681 
L 455.884829 397.222681 
L 455.884829 252.061391 
L 601.046119 252.061391 
L 601.046119 223.029133 
L 608.371875 223.029133 
" style="fill:none;stroke:#5c8ebf;stroke-linecap:square;stroke-width:5;"/>
   </g>
   <g id="line2d_74">
    <path clip-path="url(#p36748f2792)" d="M 397.820312 615.392187 
L 397.820312 455.287198 
L 426.852571 455.287198 
L 426.852571 397.222681 
L 455.884829 397.222681 
L 455.884829 368.190423 
L 484.917087 368.190423 
L 484.917087 310.125907 
L 513.949345 310.125907 
L 513.949345 281.093649 
L 608.371875 281.093649 
" style="fill:none;stroke:#6fa9ca;stroke-linecap:square;stroke-width:5;"/>
   </g>
   <g id="line2d_75">
    <path clip-path="url(#p36748f2792)" d="M 382.473978 615.392187 
L 397.820312 339.158165 
L 608.371875 284.231671 
" style="fill:none;stroke:#83c4d5;stroke-linecap:square;stroke-width:5;"/>
   </g>
   <g id="line2d_76">
    <path clip-path="url(#p36748f2792)" d="M 368.788054 615.392187 
L 368.788054 542.383972 
L 397.820312 542.383972 
L 397.820312 455.287198 
L 397.820312 397.222681 
L 397.820312 339.158165 
L 455.884829 339.158165 
L 455.884829 310.125907 
L 455.884829 252.061391 
L 513.949345 252.061391 
L 513.949345 223.029133 
L 572.013861 223.029133 
L 572.013861 193.996875 
L 608.371875 193.996875 
" style="fill:none;stroke:#99e0e0;stroke-linecap:square;stroke-width:5;"/>
   </g>
   <g id="line2d_77">
    <path clip-path="url(#p36748f2792)" d="M 393.422717 615.392187 
L 397.820312 571.41623 
L 397.820312 397.222681 
L 426.852571 368.190423 
L 484.917087 310.125907 
L 513.949345 281.093649 
L 572.013861 252.061391 
L 608.371875 227.822715 
" style="fill:none;stroke:#c0f8ec;stroke-linecap:square;stroke-width:5;"/>
   </g>
   <g id="line2d_78">
    <path clip-path="url(#p36748f2792)" d="M 397.820312 615.392187 
L 397.820312 339.158165 
L 426.852571 339.158165 
L 426.852571 252.061391 
L 513.949345 252.061391 
L 513.949345 223.029133 
L 542.981603 223.029133 
L 542.981603 193.996875 
L 608.371875 193.996875 
" style="fill:none;stroke:#fccbe5;stroke-linecap:square;stroke-width:5;"/>
   </g>
   <g id="line2d_79">
    <path clip-path="url(#p36748f2792)" d="M 397.820312 615.392187 
L 397.820312 310.125907 
L 513.949345 310.125907 
L 513.949345 223.029133 
L 572.013861 164.964617 
L 608.371875 164.964617 
" style="fill:none;stroke:#f7b6cc;stroke-linecap:square;stroke-width:5;"/>
   </g>
   <g id="line2d_80">
    <path clip-path="url(#p36748f2792)" d="M 368.788054 615.392187 
L 368.788054 571.41623 
L 397.820312 571.41623 
L 397.820312 368.190423 
L 426.852571 368.190423 
L 426.852571 339.158165 
L 455.884829 339.158165 
L 455.884829 310.125907 
L 513.949345 310.125907 
L 513.949345 281.093649 
L 542.981603 281.093649 
L 542.981603 193.996875 
L 572.013861 193.996875 
L 572.013861 164.964617 
L 608.371875 164.964617 
" style="fill:none;stroke:#f1a1b4;stroke-linecap:square;stroke-width:5;"/>
   </g>
   <g id="line2d_81">
    <path clip-path="url(#p36748f2792)" d="M 397.77001 615.392187 
L 426.852571 368.190423 
L 426.852571 281.093649 
L 484.917087 281.093649 
L 608.371875 256.402692 
" style="fill:none;stroke:#ea8c9c;stroke-linecap:square;stroke-width:5;"/>
   </g>
   <g id="line2d_82">
    <path clip-path="url(#p36748f2792)" d="M 368.788054 615.392187 
L 368.788054 542.383972 
L 397.820312 542.383972 
L 397.820312 513.351714 
L 426.852571 513.351714 
L 426.852571 397.222681 
L 455.884829 397.222681 
L 455.884829 368.190423 
L 484.917087 368.190423 
L 484.917087 310.125907 
L 513.949345 310.125907 
L 513.949345 252.061391 
L 601.046119 252.061391 
L 601.046119 223.029133 
L 608.371875 223.029133 
" style="fill:none;stroke:#e27786;stroke-linecap:square;stroke-width:5;"/>
   </g>
   <g id="line2d_83">
    <path clip-path="url(#p36748f2792)" d="M 368.788054 615.392187 
L 368.788054 571.41623 
L 397.820312 571.41623 
L 397.820312 513.351714 
L 426.852571 513.351714 
L 426.852571 455.287198 
L 455.884829 455.287198 
L 455.884829 397.222681 
L 484.917087 339.158165 
L 484.917087 310.125907 
L 542.981603 310.125907 
L 608.371875 310.125907 
" style="fill:none;stroke:#d96171;stroke-linecap:square;stroke-width:5;"/>
   </g>
   <g id="patch_8">
    <path d="M 361.820312 373.996875 
L 361.820312 157.996875 
" style="fill:none;stroke:#000000;stroke-linecap:square;stroke-linejoin:miter;stroke-width:0.8;"/>
   </g>
   <g id="patch_9">
    <path d="M 577.820312 373.996875 
L 577.820312 157.996875 
" style="fill:none;stroke:#000000;stroke-linecap:square;stroke-linejoin:miter;stroke-width:0.8;"/>
   </g>
   <g id="patch_10">
    <path d="M 361.820312 373.996875 
L 577.820312 373.996875 
" style="fill:none;stroke:#000000;stroke-linecap:square;stroke-linejoin:miter;stroke-width:0.8;"/>
   </g>
   <g id="patch_11">
    <path d="M 361.820312 157.996875 
L 577.820312 157.996875 
" style="fill:none;stroke:#000000;stroke-linecap:square;stroke-linejoin:miter;stroke-width:0.8;"/>
   </g>
  </g>
 </g>
 <defs>
  <clipPath id="pf5c2368727">
   <rect height="543.6" width="543.6" x="48.620313" y="28.396875"/>
  </clipPath>
  <clipPath id="p36748f2792">
   <rect height="216" width="216" x="361.820312" y="157.996875"/>
  </clipPath>
 </defs>
</svg>
