<svg width="5027" height="2119" xmlns="http://www.w3.org/2000/svg" xmlns:xlink="http://www.w3.org/1999/xlink" overflow="hidden"><defs><filter id="fx0" x="-10%" y="-10%" width="120%" height="120%" filterUnits="userSpaceOnUse" primitiveUnits="userSpaceOnUse"><feComponentTransfer color-interpolation-filters="sRGB"><feFuncR type="discrete" tableValues="0.498039 0.498039"/><feFuncG type="discrete" tableValues="0.498039 0.498039"/><feFuncB type="discrete" tableValues="0.498039 0.498039"/><feFuncA type="linear" slope="0.0784314" intercept="0"/></feComponentTransfer><feGaussianBlur stdDeviation="7.6356 7.63889"/></filter><filter id="fx1" x="-10%" y="-10%" width="120%" height="120%" filterUnits="userSpaceOnUse" primitiveUnits="userSpaceOnUse"><feComponentTransfer color-interpolation-filters="sRGB"><feFuncR type="discrete" tableValues="0.498039 0.498039"/><feFuncG type="discrete" tableValues="0.498039 0.498039"/><feFuncB type="discrete" tableValues="0.498039 0.498039"/><feFuncA type="linear" slope="0.0784314" intercept="0"/></feComponentTransfer><feGaussianBlur stdDeviation="7.68356 7.63889"/></filter><clipPath id="clip2"><rect x="-290" y="-17" width="5027" height="2119"/></clipPath><clipPath id="clip3"><rect x="-7.49677" y="-7.5" width="785.994" height="339"/></clipPath><clipPath id="clip4"><rect x="0" y="0" width="773" height="323"/></clipPath><clipPath id="clip5"><rect x="4.52631" y="4.49999" width="75.9415" height="68"/></clipPath><clipPath id="clip6"><rect x="0" y="0" width="86" height="80"/></clipPath><clipPath id="clip7"><rect x="435" y="465" width="2677" height="1612"/></clipPath></defs><g clip-path="url(#clip2)" transform="translate(290 17)"><rect x="351" y="152" width="3896" height="1611" fill="#7F7F7F" fill-opacity="0.101961"/><rect x="440" y="800" width="2655" height="301" fill="#4472C4"/><g clip-path="url(#clip3)" filter="url(#fx0)" transform="matrix(6.00259 0 0 6 98 -18)"><g clip-path="url(#clip4)"><path d="M23.1289 33.3617C23.1289 27.7311 27.6914 23.1667 33.3196 23.1667L739.625 23.1667C745.253 23.1667 749.816 27.7311 749.816 33.3617L749.816 289.638C749.816 295.269 745.253 299.833 739.625 299.833L33.3196 299.833C27.6914 299.833 23.1289 295.269 23.1289 289.638Z" fill="#FFFFFF" fill-rule="evenodd"/></g></g><g clip-path="url(#clip5)" filter="url(#fx1)" transform="matrix(5.96512 0 0 6 2172 726)"><g clip-path="url(#clip6)" transform="translate(-5.68434e-14 0)"><path d="M44.9531-33.0937C44.9531-30.625 44.8281-28.0703 44.5781-25.4297 44.3281-22.7891 43.8516-20.2031 43.1484-17.6719 42.4453-15.1406 41.4766-12.7344 40.2422-10.4531 39.0078-8.17187 37.4141-6.17969 35.4609-4.47656 33.5078-2.77344 31.1328-1.42187 28.3359-0.421875 25.5391 0.578125 22.2344 1.07812 18.4219 1.07812 17.0781 1.07812 15.7422 0.984375 14.4141 0.796875 13.0859 0.609375 11.875 0.375 10.7812 0.09375 9.6875-0.1875 8.75781-0.484375 7.99219-0.796875 7.22656-1.10937 6.67187-1.42969 6.32812-1.75781 5.98437-2.08594 5.73437-2.5625 5.57812-3.1875 5.42187-3.8125 5.34375-4.6875 5.34375-5.8125 5.34375-6.84375 5.36719-7.67187 5.41406-8.29687 5.46094-8.92187 5.55469-9.40625 5.69531-9.75 5.83594-10.0937 6.00781-10.3203 6.21094-10.4297 6.41406-10.5391 6.65625-10.5937 6.9375-10.5937 7.3125-10.5937 7.84375-10.4844 8.53125-10.2656 9.21875-10.0469 10.0547-9.79687 11.0391-9.51562 12.0234-9.23437 13.1406-8.98437 14.3906-8.76562 15.6406-8.54687 17.0312-8.4375 18.5625-8.4375 21.1875-8.4375 23.4062-8.90625 25.2187-9.84375 27.0312-10.7812 28.5-12.0469 29.625-13.6406 30.75-15.2344 31.5781-17.0781 32.1094-19.1719 32.6406-21.2656 32.9375-23.4687 33-25.7812 31.5625-24.875 29.8281-24.0859 27.7969-23.4141 25.7656-22.7422 23.4375-22.4062 20.8125-22.4062 17.5937-22.4062 14.8594-22.8281 12.6094-23.6719 10.3594-24.5156 8.53125-25.7344 7.125-27.3281 5.71875-28.9219 4.69531-30.8594 4.05469-33.1406 3.41406-35.4219 3.09375-38 3.09375-40.875 3.09375-43.9062 3.54687-46.6953 4.45312-49.2422 5.35937-51.7891 6.70312-53.9922 8.48437-55.8516 10.2656-57.7109 12.4844-59.1562 15.1406-60.1875 17.7969-61.2187 20.875-61.7344 24.375-61.7344 27.1875-61.7344 29.6484-61.4062 31.7578-60.75 33.8672-60.0937 35.6797-59.1562 37.1953-57.9375 38.7109-56.7187 39.9766-55.2422 40.9922-53.5078 42.0078-51.7734 42.8047-49.8437 43.3828-47.7187 43.9609-45.5937 44.3672-43.2969 44.6016-40.8281 44.8359-38.3594 44.9531-35.7812 44.9531-33.0937ZM32.7187-34.7812C32.7187-38.125 32.5312-40.9219 32.1562-43.1719 31.7812-45.4219 31.2187-47.2187 30.4687-48.5625 29.7187-49.9062 28.7812-50.8594 27.6562-51.4219 26.5312-51.9844 25.2187-52.2656 23.7187-52.2656 22.25-52.2656 20.9844-52.0078 19.9219-51.4922 18.8594-50.9766 17.9766-50.25 17.2734-49.3125 16.5703-48.375 16.0469-47.2656 15.7031-45.9844 15.3594-44.7031 15.1875-43.2969 15.1875-41.7656 15.1875-40.1094 15.3359-38.6484 15.6328-37.3828 15.9297-36.1172 16.3984-35.0703 17.0391-34.2422 17.6797-33.4141 18.5156-32.7969 19.5469-32.3906 20.5781-31.9844 21.8281-31.7812 23.2969-31.7812 25.1094-31.7812 26.8203-32.0547 28.4297-32.6016 30.0391-33.1484 31.4687-33.875 32.7187-34.7812ZM94.7292-30.5625C94.7292-25.7187 94.3385-21.3437 93.5573-17.4375 92.776-13.5312 91.5026-10.2031 89.737-7.45312 87.9713-4.70312 85.6745-2.59375 82.8463-1.125 80.0182 0.34375 76.5573 1.07812 72.4635 1.07812 68.3073 1.07812 64.8698 0.367187 62.151-1.05469 59.4323-2.47656 57.276-4.52344 55.6823-7.19531 54.0885-9.86719 52.9714-13.1328 52.3307-16.9922 51.6901-20.8516 51.3698-25.2187 51.3698-30.0937 51.3698-34.9062 51.7682-39.2734 52.5651-43.1953 53.362-47.1172 54.6432-50.4531 56.4089-53.2031 58.1745-55.9531 60.4714-58.0625 63.2995-59.5312 66.1276-61 69.5729-61.7344 73.6354-61.7344 77.7917-61.7344 81.237-61.0234 83.9713-59.6016 86.7057-58.1797 88.8698-56.1328 90.4635-53.4609 92.0573-50.7891 93.1667-47.5234 93.7917-43.6641 94.4167-39.8047 94.7292-35.4375 94.7292-30.5625ZM82.3073-29.9531C82.3073-32.8281 82.2292-35.3672 82.0729-37.5703 81.9167-39.7734 81.6745-41.6875 81.3463-43.3125 81.0182-44.9375 80.612-46.3125 80.1276-47.4375 79.6432-48.5625 79.0573-49.4609 78.3698-50.1328 77.6823-50.8047 76.901-51.2812 76.026-51.5625 75.151-51.8437 74.1823-51.9844 73.1198-51.9844 71.276-51.9844 69.7526-51.5391 68.5495-50.6484 67.3464-49.7578 66.3932-48.4219 65.6901-46.6406 64.987-44.8594 64.4948-42.6406 64.2135-39.9844 63.9323-37.3281 63.7917-34.2344 63.7917-30.7031 63.7917-26.3906 63.9635-22.8203 64.3073-19.9922 64.651-17.1641 65.1901-14.9141 65.9245-13.2422 66.6589-11.5703 67.6042-10.3984 68.7604-9.72656 69.9167-9.05469 71.3073-8.71875 72.9323-8.71875 74.151-8.71875 75.2292-8.91406 76.1667-9.30469 77.1042-9.69531 77.9245-10.2812 78.6276-11.0625 79.3307-11.8437 79.9167-12.8281 80.3854-14.0156 80.8542-15.2031 81.237-16.5781 81.5338-18.1406 81.8307-19.7031 82.0338-21.4687 82.1432-23.4375 82.2526-25.4062 82.3073-27.5781 82.3073-29.9531Z" fill="#FFFFFF" transform="matrix(0.167641 0 0 0.166667 33.04 43)"/></g></g><path d="M191 182.17C191 148.387 218.387 121 252.17 121L4491.83 121C4525.61 121 4553 148.387 4553 182.17L4553 1719.83C4553 1753.61 4525.61 1781 4491.83 1781L252.17 1781C218.387 1781 191 1753.61 191 1719.83Z" fill="#FFFFFF" fill-rule="evenodd"/><text fill="#FFFFFF" font-family="Calibri,Calibri_MSFontService,sans-serif" font-weight="700" font-size="96" transform="matrix(1 0 0 1 2323.25 984)">90 <tspan fill="#000000" font-family="Arial,Arial_MSFontService,sans-serif" font-size="154" x="-1680.5" y="-576">Feature screening funnel chart</tspan></text><rect x="412" y="442" width="2724" height="1659" fill="#000000" fill-opacity="0"/><g clip-path="url(#clip7)"><rect x="438" y="477" width="2672" height="302" fill="#2A557F"/><rect x="779" y="798" width="1989" height="303" fill="#45BC9C"/><rect x="1529" y="1120" width="490" height="302" fill="#F05076"/><rect x="1736" y="1441" width="76" height="303" fill="#FFCD6D"/><text fill="#FFFFFF" font-family="Arial,Arial_MSFontService,sans-serif" font-weight="700" font-size="32" transform="matrix(3.4375 0 0 3.4375 1681.17 564.298)" x="0.0886364" y="8.94536">278<tspan font-size="32" x="0.0886719" y="102.412">207</tspan><tspan font-size="32" x="9.04656" y="195.879">51</tspan><tspan font-size="32" x="18.0044" y="289.431">8</tspan></text></g><path d="M411 442 3136.7 442 3136.7 2102 411 2102Z" fill="#000000" fill-rule="evenodd" fill-opacity="0"/><text fill="#2A557F" font-family="Times New Roman,Times New Roman_MSFontService,sans-serif" font-weight="700" font-size="53" transform="matrix(1 0 0 1 3476.18 674)">Rdkit<tspan font-size="53" x="142.656" y="0">descriptors(208)</tspan><tspan font-size="53" x="0" y="64">Amine acids attributes</tspan><tspan font-size="53" x="0" y="127">Knowledge</tspan><tspan font-size="53" x="252.656" y="127">-</tspan><tspan font-size="53" x="270.417" y="127">guide attributes</tspan><tspan font-family="Arial,Arial_MSFontService,sans-serif" font-size="116" x="-29.5344" y="-117">All Descriptors</tspan></text><path d="M3381.5 628.5C3381.5 611.931 3393.81 598.5 3409 598.5 3424.19 598.5 3436.5 611.931 3436.5 628.5 3436.5 645.069 3424.19 658.5 3409 658.5 3393.81 658.5 3381.5 645.069 3381.5 628.5Z" stroke="#2A557F" stroke-width="4.58333" stroke-miterlimit="8" fill="#2A557F" fill-rule="evenodd"/><text fill="#45BC9C" font-family="Times New Roman,Times New Roman_MSFontService,sans-serif" font-weight="700" font-size="53" transform="matrix(1 0 0 1 3354.2 1067)">Discard descriptors with 0 variance<tspan font-family="Arial,Arial_MSFontService,sans-serif" font-size="116" x="-10.2119" y="-78">Variance Test</tspan></text><path d="M3237.5 949C3237.5 933.812 3250.04 921.5 3265.5 921.5 3280.96 921.5 3293.5 933.812 3293.5 949 3293.5 964.188 3280.96 976.5 3265.5 976.5 3250.04 976.5 3237.5 964.188 3237.5 949Z" stroke="#45BC9C" stroke-width="4.58333" stroke-miterlimit="8" fill="#45BC9C" fill-rule="evenodd"/><text fill="#F05076" font-family="Times New Roman,Times New Roman_MSFontService,sans-serif" font-weight="700" font-size="53" transform="matrix(1 0 0 1 3017.27 1348)">P<tspan font-size="53" x="32.0833" y="0">-</tspan><tspan font-size="53" x="49.8438" y="0">Value =&lt; 0.0001, Very significant</tspan><tspan font-family="Arial,Arial_MSFontService,sans-serif" font-size="116" x="11.8491" y="-116">K</tspan><tspan font-family="Arial,Arial_MSFontService,sans-serif" font-size="116" x="95.4949" y="-116">-</tspan><tspan font-family="Arial,Arial_MSFontService,sans-serif" font-size="116" x="133.88" y="-116">Q &amp; T test</tspan></text><path d="M2885.5 1283.5C2885.5 1266.93 2898.93 1253.5 2915.5 1253.5 2932.07 1253.5 2945.5 1266.93 2945.5 1283.5 2945.5 1300.07 2932.07 1313.5 2915.5 1313.5 2898.93 1313.5 2885.5 1300.07 2885.5 1283.5Z" stroke="#F05076" stroke-width="4.58333" stroke-miterlimit="8" fill="#F05076" fill-rule="evenodd"/><text fill="#FFCD6D" font-family="Times New Roman,Times New Roman_MSFontService,sans-serif" font-weight="700" font-size="53" transform="matrix(1 0 0 1 2776.96 1606)">'BCUT2D_MWLOW', 'PEOE_VSA14', 'SMR_VSA1', <tspan font-size="53" x="0" y="64">'MinEStateIndex', 'VSA_EState5', 'VSA_EState6', </tspan><tspan font-size="53" x="0" y="127">'VSA_EState7', 'MolLogP'</tspan><tspan font-family="Arial,Arial_MSFontService,sans-serif" font-size="116" x="-13.4866" y="-111">Fearure</tspan><tspan font-family="Arial,Arial_MSFontService,sans-serif" font-size="116" x="441.409" y="-111">Importances</tspan></text><path d="M2655.5 1599.5C2655.5 1582.93 2668.93 1569.5 2685.5 1569.5 2702.07 1569.5 2715.5 1582.93 2715.5 1599.5 2715.5 1616.07 2702.07 1629.5 2685.5 1629.5 2668.93 1629.5 2655.5 1616.07 2655.5 1599.5Z" stroke="#FFCD6D" stroke-width="4.58333" stroke-miterlimit="8" fill="#FFCD6D" fill-rule="evenodd"/><path d="M3117.5 630.5 3385.19 630.5" stroke="#2A557F" stroke-width="20.625" stroke-miterlimit="8" fill="none" fill-rule="evenodd"/><path d="M2794.5 955.5 3252.77 955.5" stroke="#45BC9C" stroke-width="20.625" stroke-miterlimit="8" fill="none" fill-rule="evenodd"/><path d="M2166.5 1282.5 2887.93 1282.5" stroke="#F05076" stroke-width="20.625" stroke-miterlimit="8" fill="none" fill-rule="evenodd"/><path d="M1867.5 1598.5 2659.16 1598.5" stroke="#FFCD6D" stroke-width="20.625" stroke-miterlimit="8" fill="none" fill-rule="evenodd"/></g></svg>