<svg width="4637" height="2334" xmlns="http://www.w3.org/2000/svg" xmlns:xlink="http://www.w3.org/1999/xlink" overflow="hidden"><defs><filter id="fx0" x="-10%" y="-10%" width="120%" height="120%" filterUnits="userSpaceOnUse" primitiveUnits="userSpaceOnUse"><feComponentTransfer color-interpolation-filters="sRGB"><feFuncR type="discrete" tableValues="0.498039 0.498039"/><feFuncG type="discrete" tableValues="0.498039 0.498039"/><feFuncB type="discrete" tableValues="0.498039 0.498039"/><feFuncA type="linear" slope="0.0784314" intercept="0"/></feComponentTransfer><feGaussianBlur stdDeviation="7.63724 7.63889"/></filter><filter id="fx1" x="-10%" y="-10%" width="120%" height="120%" filterUnits="userSpaceOnUse" primitiveUnits="userSpaceOnUse"><feComponentTransfer color-interpolation-filters="sRGB"><feFuncR type="discrete" tableValues="0.498039 0.498039"/><feFuncG type="discrete" tableValues="0.498039 0.498039"/><feFuncB type="discrete" tableValues="0.498039 0.498039"/><feFuncA type="linear" slope="0.0784314" intercept="0"/></feComponentTransfer><feGaussianBlur stdDeviation="7.66861 7.63889"/></filter><clipPath id="clip2"><rect x="-24" y="525" width="4637" height="2334"/></clipPath><clipPath id="clip3"><rect x="-7.49838" y="-7.50001" width="785.997" height="339"/></clipPath><clipPath id="clip4"><rect x="0" y="0" width="773" height="323"/></clipPath><clipPath id="clip5"><rect x="4.51752" y="4.49998" width="75.9611" height="68"/></clipPath><clipPath id="clip6"><rect x="0" y="0" width="86" height="80"/></clipPath><clipPath id="clip7"><rect x="311" y="1222" width="2677" height="1612"/></clipPath></defs><g clip-path="url(#clip2)" transform="translate(24 -525)"><rect x="227" y="909" width="3896" height="1611" fill="#7F7F7F" fill-opacity="0.101961"/><rect x="316" y="1557" width="2655" height="300" fill="#4472C4"/><g clip-path="url(#clip3)" filter="url(#fx0)" transform="matrix(6.00129 0 0 6 -25 739)"><g clip-path="url(#clip4)" transform="matrix(1 0 0 1 0 -1.42109e-14)"><path d="M23.1339 33.3617C23.1339 27.7311 27.6974 23.1667 33.3268 23.1667L739.618 23.1667C745.247 23.1667 749.81 27.7311 749.81 33.3617L749.81 289.638C749.81 295.269 745.247 299.833 739.618 299.833L33.3268 299.833C27.6974 299.833 23.1339 295.269 23.1339 289.638Z" fill="#FFFFFF" fill-rule="evenodd"/></g></g><g clip-path="url(#clip5)" filter="url(#fx1)" transform="matrix(5.97674 0 0 6 2048 1482)"><g clip-path="url(#clip6)"><path d="M44.9531-33.0937C44.9531-30.625 44.8281-28.0703 44.5781-25.4297 44.3281-22.7891 43.8516-20.2031 43.1484-17.6719 42.4453-15.1406 41.4766-12.7344 40.2422-10.4531 39.0078-8.17187 37.4141-6.17969 35.4609-4.47656 33.5078-2.77344 31.1328-1.42187 28.3359-0.421875 25.5391 0.578125 22.2344 1.07812 18.4219 1.07812 17.0781 1.07812 15.7422 0.984375 14.4141 0.796875 13.0859 0.609375 11.875 0.375 10.7812 0.09375 9.6875-0.1875 8.75781-0.484375 7.99219-0.796875 7.22656-1.10937 6.67187-1.42969 6.32812-1.75781 5.98437-2.08594 5.73437-2.5625 5.57812-3.1875 5.42187-3.8125 5.34375-4.6875 5.34375-5.8125 5.34375-6.84375 5.36719-7.67187 5.41406-8.29687 5.46094-8.92187 5.55469-9.40625 5.69531-9.75 5.83594-10.0937 6.00781-10.3203 6.21094-10.4297 6.41406-10.5391 6.65625-10.5937 6.9375-10.5937 7.3125-10.5937 7.84375-10.4844 8.53125-10.2656 9.21875-10.0469 10.0547-9.79687 11.0391-9.51562 12.0234-9.23437 13.1406-8.98437 14.3906-8.76562 15.6406-8.54687 17.0312-8.4375 18.5625-8.4375 21.1875-8.4375 23.4062-8.90625 25.2187-9.84375 27.0312-10.7812 28.5-12.0469 29.625-13.6406 30.75-15.2344 31.5781-17.0781 32.1094-19.1719 32.6406-21.2656 32.9375-23.4687 33-25.7812 31.5625-24.875 29.8281-24.0859 27.7969-23.4141 25.7656-22.7422 23.4375-22.4062 20.8125-22.4062 17.5937-22.4062 14.8594-22.8281 12.6094-23.6719 10.3594-24.5156 8.53125-25.7344 7.125-27.3281 5.71875-28.9219 4.69531-30.8594 4.05469-33.1406 3.41406-35.4219 3.09375-38 3.09375-40.875 3.09375-43.9062 3.54687-46.6953 4.45312-49.2422 5.35937-51.7891 6.70312-53.9922 8.48437-55.8516 10.2656-57.7109 12.4844-59.1562 15.1406-60.1875 17.7969-61.2187 20.875-61.7344 24.375-61.7344 27.1875-61.7344 29.6484-61.4062 31.7578-60.75 33.8672-60.0937 35.6797-59.1562 37.1953-57.9375 38.7109-56.7187 39.9766-55.2422 40.9922-53.5078 42.0078-51.7734 42.8047-49.8437 43.3828-47.7187 43.9609-45.5937 44.3672-43.2969 44.6016-40.8281 44.8359-38.3594 44.9531-35.7812 44.9531-33.0937ZM32.7187-34.7812C32.7187-38.125 32.5312-40.9219 32.1562-43.1719 31.7812-45.4219 31.2187-47.2187 30.4687-48.5625 29.7187-49.9062 28.7812-50.8594 27.6562-51.4219 26.5312-51.9844 25.2187-52.2656 23.7187-52.2656 22.25-52.2656 20.9844-52.0078 19.9219-51.4922 18.8594-50.9766 17.9766-50.25 17.2734-49.3125 16.5703-48.375 16.0469-47.2656 15.7031-45.9844 15.3594-44.7031 15.1875-43.2969 15.1875-41.7656 15.1875-40.1094 15.3359-38.6484 15.6328-37.3828 15.9297-36.1172 16.3984-35.0703 17.0391-34.2422 17.6797-33.4141 18.5156-32.7969 19.5469-32.3906 20.5781-31.9844 21.8281-31.7812 23.2969-31.7812 25.1094-31.7812 26.8203-32.0547 28.4297-32.6016 30.0391-33.1484 31.4687-33.875 32.7187-34.7812ZM94.7292-30.5625C94.7292-25.7187 94.3385-21.3437 93.5573-17.4375 92.776-13.5312 91.5026-10.2031 89.737-7.45312 87.9713-4.70312 85.6745-2.59375 82.8463-1.125 80.0182 0.34375 76.5573 1.07812 72.4635 1.07812 68.3073 1.07812 64.8698 0.367187 62.151-1.05469 59.4323-2.47656 57.276-4.52344 55.6823-7.19531 54.0885-9.86719 52.9714-13.1328 52.3307-16.9922 51.6901-20.8516 51.3698-25.2187 51.3698-30.0937 51.3698-34.9062 51.7682-39.2734 52.5651-43.1953 53.362-47.1172 54.6432-50.4531 56.4089-53.2031 58.1745-55.9531 60.4714-58.0625 63.2995-59.5312 66.1276-61 69.5729-61.7344 73.6354-61.7344 77.7917-61.7344 81.237-61.0234 83.9713-59.6016 86.7057-58.1797 88.8698-56.1328 90.4635-53.4609 92.0573-50.7891 93.1667-47.5234 93.7917-43.6641 94.4167-39.8047 94.7292-35.4375 94.7292-30.5625ZM82.3073-29.9531C82.3073-32.8281 82.2292-35.3672 82.0729-37.5703 81.9167-39.7734 81.6745-41.6875 81.3463-43.3125 81.0182-44.9375 80.612-46.3125 80.1276-47.4375 79.6432-48.5625 79.0573-49.4609 78.3698-50.1328 77.6823-50.8047 76.901-51.2812 76.026-51.5625 75.151-51.8437 74.1823-51.9844 73.1198-51.9844 71.276-51.9844 69.7526-51.5391 68.5495-50.6484 67.3464-49.7578 66.3932-48.4219 65.6901-46.6406 64.987-44.8594 64.4948-42.6406 64.2135-39.9844 63.9323-37.3281 63.7917-34.2344 63.7917-30.7031 63.7917-26.3906 63.9635-22.8203 64.3073-19.9922 64.651-17.1641 65.1901-14.9141 65.9245-13.2422 66.6589-11.5703 67.6042-10.3984 68.7604-9.72656 69.9167-9.05469 71.3073-8.71875 72.9323-8.71875 74.151-8.71875 75.2292-8.91406 76.1667-9.30469 77.1042-9.69531 77.9245-10.2812 78.6276-11.0625 79.3307-11.8437 79.9167-12.8281 80.3854-14.0156 80.8542-15.2031 81.237-16.5781 81.5338-18.1406 81.8307-19.7031 82.0338-21.4687 82.1432-23.4375 82.2526-25.4062 82.3073-27.5781 82.3073-29.9531Z" fill="#FFFFFF" transform="matrix(0.167315 0 0 0.166667 33.0176 43)"/></g></g><path d="M68.0001 939.17C68.0001 905.387 95.387 878 129.17 878L4367.83 878C4401.61 878 4429 905.387 4429 939.17L4429 2476.83C4429 2510.61 4401.61 2538 4367.83 2538L129.17 2538C95.387 2538 68.0001 2510.61 68.0001 2476.83Z" fill="#FFFFFF" fill-rule="evenodd"/><text fill="#FFFFFF" font-family="Calibri,Calibri_MSFontService,sans-serif" font-weight="700" font-size="96" transform="matrix(1 0 0 1 2199.5 1740)">90 </text><rect x="288" y="1199" width="2724" height="1659" fill="#000000" fill-opacity="0"/><g clip-path="url(#clip7)"><rect x="314" y="1234" width="2672" height="302" fill="#2A557F"/><rect x="655" y="1555" width="1989" height="303" fill="#45BC9C"/><rect x="1405" y="1877" width="490" height="302" fill="#F05076"/><rect x="1612" y="2198" width="76" height="303" fill="#FFCD6D"/><text fill="#FFFFFF" font-family="Arial,Arial_MSFontService,sans-serif" font-weight="700" font-size="32" transform="matrix(3.4375 0 0 3.4375 1557.17 1321.3)" x="0.0886364" y="8.94536">278<tspan font-size="32" x="0.0886719" y="102.412">207</tspan><tspan font-size="32" x="9.04656" y="195.879">51</tspan><tspan font-size="32" x="18.0044" y="289.431">8</tspan></text></g><path d="M288 1198 3013.7 1198 3013.7 2858 288 2858Z" fill="#000000" fill-rule="evenodd" fill-opacity="0"/><text fill="#2A557F" font-family="Times New Roman,Times New Roman_MSFontService,sans-serif" font-weight="700" font-size="110" transform="matrix(1 0 0 1 3333.85 1120)">Rdkit<tspan font-size="110" x="296.771" y="0">descriptors(208)</tspan><tspan font-size="110" x="0" y="132">Amine acids attributes</tspan><tspan font-size="110" x="0" y="264">Knowledge</tspan>-<tspan font-size="110" x="562.031" y="264">guide </tspan><tspan font-size="110" x="0" y="396">attributes</tspan></text><path d="M3257.5 1384.5C3257.5 1367.93 3269.81 1354.5 3285 1354.5 3300.19 1354.5 3312.5 1367.93 3312.5 1384.5 3312.5 1401.07 3300.19 1414.5 3285 1414.5 3269.81 1414.5 3257.5 1401.07 3257.5 1384.5Z" stroke="#2A557F" stroke-width="4.58333" stroke-miterlimit="8" fill="#2A557F" fill-rule="evenodd"/><text fill="#45BC9C" font-family="Times New Roman,Times New Roman_MSFontService,sans-serif" font-weight="700" font-size="110" transform="matrix(1 0 0 1 3262.4 1708)">Discard descriptors <tspan font-size="110" x="0" y="132">with 0 variance</tspan></text><path d="M3113.5 1705C3113.5 1689.81 3126.04 1677.5 3141.5 1677.5 3156.96 1677.5 3169.5 1689.81 3169.5 1705 3169.5 1720.19 3156.96 1732.5 3141.5 1732.5 3126.04 1732.5 3113.5 1720.19 3113.5 1705Z" stroke="#45BC9C" stroke-width="4.58333" stroke-miterlimit="8" fill="#45BC9C" fill-rule="evenodd"/><text fill="#F05076" font-family="Times New Roman,Times New Roman_MSFontService,sans-serif" font-weight="700" font-size="110" transform="matrix(1 0 0 1 2881.36 2104)">P<tspan font-size="110" x="67.0313" y="0">-</tspan><tspan font-size="110" x="103.698" y="0">Value =&lt; </tspan><tspan font-size="110" x="558.594" y="0">0.0001 </tspan><tspan font-size="110" x="0" y="132">Very </tspan><tspan font-size="110" x="259.531" y="132">significant</tspan></text><path d="M2761.5 2039.5C2761.5 2022.93 2774.93 2009.5 2791.5 2009.5 2808.07 2009.5 2821.5 2022.93 2821.5 2039.5 2821.5 2056.07 2808.07 2069.5 2791.5 2069.5 2774.93 2069.5 2761.5 2056.07 2761.5 2039.5Z" stroke="#F05076" stroke-width="4.58333" stroke-miterlimit="8" fill="#F05076" fill-rule="evenodd"/><text fill="#FFCD6D" font-family="Arial,Arial_MSFontService,sans-serif" font-weight="700" font-size="128" transform="matrix(1 0 0 1 2662.16 2428)">Fearure<tspan font-size="128" x="507.031" y="0">Importances</tspan></text><path d="M2531.5 2355.5C2531.5 2338.93 2545.16 2325.5 2562 2325.5 2578.84 2325.5 2592.5 2338.93 2592.5 2355.5 2592.5 2372.07 2578.84 2385.5 2562 2385.5 2545.16 2385.5 2531.5 2372.07 2531.5 2355.5Z" stroke="#FFCD6D" stroke-width="4.58333" stroke-miterlimit="8" fill="#FFCD6D" fill-rule="evenodd"/><path d="M2993.5 1386.5 3261.19 1386.5" stroke="#2A557F" stroke-width="20.625" stroke-miterlimit="8" fill="none" fill-rule="evenodd"/><path d="M2670.5 1711.5 3128.77 1711.5" stroke="#45BC9C" stroke-width="20.625" stroke-miterlimit="8" fill="none" fill-rule="evenodd"/><path d="M2042.5 2038.5 2763.93 2038.5" stroke="#F05076" stroke-width="20.625" stroke-miterlimit="8" fill="none" fill-rule="evenodd"/><path d="M1743.5 2354.5 2535.16 2354.5" stroke="#FFCD6D" stroke-width="20.625" stroke-miterlimit="8" fill="none" fill-rule="evenodd"/><rect x="58.0001" y="525" width="0.999672" height="105" fill="#FFFFFF"/><path d="M994.5 1304.17C994.5 1282.81 1011.81 1265.5 1033.17 1265.5L2312.83 1265.5C2334.19 1265.5 2351.5 1282.81 2351.5 1304.17L2351.5 1458.83C2351.5 1480.19 2334.19 1497.5 2312.83 1497.5L1033.17 1497.5C1011.81 1497.5 994.5 1480.19 994.5 1458.83Z" stroke="#2A557F" stroke-width="4.58333" stroke-miterlimit="8" fill="#2A557F" fill-rule="evenodd"/><text fill="#FFFFFF" font-family="Times New Roman,Times New Roman_MSFontService,sans-serif" font-weight="700" font-size="147" transform="matrix(1 0 0 1 1069.13 1435)">All Descriptors 278</text><path d="M996.5 1622.17C996.5 1600.81 1013.81 1583.5 1035.17 1583.5L2310.83 1583.5C2332.19 1583.5 2349.5 1600.81 2349.5 1622.17L2349.5 1776.83C2349.5 1798.19 2332.19 1815.5 2310.83 1815.5L1035.17 1815.5C1013.81 1815.5 996.5 1798.19 996.5 1776.83Z" stroke="#45BC9C" stroke-width="4.58333" stroke-miterlimit="8" fill="#45BC9C" fill-rule="evenodd"/><text fill="#FFFFFF" font-family="Times New Roman,Times New Roman_MSFontService,sans-serif" font-weight="700" font-size="147" transform="matrix(1 0 0 1 1040.35 1753)">Variance Test 207</text><path d="M1458.5 1946.17C1458.5 1924.81 1475.81 1907.5 1497.17 1907.5L1815.83 1907.5C1837.19 1907.5 1854.5 1924.81 1854.5 1946.17L1854.5 2100.83C1854.5 2122.19 1837.19 2139.5 1815.83 2139.5L1497.17 2139.5C1475.81 2139.5 1458.5 2122.19 1458.5 2100.83Z" stroke="#F05076" stroke-width="4.58333" stroke-miterlimit="8" fill="#F05076" fill-rule="evenodd"/><text fill="#FFFFFF" font-family="Times New Roman,Times New Roman_MSFontService,sans-serif" font-weight="700" font-size="110" transform="matrix(1 0 0 1 1551.99 1997)">K<tspan font-size="110" x="85.3645" y="0">-</tspan><tspan font-size="110" x="122.031" y="0">Q </tspan><tspan font-size="110" x="-29.2188" y="132">T test</tspan></text><path d="M1620.5 2241.5C1620.5 2235.98 1624.98 2231.5 1630.5 2231.5L1670.5 2231.5C1676.02 2231.5 1680.5 2235.98 1680.5 2241.5L1680.5 2454.5C1680.5 2460.02 1676.02 2464.5 1670.5 2464.5L1630.5 2464.5C1624.98 2464.5 1620.5 2460.02 1620.5 2454.5Z" stroke="#FFCD6D" stroke-width="4.58333" stroke-miterlimit="8" fill="#FFCD6D" fill-rule="evenodd"/></g></svg>