<?xml version="1.0" standalone="no"?>
<svg xmlns="http://www.w3.org/2000/svg" xmlns:xlink="http://www.w3.org/1999/xlink" version="1.1" class="round-corner-donut-chart" width="600" height="600" style="background-color: transparent; font-size: 14px; font-family: &quot;阿里巴巴普惠体 常规&quot;; letter-spacing: 0px; user-select: none; filter: drop-shadow(rgb(198, 198, 198) 2px 2px 5px);"><defs><path d="M6.244722534871803 -168.6992594515532A168.8148 168.8148 0 0 1  166.9274283099216 -25.1728102697331" id="arc-path-Dipeptide-0-l6cq7o1flaq3n1k"/><path d="M28.486716810644378 166.39394118894518A168.8148 168.8148 0 0 0  168.3316778599699 -12.762559613467873" id="arc-path-Tripeptide-1-l6cq7o1flaq3n1k"/><path d="M-39.850510155027095 101.55939367869465A109.098 109.098 0 0 0  10.409181566213906 108.60028795137512" id="arc-path-Tetrapeptide---2-l6cq7o1flaq3n1k"/><path d="M-114.46212971687434 124.08407456123217A168.8148 168.8148 0 0 0  -73.11313808740846 152.1607890951264" id="arc-path-Pentapeptide-3-l6cq7o1flaq3n1k"/><path d="M-166.2014827039633 29.58891424240142A168.8148 168.8148 0 0 0  -123.32271889750223 115.28201812411008" id="arc-path-Hexapeptide-4-l6cq7o1flaq3n1k"/><path d="M-167.93421250996244 17.22024876994464A168.8148 168.8148 0 0 1  -160.54637034800405 -52.185243767961126" id="arc-path-Hepteptide-5-l6cq7o1flaq3n1k"/><path d="M-156.24881039104898 -63.91201726140418A168.8148 168.8148 0 0 1  -126.33530437725697 -111.97244110470143" id="arc-path-Octopeptide-6-l6cq7o1flaq3n1k"/><path d="M-117.71115574156703 -121.00628294855002A168.8148 168.8148 0 0 1  -94.44565709764203 -139.9230308220724" id="arc-path-Nonapeptide-7-l6cq7o1flaq3n1k"/><path d="M-83.84232603167571 -146.52269812093343A168.8148 168.8148 0 0 1  -64.9461968754177 -155.82178349146014" id="arc-path-Decapeptide-8-l6cq7o1flaq3n1k"/><path d="M-53.24816424830865 -160.19697157944387A168.8148 168.8148 0 0 1  -48.08814133418247 -161.82078779336013" id="arc-path-Undecapeptide-9-l6cq7o1flaq3n1k"/><path d="M-35.99272373134466 -164.93320022796834A168.8148 168.8148 0 0 1  -37.26519846110343 -164.65036192700754" id="arc-path-Dodecapeptide-10-l6cq7o1flaq3n1k"/><path d="M-16.15013126762648 -107.89600022261452A109.098 109.098 0 0 1  -4.035705039543112 -109.0233309380786" id="arc-path-N----13-peptides-11-l6cq7o1flaq3n1k"/><path d="M-61.66342097672613 157.14979863966434A168.8148 168.8148 0 0 0  16.106838844562567 168.04465609318044" id="arc-path-Tetrapeptide-2-l6cq7o1flaq3n1k"/><path d="M-24.99020311937992 -166.9548635023614A168.8148 168.8148 0 0 1  -6.244722534871973 -168.6992594515532" id="arc-path----13-peptides-11-l6cq7o1flaq3n1k"/><filter x="-10%" y="-10%" width="180%" height="180%" id="Drop_Shadow_roundDonut" filterUnits="objectBoundingBox"><feGaussianBlur in="SourceAlpha" stdDeviation="0" result="blurredAlpha"/><feOffset in="blurredAlpha" dx="0.5" dy="0.7" result="offsetBlurredAlpha"/><feFlood result="flooded" style="flood-color: rgb(255, 255, 255); flood-opacity: 0.5;"/><feComposite in="flooded" in2="offsetBlurredAlpha" operator="in" result="coloredShadow"/><feComposite in="SourceGraphic" in2="coloredShadow" operator="over"/></filter></defs><g class="svg-group" opacity="1" transform="translate(24,20)"><g class="main-group" transform="translate(0,0)"><g class="pie" transform="translate(276,221.5)"><g stroke-linejoin="round"><path class="pie-path" d="M2.7769954691648966,-184.47806044833877A10,10,0,0,1,13.467942660878336,-194.45416148923962A194.92,194.92,0,0,1,191.70687884396796,-35.24597854939171A10,10,0,0,1,182.9960709498837,-23.501159705891933L132.97885836088994,-17.841592448295472A10,10,0,0,1,122.06930089994964,-25.716704284133144A124.74879999999999,124.74879999999999,0,0,0,11.828786990190332,-124.18672594033833A10,10,0,0,1,2.7769954691648984,-134.1416694700828Z" style="stroke: rgb(90, 174, 243); stroke-width: 0; fill: rgb(90, 174, 243); fill-opacity: 0.77;"/><path class="pie-path" d="M183.62053338456906,-17.982386109274998A10,10,0,0,1,194.7354125083548,-8.480891179638888A194.92,194.92,0,0,1,39.05056361056817,190.96821694118884A10,10,0,0,1,27.13487645084519,182.49264360684256L20.481976314031797,132.59784251008062A10,10,0,0,1,28.13862560592084,121.5338670924686A124.74879999999999,124.74879999999999,0,0,0,124.72923794532434,-2.2091407874236944A10,10,0,0,1,133.60332079557534,-12.322818851678539Z" style="stroke: rgb(98, 217, 173); stroke-width: 0; fill: rgb(98, 217, 173); fill-opacity: 0.77;"/><path class="pie-path" d="M21.62960943079029,183.2267078962239A10,10,0,0,1,12.350980776455321,194.5283004445873A194.92,194.92,0,0,1,-65.32952661696936,183.64601643379768A10,10,0,0,1,-71.14543415124419,170.22982608828474L-51.038156876252486,124.08386573093112A10,10,0,0,1,-38.76333123830341,118.5734677436296A124.74879999999999,124.74879999999999,0,0,0,4.688594222206399,124.66066013646602A10,10,0,0,1,14.976709293976882,133.33190679946193Z" style="stroke: rgb(91, 110, 150); stroke-width: 0; fill: rgb(91, 110, 150); fill-opacity: 0.77;"/><path class="pie-path" d="M-76.23706350099198,168.01123962212296A10,10,0,0,1,-90.02303904587876,172.88625983849667A194.92,194.92,0,0,1,-127.48865845870101,147.4464254039435A10,10,0,0,1,-128.04255709827123,132.8343707869038L-92.56750182099547,97.12341014748556A10,10,0,0,1,-79.1299007221088,96.44025048261335A124.74879999999999,124.74879999999999,0,0,0,-60.4514469302169,109.12325904903669A10,10,0,0,1,-56.12978622600027,121.8652792647693Z" style="stroke: rgb(168, 223, 250); stroke-width: 0; fill: rgb(168, 223, 250); fill-opacity: 0.77;"/><path class="pie-path" d="M-131.98281479128016,128.92014229897254A10,10,0,0,1,-146.59821958970565,128.46310136816888A194.92,194.92,0,0,1,-190.7052038111412,40.31540201152764A10,10,0,0,1,-182.30879123593945,28.34380229798631L-132.45918001429195,21.360356317208257A10,10,0,0,1,-121.34470098759266,28.943507798325463A124.74879999999999,124.74879999999999,0,0,0,-95.9136763726604,79.76734786941685A10,10,0,0,1,-96.50775951400443,93.20918165955429Z" style="stroke: rgb(255, 220, 76); stroke-width: 0; fill: rgb(255, 220, 76); fill-opacity: 0.77;"/><path class="pie-path" d="M-183.0793271234311,22.843521415237102A10,10,0,0,1,-194.44216819085162,13.64000107186792A194.92,194.92,0,0,1,-187.21401829037973,-54.265253667235A10,10,0,0,1,-174.16840554317383,-60.870625109039594L-126.90582084200123,-43.55010710060985A10,10,0,0,1,-120.67345817903279,-31.62561608179712A124.74879999999999,124.74879999999999,0,0,0,-124.62684709933148,5.514715180301366A10,10,0,0,1,-133.2297159017836,15.860075434459032Z" style="stroke: rgb(255, 151, 76); stroke-width: 0; fill: rgb(255, 151, 76); fill-opacity: 0.77;"/><path class="pie-path" d="M-172.25730309430037,-66.08545998398617A10,10,0,0,1,-177.94550543672642,-79.55629135943911A194.92,194.92,0,0,1,-149.95203306777486,-124.53190024584443A10,10,0,0,1,-135.35387953563048,-125.37620900821148L-98.94465618356146,-90.61817811440217A10,10,0,0,1,-97.99446265220087,-77.19681593787668A124.74879999999999,124.74879999999999,0,0,0,-112.5329970096981,-53.838533463080836A10,10,0,0,1,-124.9947183931278,-48.76494197555643Z" style="stroke: rgb(230, 90, 86); stroke-width: 0; fill: rgb(230, 90, 86); fill-opacity: 0.77;"/><path class="pie-path" d="M-131.51876571704557,-129.39351125493724A10,10,0,0,1,-131.35240135063106,-144.0151139964925A194.92,194.92,0,0,1,-114.18744528318791,-157.97162321030623A10,10,0,0,1,-99.83944188579224,-155.1513852163435L-73.2407073842359,-112.41662676807837A10,10,0,0,1,-75.66514071919897,-99.181901480985A124.74879999999999,124.74879999999999,0,0,0,-81.65855395271032,-94.30876771431325A10,10,0,0,1,-95.10954236497655,-94.63548036112796Z" style="stroke: rgb(109, 97, 228); stroke-width: 0; fill: rgb(109, 97, 228); fill-opacity: 0.77;"/><path class="pie-path" d="M-95.12419598594391,-158.08622276670545A10,10,0,0,1,-91.31932680181538,-172.20507237727705A194.92,194.92,0,0,1,-80.73392837254963,-177.4143151201053A10,10,0,0,1,-67.22569269354842,-171.81551947507324L-49.59230890665147,-124.66876950288695A10,10,0,0,1,-54.583195359233926,-112.17369515985331A124.74879999999999,124.74879999999999,0,0,0,-55.58025402241025,-111.6830267509094A10,10,0,0,1,-68.52546148438768,-115.35146431844029Z" style="stroke: rgb(74, 111, 226); stroke-width: 0; fill: rgb(74, 111, 226); fill-opacity: 0.77;"/><path class="pie-path" d="M-63.07629081823684,-176.57564082367122A7.173176804210516,7.173176804210516,0,1,1,-49.410781716070126,-180.87606266690958L-34.74113068654889,-123.86705148414543A4.0490075026565195,4.0490075026565195,0,0,1,-42.454832773163474,-121.43961371380645Z" style="stroke: rgb(109, 154, 231); stroke-width: 0; fill: rgb(109, 154, 231); fill-opacity: 0.77;"/><path class="pie-path" d="M-44.97119055077293,-185.90995709483823A3.5632465483301434,3.5632465483301434,0,1,1,-38.0182963812427,-187.45540607522236L-25.99351227640422,-123.40504028215396A1.4027977505945495,1.4027977505945495,0,0,1,-28.730764433628593,-122.79661975218602Z" style="stroke: rgb(35, 194, 219); stroke-width: 0; fill: rgb(35, 194, 219); fill-opacity: 0.77;"/><path class="pie-path" d="M-31.3098278017781,-181.8228840757942A10,10,0,0,1,-22.643198835654523,-193.60034077059112A194.92,194.92,0,0,1,-13.46794266087863,-194.45416148923962A10,10,0,0,1,-2.776995469165154,-184.4780604483388L-2.7769954691650423,-133.84909428557046A9.678583720823843,9.678583720823843,0,0,1,-21.96797701264353,-132.06324140681713Z" style="stroke: rgb(212, 236, 89); stroke-width: 0; fill: rgb(212, 236, 89); fill-opacity: 0.77;"/></g></g><g class="outside-ellipse-text-polygon" display="none"><g/></g><g class="pie-text" transform="translate(276,221.5)"><g><g class="pie-text-group"><g/><text dy="0.35em" class="chart-label-text" style="text-anchor: middle; font-size: 24px; font-family: &quot;阿里巴巴普惠体 常规&quot;; pointer-events: none; fill: rgb(255, 255, 255);"><textPath startOffset="52%" xlink:href="#arc-path-Dipeptide-0-l6cq7o1flaq3n1k">110</textPath></text></g><g class="pie-text-group"><g/><text dy="0.35em" class="chart-label-text" style="text-anchor: middle; font-size: 24px; font-family: &quot;阿里巴巴普惠体 常规&quot;; pointer-events: none; fill: rgb(255, 255, 255);"><textPath startOffset="52%" xlink:href="#arc-path-Tripeptide-1-l6cq7o1flaq3n1k">117</textPath></text></g><g class="pie-text-group"><g/><text dy="0.35em" class="chart-label-text" style="text-anchor: middle; font-size: 24px; font-family: &quot;阿里巴巴普惠体 常规&quot;; pointer-events: none; fill: rgb(255, 255, 255);"><textPath startOffset="52%" xlink:href="#arc-path-Tetrapeptide-2-l6cq7o1flaq3n1k">41</textPath></text></g><g class="pie-text-group"><g/><text dy="0.35em" class="chart-label-text" style="text-anchor: middle; font-size: 24px; font-family: &quot;阿里巴巴普惠体 常规&quot;; pointer-events: none; fill: rgb(255, 255, 255);"><textPath startOffset="52%" xlink:href="#arc-path-Pentapeptide-3-l6cq7o1flaq3n1k">28</textPath></text></g><g class="pie-text-group"><g/><text dy="0.35em" class="chart-label-text" style="text-anchor: middle; font-size: 24px; font-family: &quot;阿里巴巴普惠体 常规&quot;; pointer-events: none; fill: rgb(255, 255, 255);"><textPath startOffset="52%" xlink:href="#arc-path-Hexapeptide-4-l6cq7o1flaq3n1k">49</textPath></text></g><g class="pie-text-group"><g/><text dy="0.35em" class="chart-label-text" style="text-anchor: middle; font-size: 24px; font-family: &quot;阿里巴巴普惠体 常规&quot;; pointer-events: none; fill: rgb(255, 255, 255);"><textPath startOffset="52%" xlink:href="#arc-path-Hepteptide-5-l6cq7o1flaq3n1k">37</textPath></text></g><g class="pie-text-group"><g/><text dy="0.35em" class="chart-label-text" style="text-anchor: middle; font-size: 24px; font-family: &quot;阿里巴巴普惠体 常规&quot;; pointer-events: none; fill: rgb(255, 255, 255);"><textPath startOffset="52%" xlink:href="#arc-path-Octopeptide-6-l6cq7o1flaq3n1k">31</textPath></text></g><g class="pie-text-group"><g/><text dy="0.35em" class="chart-label-text" style="text-anchor: middle; font-size: 24px; font-family: &quot;阿里巴巴普惠体 常规&quot;; pointer-events: none; fill: rgb(255, 255, 255);"><textPath startOffset="52%" xlink:href="#arc-path-Nonapeptide-7-l6cq7o1flaq3n1k">19</textPath></text></g><g class="pie-text-group"><g/><text dy="0.35em" class="chart-label-text" style="text-anchor: middle; font-size: 24px; font-family: &quot;阿里巴巴普惠体 常规&quot;; pointer-events: none; fill: rgb(255, 255, 255);"><textPath startOffset="52%" xlink:href="#arc-path-Decapeptide-8-l6cq7o1flaq3n1k"/></text></g><g class="pie-text-group"><g/><text dy="0.35em" class="chart-label-text" style="text-anchor: middle; font-size: 24px; font-family: &quot;阿里巴巴普惠体 常规&quot;; pointer-events: none; fill: rgb(255, 255, 255);"><textPath startOffset="52%" xlink:href="#arc-path-Undecapeptide-9-l6cq7o1flaq3n1k"/></text></g><g class="pie-text-group"><g/><text dy="0.35em" class="chart-label-text" style="text-anchor: middle; font-size: 24px; font-family: &quot;阿里巴巴普惠体 常规&quot;; pointer-events: none; fill: rgb(255, 255, 255);"><textPath startOffset="52%" xlink:href="#arc-path-Dodecapeptide-10-l6cq7o1flaq3n1k"/></text></g><g class="pie-text-group"><g/><text dy="0.35em" class="chart-label-text" style="text-anchor: middle; font-size: 24px; font-family: &quot;阿里巴巴普惠体 常规&quot;; pointer-events: none; fill: rgb(255, 255, 255);"><textPath startOffset="52%" xlink:href="#arc-path----13-peptides-11-l6cq7o1flaq3n1k"/></text></g></g></g></g><text transform="translate(0,0)" style="display: none;"/><g class="unit-group" transform="translate(0,0)" style="display: none;"/><g class="source-group" transform="translate(0,558)" style="display: none;"/><g class="legend" transform="translate(0,463.25)" style="display: block;"><g transform="translate(13.7421875,0)"><g class="legend-group"><g class="legend-item" transform="translate(0,0)" style="opacity: 1;"><circle cx="6" cy="6" r="6" class="legend-shape" style="fill: rgb(90, 174, 243);"/><text x="18" y="6" dy="0.35em" style="text-anchor: start; font-size: 20px; font-family: &quot;阿里巴巴普惠体 常规&quot;; fill: rgb(84, 84, 84);">Dipeptide</text></g><g class="legend-item" transform="translate(130.671875,0)" style="opacity: 1;"><circle cx="6" cy="6" r="6" class="legend-shape" style="fill: rgb(98, 217, 173);"/><text x="18" y="6" dy="0.35em" style="text-anchor: start; font-size: 20px; font-family: &quot;阿里巴巴普惠体 常规&quot;; fill: rgb(84, 84, 84);">Tripeptide</text></g><g class="legend-item" transform="translate(264.3125,0)" style="opacity: 1;"><circle cx="6" cy="6" r="6" class="legend-shape" style="fill: rgb(91, 110, 150);"/><text x="18" y="6" dy="0.35em" style="text-anchor: start; font-size: 20px; font-family: &quot;阿里巴巴普惠体 常规&quot;; fill: rgb(84, 84, 84);">Tetrapeptide</text></g></g><g class="legend-group"><g class="legend-item" transform="translate(0,26)" style="opacity: 1;"><circle cx="6" cy="6" r="6" class="legend-shape" style="fill: rgb(168, 223, 250);"/><text x="18" y="6" dy="0.35em" style="text-anchor: start; font-size: 20px; font-family: &quot;阿里巴巴普惠体 常规&quot;; fill: rgb(84, 84, 84);">Pentapeptide</text></g><g class="legend-item" transform="translate(166.171875,26)" style="opacity: 1;"><circle cx="6" cy="6" r="6" class="legend-shape" style="fill: rgb(255, 220, 76);"/><text x="18" y="6" dy="0.35em" style="text-anchor: start; font-size: 20px; font-family: &quot;阿里巴巴普惠体 常规&quot;; fill: rgb(84, 84, 84);">Hexapeptide</text></g><g class="legend-item" transform="translate(325.375,26)" style="opacity: 1;"><circle cx="6" cy="6" r="6" class="legend-shape" style="fill: rgb(255, 151, 76);"/><text x="18" y="6" dy="0.35em" style="text-anchor: start; font-size: 20px; font-family: &quot;阿里巴巴普惠体 常规&quot;; fill: rgb(84, 84, 84);">Hepteptide</text></g></g><g class="legend-group"><g class="legend-item" transform="translate(0,52)" style="opacity: 1;"><circle cx="6" cy="6" r="6" class="legend-shape" style="fill: rgb(230, 90, 86);"/><text x="18" y="6" dy="0.35em" style="text-anchor: start; font-size: 20px; font-family: &quot;阿里巴巴普惠体 常规&quot;; fill: rgb(84, 84, 84);">Octopeptide</text></g><g class="legend-item" transform="translate(155.234375,52)" style="opacity: 1;"><circle cx="6" cy="6" r="6" class="legend-shape" style="fill: rgb(109, 97, 228);"/><text x="18" y="6" dy="0.35em" style="text-anchor: start; font-size: 20px; font-family: &quot;阿里巴巴普惠体 常规&quot;; fill: rgb(84, 84, 84);">Nonapeptide</text></g><g class="legend-item" transform="translate(318.265625,52)" style="opacity: 1;"><circle cx="6" cy="6" r="6" class="legend-shape" style="fill: rgb(74, 111, 226);"/><text x="18" y="6" dy="0.35em" style="text-anchor: start; font-size: 20px; font-family: &quot;阿里巴巴普惠体 常规&quot;; fill: rgb(84, 84, 84);">Decapeptide</text></g></g><g class="legend-group"><g class="legend-item" transform="translate(0,78)" style="opacity: 1;"><circle cx="6" cy="6" r="6" class="legend-shape" style="fill: rgb(109, 154, 231);"/><text x="18" y="6" dy="0.35em" style="text-anchor: start; font-size: 20px; font-family: &quot;阿里巴巴普惠体 常规&quot;; fill: rgb(84, 84, 84);">Undecapeptide</text></g><g class="legend-item" transform="translate(184.140625,78)" style="opacity: 1;"><circle cx="6" cy="6" r="6" class="legend-shape" style="fill: rgb(35, 194, 219);"/><text x="18" y="6" dy="0.35em" style="text-anchor: start; font-size: 20px; font-family: &quot;阿里巴巴普惠体 常规&quot;; fill: rgb(84, 84, 84);">Dodecapeptide</text></g><g class="legend-item" transform="translate(368.25,78)" style="opacity: 1;"><circle cx="6" cy="6" r="6" class="legend-shape" style="fill: rgb(212, 236, 89);"/><text x="18" y="6" dy="0.35em" style="text-anchor: start; font-size: 20px; font-family: &quot;阿里巴巴普惠体 常规&quot;; fill: rgb(84, 84, 84);">&gt;= 13 peptides</text></g></g></g></g></g></svg>